<?xml version="1.0" encoding="UTF-8" standalone="no"?>
<svg
   xmlns:dc="http://purl.org/dc/elements/1.1/"
   xmlns:cc="http://creativecommons.org/ns#"
   xmlns:rdf="http://www.w3.org/1999/02/22-rdf-syntax-ns#"
   xmlns:svg="http://www.w3.org/2000/svg"
   xmlns="http://www.w3.org/2000/svg"
   viewBox="0 0 192 262"
   height="262"
   width="192"
   id="svg2699"
   version="1.1">
  <metadata
     id="metadata2705">
    <rdf:RDF>
      <cc:Work
         rdf:about="">
        <dc:format>image/svg+xml</dc:format>
        <dc:type
           rdf:resource="http://purl.org/dc/dcmitype/StillImage" />
        <dc:title></dc:title>
      </cc:Work>
    </rdf:RDF>
  </metadata>
  <defs
     id="defs2703" />
  <path
     id="path3252"
     d="M 23.550251,213.32948 20.017714,49.655234 34.932873,49.26273 c 1.552416,4.065389 4.599658,6.529178 9.812604,6.672571 2.782137,8.234993 7.872975,7.235183 12.952639,6.280067 3.193325,2.072848 6.75231,1.311837 10.990117,-4.71005 4.150008,2.96136 8.104719,-0.243805 13.541394,-2.943781 3.346533,2.133154 9.769607,0.04424 11.574789,-5.140311 3.3749,2.938194 12.077034,-0.584013 14.526744,-8.793588 10.50733,-1.243406 20.67196,-1.929933 28.2603,1.570017 3.61475,1.070988 4.78681,3.363321 4.71005,6.280067 l -4.31755,164.459258 c 4.37356,8.44197 9.16822,19.88362 -5.49506,23.55025 -41.003623,8.04654 -68.350265,6.57387 -108.699847,-0.55508 -10.788546,-2.21673 -5.211671,-14.54531 0.761198,-22.60267 z"
     style="fill:none;stroke:#000000;stroke-width:2.64566929;stroke-linecap:round;stroke-linejoin:round;stroke-opacity:1;stroke-miterlimit:4;stroke-dasharray:none" />
  <path
     id="path3254"
     d="M 19.427966,89.646186 C 10.431706,91.501273 7.6198593,82.615009 5.5508475,72.438559 2.2654735,68.290967 0.29007248,63.997823 3.6080509,59.116525 0.47632687,54.479126 -0.10116927,49.691478 3.0529661,44.684322 1.6854369,33.675893 5.3466012,26.829142 14.709746,24.701271 c 5.273305,-5.075656 10.54661,-8.118801 15.819915,-5.82839 4.08712,-1.668914 2.700874,-5.354332 13.044492,-4.71822 0.664192,-4.057522 4.794173,-5.3788937 12.489406,-3.885593 0,0 1.950995,-7.2910821 8.881356,-4.4406784 4.720226,1.9413925 9.905966,-0.9392603 10.546611,-1.3877119 8.790604,-5.64865 15.261221,-4.33733789 19.98305,2.220339 4.764384,0.786715 10.341424,-1.4063192 13.044494,6.9385593 4.60525,-1.23384 7.77785,1.830282 10.54661,6.105932 5.87516,-0.644298 7.94436,2.834526 9.43644,6.93856 9.4128,2.601316 13.0947,7.406826 8.08934,15.553587"
     style="fill:none;stroke:#000000;stroke-width:2.64566929;stroke-linecap:round;stroke-linejoin:round;stroke-opacity:1;stroke-miterlimit:4;stroke-dasharray:none" />
  <path
     id="path3256"
     d="m 17.662688,36.506344 c -4.471368,2.808643 -0.629758,8.98302 1.373765,8.242588"
     style="fill:none;stroke:#000000;stroke-width:2.64566929;stroke-linecap:round;stroke-linejoin:round;stroke-opacity:1;stroke-miterlimit:4;stroke-dasharray:none" />
  <path
     id="path3258"
     d="m 36.306637,26.889991 c -7.041758,2.256404 -4.731502,12.004234 1.766269,10.793865"
     style="fill:none;stroke:#000000;stroke-width:2.64566929;stroke-linecap:round;stroke-linejoin:round;stroke-opacity:1;stroke-miterlimit:4;stroke-dasharray:none" />
  <path
     id="path3260"
     d="m 52.595561,26.693739 c 1.083049,-5.661301 5.002109,-8.663842 12.363882,-8.43884"
     style="fill:none;stroke:#000000;stroke-width:2.64566929;stroke-linecap:round;stroke-linejoin:round;stroke-opacity:1;stroke-miterlimit:4;stroke-dasharray:none" />
  <path
     id="path3262"
     d="m 56.324351,45.926444 c 2.533896,3.217954 9.957433,0.83169 8.43884,-1.962521"
     style="fill:none;stroke:#000000;stroke-width:2.64566929;stroke-linecap:round;stroke-linejoin:round;stroke-opacity:1;stroke-miterlimit:4;stroke-dasharray:none" />
  <path
     id="path3264"
     d="m 70.25825,40.431386 c 4.416811,0.718171 8.627376,1.155097 7.065075,-6.280067 v 0 0"
     style="fill:none;stroke:#000000;stroke-width:2.64566929;stroke-linecap:round;stroke-linejoin:round;stroke-opacity:1;stroke-miterlimit:4;stroke-dasharray:none" />
  <path
     id="path3266"
     d="m 83.799644,37.487604 c 8.075128,2.439577 10.93262,-0.528214 8.831344,-8.635092 v 0 0"
     style="fill:none;stroke:#000000;stroke-width:2.64566929;stroke-linecap:round;stroke-linejoin:round;stroke-opacity:1;stroke-miterlimit:4;stroke-dasharray:none" />
  <path
     id="path3268"
     d="m 103.03235,31.796294 c 3.92541,-0.21785 4.31153,-2.401978 2.35502,-5.887563"
     style="fill:none;stroke:#000000;stroke-width:2.64566929;stroke-linecap:round;stroke-linejoin:round;stroke-opacity:1;stroke-miterlimit:4;stroke-dasharray:none" />
  <path
     id="path3270"
     d="m 114.80748,33.562562 c 3.66337,2.485861 5.49505,1.570016 5.49505,-2.747529"
     style="fill:none;stroke:#000000;stroke-width:2.64566929;stroke-linecap:round;stroke-linejoin:round;stroke-opacity:1;stroke-miterlimit:4;stroke-dasharray:none" />
  <path
     id="path3272"
     d="m 12.069504,58.486578 c -2.067162,3.260216 -1.594995,6.225161 1.962521,8.831345"
     style="fill:none;stroke:#000000;stroke-width:2.64566929;stroke-linecap:round;stroke-linejoin:round;stroke-opacity:1;stroke-miterlimit:4;stroke-dasharray:none" />
  <path
     id="path3274"
     d="m 139.88136,67.165254 c 27.61449,-3.694919 54.50441,-5.840376 48.84745,61.614406 -3.36131,74.98158 -29.96297,59.51423 -51.62288,63.27966 v 0"
     style="fill:none;stroke:#000000;stroke-width:2.64566929;stroke-linecap:butt;stroke-linejoin:miter;stroke-opacity:1;stroke-miterlimit:4;stroke-dasharray:none" />
  <path
     id="path3276"
     d="m 139.92774,96.16698 c 5.28393,-13.984799 35.82319,-20.952903 32.7741,33.55911 -0.30923,43.81095 -17.50701,45.78598 -35.32537,43.76422 v 0"
     style="fill:none;stroke:#000000;stroke-width:2.64566929;stroke-linecap:butt;stroke-linejoin:miter;stroke-opacity:1;stroke-miterlimit:4;stroke-dasharray:none" />
  <path
     id="path3278"
     d="m 41.997948,141.89372 c -17.648401,-9.3826 -10.55307,82.87264 -1.570017,64.37069"
     style="fill:none;stroke:#000000;stroke-width:1.88976378;stroke-linecap:round;stroke-linejoin:miter;stroke-opacity:1;stroke-miterlimit:4;stroke-dasharray:none" />
  <path
     id="path3278-1"
     d="m 70.530526,144.50188 c -17.648401,-8.23107 -10.55307,72.70161 -1.570017,56.47042"
     style="fill:none;stroke:#000000;stroke-width:1.88976378;stroke-linecap:round;stroke-linejoin:miter;stroke-opacity:1;stroke-miterlimit:4;stroke-dasharray:none" />
  <path
     id="path3278-2"
     d="m 98.594575,143.16857 c -17.648401,-9.3826 -10.55307,82.87264 -1.570017,64.37069"
     style="fill:none;stroke:#000000;stroke-width:1.88976378;stroke-linecap:round;stroke-linejoin:miter;stroke-opacity:1;stroke-miterlimit:4;stroke-dasharray:none" />
  <path
     id="path3278-9"
     d="m 115.90303,147.58262 c 17.64841,-7.99141 10.55308,70.58489 1.57002,54.82628"
     style="fill:none;stroke:#000000;stroke-width:1.88976378;stroke-linecap:round;stroke-linejoin:miter;stroke-opacity:1;stroke-miterlimit:4;stroke-dasharray:none" />
  <path
     id="path3307"
     d="m 30.419074,214.11449 c 30.844704,5.40795 63.887046,6.22084 100.481066,-0.39251"
     style="fill:none;stroke:#000000;stroke-width:1.88976378;stroke-linecap:butt;stroke-linejoin:miter;stroke-opacity:1;stroke-miterlimit:4;stroke-dasharray:none" />
  <path
     id="path3307-3"
     d="M 30.800555,62.980816 C 58.1568,70.022844 86.722712,73.260697 131.28162,62.588306"
     style="fill:none;stroke:#000000;stroke-width:2.64566929;stroke-linecap:butt;stroke-linejoin:miter;stroke-opacity:1;stroke-miterlimit:4;stroke-dasharray:none" />
  <path
     id="path3386"
     d="m 175.96186,138.2161 c -1.89337,27.92405 -9.35193,41.93513 -22.75847,41.07627 v 0"
     style="fill:none;stroke:#000000;stroke-width:1.88976378;stroke-linecap:round;stroke-linejoin:miter;stroke-opacity:1;stroke-miterlimit:4;stroke-dasharray:none" />
  <path
     id="path3388"
     d="m 35.325377,75.560511 0.785008,44.745479"
     style="fill:none;stroke:#000000;stroke-width:1.88976378;stroke-linecap:round;stroke-linejoin:miter;stroke-opacity:1;stroke-miterlimit:4;stroke-dasharray:none" />
</svg>
