<?xml version="1.0" encoding="UTF-8" standalone="no"?>
<!-- Created with Inkscape (http://www.inkscape.org/) -->

<svg
   xmlns:dc="http://purl.org/dc/elements/1.1/"
   xmlns:cc="http://creativecommons.org/ns#"
   xmlns:rdf="http://www.w3.org/1999/02/22-rdf-syntax-ns#"
   xmlns:svg="http://www.w3.org/2000/svg"
   xmlns="http://www.w3.org/2000/svg"
   xmlns:xlink="http://www.w3.org/1999/xlink"
   xmlns:sodipodi="http://sodipodi.sourceforge.net/DTD/sodipodi-0.dtd"
   xmlns:inkscape="http://www.inkscape.org/namespaces/inkscape"
   version="1.1"
   id="svg815"
   width="820"
   height="820"
   viewBox="0 0 820 820"
   sodipodi:docname="candle.svg"
   inkscape:version="0.92.4 5da689c313, 2019-01-14">
  <metadata
     id="metadata821">
    <rdf:RDF>
      <cc:Work
         rdf:about="">
        <dc:format>image/svg+xml</dc:format>
        <dc:type
           rdf:resource="http://purl.org/dc/dcmitype/StillImage" />
      </cc:Work>
    </rdf:RDF>
  </metadata>
  <defs
     id="defs819">
    <linearGradient
       inkscape:collect="always"
       id="linearGradient2644">
      <stop
         style="stop-color:#808080;stop-opacity:0.6082949"
         offset="0"
         id="stop2640" />
      <stop
         style="stop-color:#808080;stop-opacity:0;"
         offset="1"
         id="stop2642" />
    </linearGradient>
    <linearGradient
       inkscape:collect="always"
       xlink:href="#linearGradient2644"
       id="linearGradient2646"
       x1="448.62656"
       y1="416.04996"
       x2="216.8672"
       y2="400.22702"
       gradientUnits="userSpaceOnUse" />
  </defs>
  <sodipodi:namedview
     pagecolor="#ffffff"
     bordercolor="#666666"
     borderopacity="1"
     objecttolerance="10"
     gridtolerance="10"
     guidetolerance="10"
     inkscape:pageopacity="0"
     inkscape:pageshadow="2"
     inkscape:window-width="1916"
     inkscape:window-height="1048"
     id="namedview817"
     showgrid="false"
     inkscape:zoom="0.75970863"
     inkscape:cx="123.04607"
     inkscape:cy="407.32888"
     inkscape:window-x="0"
     inkscape:window-y="0"
     inkscape:window-maximized="0"
     inkscape:current-layer="layer3">
    <inkscape:grid
       type="xygrid"
       id="grid928" />
  </sodipodi:namedview>
  <g
     inkscape:groupmode="layer"
     id="layer1"
     inkscape:label="shadow"
     style="display:inline">
    <path
       inkscape:connector-curvature="0"
       style="fill:#b3b3b3;fill-opacity:0.50230414;stroke:none;stroke-width:0.62892771px;stroke-linecap:round;stroke-linejoin:round;stroke-opacity:1"
       d="m 530.86286,482.72911 -1.3137,6.1402 c -9.79618,-1.30402 -14.00384,-0.32166 -17.68269,0.87652 -16.19515,-0.11805 -25.51267,1.63287 -17.97887,7.96537 -9.01576,3.5539 -11.19801,8.277 -10.55291,13.48318 -3.23377,1.8566 -7.34038,3.64146 -4.8252,5.96896 -3.38995,2.89486 -8.80336,6.66547 -1.28536,9.15699 l -19.18692,31.50615 c -0.32579,0.61541 -0.32964,1.23406 -0.0727,1.84931 l -0.17314,-0.0286 c -11.87421,2.06212 -7.48826,5.45203 -5.6132,8.45291 -54.52128,80.09656 -63.80361,50.47725 -77.54979,73.84161 l -35.76625,60.75809 -0.43103,-0.0737 c 0.127,0.0516 0.2548,0.10268 0.38187,0.15431 l -14.90396,25.31928 c -5.22598,20.06963 103.94828,41.84635 116.15231,22.67991 6.44828,-10.67064 11.84109,-19.74201 16.63061,-27.8981 0.0427,-0.003 0.0842,-0.005 0.12704,-0.008 l -0.11135,-0.019 c 13.47468,-22.94675 21.92862,-38.27684 33.77392,-58.71786 14.97103,-25.83495 -25.94581,4.44622 17.65683,-86.84745 11.52213,-1.31398 5.55945,-5.88963 4.16186,-8.954 l -0.0359,-0.006 c 1.30785,-0.57106 2.27576,-1.28672 2.81157,-2.16391 l 36.8989,-64.18202 c 14.12449,-7.42319 -0.88581,-8.11271 -8.4959,-10.51228 -4.52238,-1.02568 -8.30669,-1.74967 -11.56609,-2.25875 -0.0526,-2.19611 -0.76557,-4.31495 -1.0497,-6.48394 z"
       id="path906" />
  </g>
  <g
     inkscape:groupmode="layer"
     id="layer2"
     inkscape:label="bottle"
     style="display:inline">
    <path
       style="color:#000000;font-style:normal;font-variant:normal;font-weight:normal;font-stretch:normal;font-size:medium;line-height:normal;font-family:sans-serif;font-variant-ligatures:normal;font-variant-position:normal;font-variant-caps:normal;font-variant-numeric:normal;font-variant-alternates:normal;font-feature-settings:normal;text-indent:0;text-align:start;text-decoration:none;text-decoration-line:none;text-decoration-style:solid;text-decoration-color:#000000;letter-spacing:normal;word-spacing:normal;text-transform:none;writing-mode:lr-tb;direction:ltr;text-orientation:mixed;dominant-baseline:auto;baseline-shift:baseline;text-anchor:start;white-space:normal;shape-padding:0;clip-rule:nonzero;display:inline;overflow:visible;visibility:visible;opacity:1;isolation:auto;mix-blend-mode:normal;color-interpolation:sRGB;color-interpolation-filters:linearRGB;solid-color:#000000;solid-opacity:1;vector-effect:none;fill:#000000;fill-opacity:1;fill-rule:nonzero;stroke:none;stroke-width:1px;stroke-linecap:round;stroke-linejoin:round;stroke-miterlimit:4;stroke-dasharray:none;stroke-dashoffset:0;stroke-opacity:1;color-rendering:auto;image-rendering:auto;shape-rendering:auto;text-rendering:auto;enable-background:accumulate"
       d="m 389.4375,74.462891 a 0.87882801,0.87882801 0 0 0 -0.82031,1.152343 c 1.48309,4.760295 3.30366,9.174186 4.60351,13.925782 -4.00775,0.20146 -7.13052,0.812497 -9.61132,1.732422 -4.72544,1.752264 -7.13916,4.617041 -9.16993,7.529296 -8.01532,3.085176 -14.12797,6.553486 -16.90039,10.894536 -1.39353,2.18199 -1.91367,4.6074 -1.34375,7.20507 0.5508,2.51053 2.14657,5.17907 4.79297,8.03907 -6.713,11.81821 -6.15704,23.68401 -2.5664,35.44336 -1.04411,2.73811 -2.31079,5.55169 -2.86133,8.28711 -0.54164,2.69112 -0.31804,5.35536 1.53515,7.64257 -0.83314,3.98243 -2.01888,8.66231 -1.91015,12.79688 0.0552,2.09918 0.44645,4.06773 1.43164,5.71289 0.92661,1.54734 2.4405,2.74379 4.53711,3.49414 l -0.73633,80.57031 a 0.50005,0.50005 0 0 0 0,0.0137 c 0.0318,1.46216 0.3312,2.82457 0.85156,4.08985 -5.22669,4.76981 -6.37509,8.86977 -5.64453,12.5 0.72803,3.61765 3.19069,6.70723 4.95508,9.74023 -3.77914,103.79999 -12.24623,139.4142 -19.72852,156.46875 -3.743,8.53151 -7.25805,12.45428 -9.88672,18.07227 -2.62866,5.61799 -4.29872,12.85105 -4.3164,27.83203 l -0.20313,155.5 -0.17578,0.39062 c 0.0577,0.0259 0.11608,0.0503 0.17383,0.0762 l -0.084,64.52734 0.006,0.0312 c 1.63683,12.37579 10.51218,22.08618 22.81641,28.89062 12.30423,6.80445 28.06445,10.74179 43.65625,11.60547 15.5918,0.86369 31.01666,-1.34418 42.6582,-6.90429 11.64154,-5.56012 19.52195,-14.55109 19.76953,-27.09961 v -0.004 -0.004 c 0.7654,-104.4321 -0.12828,-150.66741 -0.2871,-221.47461 -0.0371,-16.53127 -1.50045,-23.57915 -3.86914,-28.41992 -2.36872,-4.84076 -5.52939,-7.32765 -8.98243,-14.90429 -6.90136,-15.14298 -15.07256,-50.8184 -19.93164,-165.40039 2.55289,-1.89217 4.06818,-3.85469 4.72852,-5.85352 0.68265,-2.06639 0.49564,-4.13585 -0.125,-6.12109 -1.21919,-3.89981 -4.07593,-7.56307 -5.63477,-10.72657 0.9161,-1.8452 1.43903,-3.87916 1.46094,-6.10742 a 0.50005,0.50005 0 0 0 0,-0.008 l -0.6582,-163.79688 c 2.3906,-5.68614 3.28455,-9.73909 3.06836,-12.697261 -0.21788,-2.981213 -1.6242,-4.861038 -3.59571,-5.96875 -1.9715,-1.107713 -4.46484,-1.511415 -7.00976,-1.820313 -2.54493,-0.308897 -5.14945,-0.517384 -7.30469,-1.134765 a 0.50005,0.50005 0 0 0 -0.0801,-0.01563 c -2.87918,-0.333385 -5.48361,-0.542971 -7.8457,-0.640625 -1.49632,-0.06186 -2.87556,-0.07063 -4.18555,-0.04687 -1.3348,-5.032358 -3.23149,-9.613054 -4.71875,-14.386719 a 0.87882801,0.87882801 0 0 0 -0.85742,-0.628906 z m 7.20117,16.001953 c 0.80701,0.0059 1.64679,0.02657 2.52149,0.0625 2.32584,0.09556 4.89787,0.299646 7.74609,0.628906 2.28736,0.64653 4.90647,0.851352 7.40234,1.154297 2.51591,0.305375 4.89776,0.718016 6.64063,1.697265 1.74287,0.979252 2.8896,2.456752 3.08789,5.169922 0.19385,2.652436 -0.6043,6.506496 -2.88281,11.984376 -1.20378,-0.23126 -2.36247,-0.39128 -3.46094,-0.45899 -3.67869,-0.2267 -6.77679,0.44091 -9.35742,1.85352 -3.44085,1.88349 -5.93091,5.06467 -7.70899,9.06836 -3.55615,8.00738 -4.33605,19.35228 -4.23437,30.88281 0.10167,11.53054 1.10196,23.24872 1.19922,31.90821 0.0486,4.32974 -0.13692,7.90034 -0.74024,10.24218 -0.30165,1.17092 -0.70995,2.02413 -1.18164,2.51368 -0.47168,0.48953 -0.96889,0.66857 -1.71289,0.54882 l -0.006,-0.002 h -0.004 c -2.17239,-0.30222 -3.29061,-1.54233 -3.93946,-3.72656 -0.64884,-2.18424 -0.70801,-5.28711 -0.51367,-8.96485 0.38528,-7.29128 1.72581,-16.84101 0.94141,-26.39453 1.73933,-1.50106 2.36231,-3.4335 2.17773,-5.49414 -0.19193,-2.14267 -1.17698,-4.44042 -2.48633,-6.82226 a 0.50005,0.50005 0 0 0 -0.44922,-0.26563 0.50005,0.50005 0 0 0 -0.42578,0.74805 c 1.27932,2.32721 2.19519,4.5313 2.36524,6.42969 0.16469,1.83851 -0.31759,3.36677 -1.86328,4.67578 -0.75905,-0.0521 -1.3161,-0.37958 -1.80274,-1.01368 -0.52446,-0.68336 -0.93046,-1.72648 -1.21679,-3.01757 -0.57268,-2.58219 -0.67601,-6.12903 -0.69727,-9.7461 -0.0213,-3.61707 0.0338,-7.30679 -0.26367,-10.25586 -0.14874,-1.47453 -0.38127,-2.76454 -0.78125,-3.79101 -0.39998,-1.02647 -0.99385,-1.83103 -1.88477,-2.14453 a 0.50005,0.50005 0 1 0 -0.33203,0.94336 c 0.51366,0.18074 0.94162,0.68282 1.28516,1.56445 0.34354,0.88163 0.57486,2.10088 0.71875,3.52734 0.28777,2.85294 0.23647,6.53128 0.25781,10.16211 0.0213,3.63084 0.11214,7.21302 0.7207,9.95703 0.30428,1.37201 0.73434,2.54033 1.40039,3.40821 0.56309,0.7337 1.3621,1.15988 2.27735,1.30468 0.7565,9.37659 -0.55139,18.82795 -0.93946,26.17188 -0.19635,3.71592 -0.16143,6.89202 0.55469,9.30273 0.71532,2.408 2.23191,4.07608 4.75,4.42969 1.00869,0.16172 1.9259,-0.15475 2.58789,-0.8418 0.66245,-0.68751 1.10601,-1.69303 1.43164,-2.95703 0.65127,-2.52799 0.82049,-6.14087 0.77149,-10.5039 -0.098,-8.72606 -1.09801,-20.42766 -1.19922,-31.90625 -0.10122,-11.47859 0.7135,-22.73235 4.14844,-30.4668 1.71746,-3.86722 4.07189,-6.84214 7.27539,-8.5957 3.1208,-1.70831 7.08445,-2.26743 12.15234,-1.29102 l 0.65625,163.45899 c -0.0601,5.86196 -3.72715,10.28564 -9.33984,13.37304 -5.61463,3.08846 -13.14975,4.76831 -20.69336,5.01563 -7.54361,0.24732 -15.096,-0.93887 -20.73828,-3.5 -5.64229,-2.56114 -9.32248,-6.4189 -9.43555,-11.61133 l 0.73633,-80.7832 a 0.50005,0.50005 0 0 0 0,-0.0723 0.50005,0.50005 0 0 0 0,-0.0117 l -0.35157,-27.5332 c 3.03729,-2.81365 4.34216,-6.11223 4.69922,-9.57813 0.35707,-3.4659 -0.1822,-7.10122 -0.7207,-10.70312 3.2709,-2.77886 4.36244,-7.61841 5.18359,-12.24414 0.42093,-2.37115 0.77431,-4.68802 1.28907,-6.63672 0.51475,-1.94871 1.19846,-3.50832 2.18164,-4.40234 a 0.50005,0.50005 0 0 0 -0.32227,-0.875 0.50005,0.50005 0 0 0 -0.35156,0.13476 c -1.2308,1.1192 -1.93893,2.85879 -2.47461,4.88672 -0.53568,2.02793 -0.89053,4.36371 -1.30859,6.71875 -0.83613,4.71008 -1.9558,9.44477 -5.03125,11.87305 l -0.22852,0.17968 0.043,0.28711 c 0.54964,3.67651 1.09044,7.31637 0.74414,10.67774 -0.3463,3.36136 -1.54848,6.43669 -4.53906,9.12109 l -0.16797,0.15039 0.34765,27.23633 c -1.74356,-0.68301 -2.8998,-1.71009 -3.66992,-2.99609 -0.86397,-1.44274 -1.23867,-3.2342 -1.29101,-5.22461 -0.10469,-3.9808 1.08798,-8.70734 1.92968,-12.76367 a 0.50005,0.50005 0 0 0 -0.11132,-0.42969 c -1.80276,-2.07458 -1.98903,-4.40934 -1.46289,-7.02344 0.52613,-2.6141 1.80018,-5.44433 2.86914,-8.26562 a 0.50005,0.50005 0 0 0 0.01,-0.32422 c -3.62657,-11.77111 -4.18979,-23.43147 2.58789,-35.14258 a 0.50005,0.50005 0 0 0 -0.0703,-0.59375 c -2.7377,-2.88922 -4.2498,-5.50437 -4.76562,-7.85547 -0.51583,-2.3511 -0.0655,-4.45259 1.21093,-6.45117 2.55279,-3.99717 8.53545,-7.48339 16.53516,-10.550783 a 0.50005,0.50005 0 0 0 0.23047,-0.181641 c 2.0168,-2.910829 4.2371,-5.597786 8.80859,-7.292968 2.40324,-0.891161 5.491,-1.491416 9.51953,-1.677735 0.20271,0.795588 0.39187,1.601937 0.5586,2.421875 -2.99506,0.456502 -5.76773,1.13099 -8.14063,2.203125 -3.14035,1.418894 -5.57353,3.583825 -6.80469,6.792967 -7.12387,2.26629 -11.54644,4.59012 -13.76757,6.85938 -1.12392,1.14826 -1.70922,2.31254 -1.71485,3.45312 -0.006,1.14058 0.58511,2.18247 1.57422,3.03516 0.24728,0.21317 0.52158,0.42011 0.81836,0.61523 a 0.50005,0.50005 0 0 0 0.36328,0.20899 c 2.08578,1.246 5.20138,2.09641 9.09375,2.49023 4.70322,0.47586 10.51594,0.26334 16.88086,-0.88281 a 0.50083746,0.50083746 0 0 0 0.16992,-0.0644 c 4.63473,-2.80527 7.19506,-5.75008 10.4668,-8.25196 3.27174,-2.50187 7.27309,-4.61661 14.95117,-5.875 a 0.50083746,0.50083746 0 0 0 0.30469,-0.17578 c 0.74942,-0.90173 1.25528,-1.79644 1.44531,-2.70508 0.19003,-0.908623 0.0373,-1.828281 -0.48047,-2.650388 -1.03553,-1.64421 -3.37415,-2.938126 -7.26172,-4.054687 a 0.5010181,0.5010181 0 0 0 -0.27734,0.962891 c 3.78691,1.087649 5.90506,2.376454 6.69141,3.625 0.39317,0.624272 0.49072,1.228012 0.34765,1.912104 -0.13519,0.64643 -0.55199,1.37719 -1.16797,2.14649 -5.53969,0.93251 -9.25613,2.34389 -12.1582,4.01953 a 0.50024913,0.50024913 0 0 0 -0.20508,-0.10547 c -2.98873,-0.71786 -5.87948,-1.24348 -8.66797,-1.56445 0.34263,-4.12188 0.0714,-7.804323 -0.53906,-11.228517 0.48847,-0.06015 0.96404,-0.132198 1.46289,-0.183594 a 0.50116828,0.50116828 0 0 0 -0.0684,-1 0.50083746,0.50083746 0 0 0 -0.0351,0.0039 c -0.52473,0.05406 -1.0282,0.127778 -1.54297,0.191406 -0.15246,-0.762368 -0.32174,-1.512623 -0.50391,-2.251953 0.45284,-0.0065 0.89375,-0.0191 1.36914,-0.01563 z m -2.41601,3.478515 c 0.59795,3.310032 0.85827,6.853691 0.52539,10.835941 -2.36846,-0.20031 -4.66253,-0.25111 -6.86524,-0.1211 -1.76425,0.10414 -3.47203,0.31949 -5.12304,0.65039 -6.4508,1.29291 -12.00486,4.38988 -16.41016,9.61524 -0.18015,-0.12582 -0.36202,-0.25208 -0.51367,-0.38281 -0.83927,-0.72352 -1.23052,-1.4714 -1.22656,-2.27149 0.004,-0.80009 0.42038,-1.72664 1.42968,-2.75781 2.01862,-2.06234 6.36365,-4.41986 13.5625,-6.6875 a 0.50083746,0.50083746 0 0 0 0.32032,-0.3086 c 1.09838,-3.065186 3.33293,-5.066409 6.38476,-6.445308 2.25812,-1.020277 4.9621,-1.677144 7.91602,-2.126953 z m -3.65235,11.642581 c 1.32264,0.003 2.68635,0.0831 4.07031,0.19922 -0.15478,1.45325 -0.37045,2.95113 -0.69335,4.52929 a 0.8790797,0.8790797 0 0 0 1.72265,0.35157 c 0.3359,-1.64169 0.55944,-3.20279 0.71875,-4.71875 2.51662,0.28946 5.12943,0.75785 7.82617,1.38085 -0.64633,0.41904 -1.26722,0.84717 -1.84765,1.29102 -3.34895,2.56092 -5.85082,5.4255 -10.30469,8.13867 -6.24095,1.11485 -11.93791,1.32136 -16.50391,0.85938 -3.57853,-0.36207 -6.4514,-1.15301 -8.3457,-2.16797 4.24649,-4.98647 9.53181,-7.91543 15.74219,-9.16016 2.40308,-0.48164 4.94573,-0.7097 7.61523,-0.70312 z m 30.03516,177.15039 c 1.65764,3.15383 4.20074,6.56097 5.27344,9.99219 0.58052,1.8569 0.7356,3.6948 0.1289,5.53125 -0.60669,1.83644 -1.98488,3.70322 -4.58398,5.57031 l -0.21289,0.15039 0.0117,0.25976 c 4.85944,114.80479 13.00398,150.56396 20.02734,165.97461 3.51168,7.70533 6.71693,10.27989 8.99219,14.92969 2.27526,4.6498 3.73453,11.52304 3.77148,27.99805 0.0397,17.71432 0.12453,33.89109 0.21875,49.82422 -22.8885,16.24988 -44.53299,21.65993 -65.46484,20.40429 -20.96021,-1.25733 -41.21844,-9.21186 -61.22852,-19.73437 l 0.0742,-56.03125 c 0.0176,-14.91005 1.66369,-21.95063 4.22461,-27.42383 2.56092,-5.4732 6.10815,-9.45892 9.89649,-18.09375 7.57666,-17.26965 16.03844,-52.99921 19.8164,-156.96289 l 0.004,-0.13867 -0.0684,-0.11914 c -1.82157,-3.16173 -4.24334,-6.22184 -4.91602,-9.56446 -0.65669,-3.26319 0.24728,-6.85722 5.12696,-11.39062 1.65074,3.18864 4.78388,5.69544 8.74218,7.49219 5.84114,2.65139 13.51616,3.83933 21.18555,3.58789 7.66939,-0.25145 15.3322,-1.94254 21.14258,-5.13867 3.36065,-1.84862 6.10437,-4.22793 7.83789,-7.11719 z m -4.70899,22.63476 a 0.50005,0.50005 0 0 0 -0.19531,0.0352 c -18.25667,6.63941 -34.24806,5.55498 -49.01367,0.002 a 0.50005,0.50005 0 0 0 -0.19531,-0.0352 0.50005,0.50005 0 0 0 -0.15625,0.9707 c 14.94887,5.622 31.2406,6.71759 49.70703,0.002 a 0.50005,0.50005 0 0 0 -0.14649,-0.97461 z m 38.3418,258.71485 c 0.18183,30.60643 0.38915,60.56268 0.36133,98.80078 -26.01737,15.44896 -48.53526,19.60771 -69.25391,17.82031 -20.5365,-1.77167 -39.31844,-9.39842 -57.93554,-17.71875 l 0.1289,-98.31055 c 19.92908,10.44152 40.16747,18.35709 61.17383,19.61719 20.96588,1.25767 42.68581,-4.14748 65.52539,-20.20898 z m 0.36328,99.86914 c -0.0174,20.64892 -0.1029,43.65561 -0.30078,70.6543 -0.24223,12.15318 -7.79097,20.78518 -19.2207,26.24414 -11.43162,5.45985 -26.72362,7.66725 -42.18946,6.81054 -15.46582,-0.8567 -31.10555,-4.77456 -43.24218,-11.48633 -12.12988,-6.70802 -20.73127,-16.17012 -22.32422,-28.15234 L 327.4082,664 c 18.51473,8.26445 37.28182,15.8558 57.85742,17.63086 20.77208,1.792 43.37829,-2.37424 69.33594,-17.67578 z"
       id="path906-9"
       inkscape:connector-curvature="0" />
    <path
       style="opacity:1;fill:#d4002d;fill-opacity:0.99078339;stroke:none;stroke-width:1.63579321;stroke-linecap:round;stroke-linejoin:round;stroke-miterlimit:4;stroke-dasharray:none;stroke-opacity:1;paint-order:normal"
       d="m 383.14363,680.13779 c -14.82317,-2.20636 -26.9772,-5.70491 -43.97844,-12.65924 l -11.40181,-4.66389 v -48.70637 -48.70636 l 9.54029,4.55391 c 35.59934,16.99277 66.60065,19.17921 95.29612,6.72097 4.53804,-1.97021 11.01907,-5.27685 14.40228,-7.3481 l 6.15128,-3.7659 0.59191,8.93733 c 0.32555,4.91553 0.59408,26.76216 0.59673,48.54807 l 0.005,39.61075 -7.21339,3.79191 c -17.11665,8.99783 -32.50436,13.2716 -49.563,13.76561 -6.39897,0.18531 -12.89103,0.1499 -14.42678,-0.0787 z"
       id="path2620"
       inkscape:connector-curvature="0" />
    <path
       style="opacity:1;fill:#c87137;fill-opacity:0.99078339;stroke:none;stroke-width:1.63579321;stroke-linecap:round;stroke-linejoin:round;stroke-miterlimit:4;stroke-dasharray:none;stroke-opacity:1;paint-order:normal"
       d="m 376.6283,581.48779 c -10.06002,-1.88431 -26.70792,-7.57154 -38.85925,-13.27503 l -10.00567,-4.69639 0.008,-30.06216 c 0.004,-16.53418 0.41327,-33.83173 0.90905,-38.43899 0.83816,-7.78901 1.38559,-9.32391 7.80111,-21.87287 3.79483,-7.42282 7.95025,-16.84677 9.23426,-20.94211 7.64061,-24.36963 12.26136,-62.84502 15.52001,-129.22972 l 0.86092,-17.53847 -2.83381,-5.40611 c -3.09535,-5.90506 -3.0741,-8.8338 0.0943,-12.99029 l 1.73911,-2.28149 3.77198,3.40776 c 5.49525,4.96462 12.17142,6.74272 25.25643,6.72664 12.64839,-0.0155 20.6901,-2.25463 26.76118,-7.45124 4.07363,-3.48688 4.31066,-3.41785 7.09525,2.0663 2.26014,4.45125 1.93073,8.94661 -0.90228,12.31346 l -2.41475,2.86977 1.03958,19.77258 c 4.76384,90.60695 11.12987,133.53299 22.48463,151.61371 5.33212,8.49055 7.35165,13.13617 8.3438,19.19351 0.48044,2.93322 0.87595,19.43873 0.87891,36.67891 l 0.006,31.34577 -5.52209,3.3545 c -9.1844,5.57911 -22.40789,11.42107 -30.77777,13.59712 -10.28429,2.67377 -29.67613,3.26999 -40.48808,1.24484 z m 34.23217,-273.03653 c 9.00422,-2.8633 6.97807,-3.83471 -2.76852,-1.32734 -11.05356,2.84359 -23.00329,2.84804 -34.02324,0.0127 -7.70736,-1.98307 -11.12811,-1.71351 -5.58456,0.44005 10.60268,4.11895 30.85911,4.53702 42.37632,0.87461 z"
       id="path2622"
       inkscape:connector-curvature="0" />
    <path
       style="opacity:1;fill:#c87137;fill-opacity:0.99078339;stroke:none;stroke-width:1.63579321;stroke-linecap:round;stroke-linejoin:round;stroke-miterlimit:4;stroke-dasharray:none;stroke-opacity:1;paint-order:normal"
       d="m 380.01222,765.82748 c -23.50778,-4.12014 -42.89141,-15.40529 -49.49249,-28.81453 -2.28926,-4.65033 -2.29117,-4.67897 -2.55681,-38.39387 -0.1462,-18.55704 -0.0805,-33.74007 0.14593,-33.74007 0.22647,0 3.06857,1.19128 6.31578,2.64729 42.76037,19.17325 75.5273,19.57433 111.8668,1.36931 l 8.23294,-4.12446 -0.32147,37.51704 -0.32148,37.51704 -2.58731,5.26861 c -4.50459,9.17281 -14.03317,15.71908 -28.45957,19.55211 -9.4928,2.52219 -31.72763,3.14607 -42.82232,1.20153 z"
       id="path2624"
       inkscape:connector-curvature="0" />
    <path
       style="opacity:1;fill:#ffe680;fill-opacity:0.99078339;stroke:none;stroke-width:1.63579321;stroke-linecap:round;stroke-linejoin:round;stroke-miterlimit:4;stroke-dasharray:none;stroke-opacity:1;paint-order:normal"
       d="m 377.3079,292.12 c -6.66702,-1.87305 -9.78628,-3.60379 -12.66862,-7.02926 l -2.43777,-2.89712 v -55.37579 -55.37578 l 2.39072,-4.07945 c 2.0217,-3.44977 2.35881,-5.06298 2.18404,-10.45151 -0.15218,-4.69211 0.2093,-7.00692 1.37108,-8.78003 0.86777,-1.32437 2.24147,-5.70088 3.05268,-9.72557 0.81121,-4.0247 2.06105,-8.46944 2.77743,-9.87722 1.13618,-2.23273 1.12449,-2.55959 -0.0915,-2.55959 -1.35507,0 -2.24686,2.5262 -5.09287,14.42679 -0.61212,2.55959 -1.7949,5.69979 -2.6284,6.97822 -1.06327,1.63087 -1.53347,4.54691 -1.57584,9.77299 -0.0501,6.1734 -0.41891,7.95119 -2.15461,10.38452 -1.92511,2.69891 -2.09421,3.95771 -2.09421,15.59024 0,6.95986 -0.35161,12.65428 -0.78136,12.65428 -1.25079,0 -2.94368,-4.47886 -2.91893,-7.72257 0.0125,-1.63964 0.44305,-4.80389 0.95675,-7.03167 0.66654,-2.89067 0.62186,-4.91367 -0.15607,-7.06498 -0.89729,-2.48141 -0.79375,-3.95651 0.58553,-8.34157 1.42166,-4.51983 1.51238,-6.03407 0.59869,-9.99241 -1.66881,-7.22968 -1.29662,-17.25359 0.85913,-23.13852 1.03139,-2.81555 2.09657,-5.78676 2.36708,-6.6027 0.2705,-0.81594 -0.58704,-3.07331 -1.90564,-5.01638 -1.3186,-1.94307 -2.39746,-4.71636 -2.39746,-6.16286 0,-3.83303 4.52703,-8.43407 11.83943,-12.03299 3.47072,-1.70818 7.08036,-4.083828 8.02142,-5.279226 2.21696,-2.816153 6.1106,-4.794095 11.37237,-5.777102 5.54548,-1.036006 5.08145,0.707428 -0.63166,2.373293 -2.6668,0.777604 -5.40139,2.521448 -7.48444,4.772819 -1.82806,1.975786 -5.00817,4.117126 -7.1777,4.833126 -2.14246,0.70708 -5.41463,2.59888 -7.27147,4.20399 -2.75821,2.38428 -3.26779,3.34987 -2.78436,5.27599 1.12206,4.47067 10.70869,6.99144 22.41648,5.89433 6.66608,-0.62466 7.15266,-0.84154 13.73786,-6.12334 4.94849,-3.96905 8.61975,-6.05388 13.34232,-7.57682 6.13131,-1.97724 6.53231,-2.27659 6.80347,-5.07885 0.25664,-2.652283 -0.12081,-3.186394 -3.45328,-4.88649 -3.98171,-2.031317 -5.67709,-2.376865 -5.67709,-1.157089 0,0.413401 1.69915,1.501303 3.7759,2.41756 5.24204,2.312783 4.82905,5.061749 -0.98362,6.547289 -2.30363,0.58874 -4.95809,1.50775 -5.89881,2.04225 -1.15528,0.65641 -3.19429,0.67841 -6.28263,0.0678 l -4.57225,-0.90404 v -4.809697 c 0,-2.645332 0.50261,-5.312305 1.11692,-5.926607 0.86871,-0.86871 0.76529,-1.116913 -0.46538,-1.116913 -0.87027,0 -1.5823,-0.472802 -1.5823,-1.050671 0,-1.081129 1.77891,-0.958045 16.91453,1.170327 9.36465,1.316858 11.43917,3.085308 10.72207,9.140161 -0.28161,2.37772 -0.98813,5.36808 -1.57004,6.64524 -0.89406,1.96226 -1.56106,2.26339 -4.30406,1.94316 -4.3273,-0.50519 -10.9344,2.12432 -13.75226,5.47315 -6.4089,7.61655 -8.65087,23.26486 -7.3463,51.27522 1.22192,26.2359 0.14584,33.25065 -4.40292,28.70189 -2.03544,-2.03544 -2.05437,-2.30036 -1.38713,-19.40636 0.37206,-9.53851 1.04938,-18.04818 1.50515,-18.91038 1.25368,-2.37162 0.99708,-6.11062 -0.63609,-9.26882 -1.91909,-3.71112 -2.74616,-2.76969 -1.33178,1.51592 0.61161,1.8532 0.83839,4.45968 0.50395,5.79218 -0.56424,2.24815 -0.71836,2.31244 -2.13869,0.8921 -1.20453,-1.20452 -1.6424,-4.1604 -2.05523,-13.87397 -0.54272,-12.76985 -0.99033,-14.67025 -3.45536,-14.67025 -1.24234,0 -1.27015,0.22295 -0.19011,1.52432 0.84955,1.02364 1.43879,5.45368 1.79394,13.48721 0.46513,10.52138 0.78512,12.30951 2.65556,14.83941 2.09673,2.83599 2.11726,3.11691 1.45698,19.94176 l -0.66971,17.06525 2.4053,2.40531 c 3.02643,3.02642 4.82293,3.04075 6.77988,0.0541 1.3246,-2.0216 1.49072,-4.66398 1.1849,-18.8479 -0.56566,-26.23604 -0.24271,-41.19969 1.01895,-47.21178 2.64763,-12.61657 7.55528,-18.26268 16.06864,-18.48651 l 4.89499,-0.1287 0.23764,83.39077 0.23763,83.39077 -2.1213,3.14781 c -4.61978,6.85528 -13.02112,10.16807 -27.20755,10.7284 -6.40031,0.25279 -10.8397,-0.0628 -14.21257,-1.0104 z"
       id="path2626"
       inkscape:connector-curvature="0" />
    <path
       style="opacity:1;fill:#ffe680;fill-opacity:0.99078339;stroke:none;stroke-width:0.4089483;stroke-linecap:round;stroke-linejoin:round;stroke-miterlimit:4;stroke-dasharray:none;stroke-opacity:1;paint-order:normal"
       d="m 365.52681,114.02903 c -1.27765,-1.3786 -1.05263,-2.68129 0.77718,-4.49939 2.01672,-2.00379 5.59573,-3.89695 10.7971,-5.71123 l 2.72839,-0.95169 0.71286,-1.42655 c 0.95484,-1.910817 3.17899,-3.977672 5.46204,-5.075778 1.66469,-0.800682 6.5558,-2.204421 7.68096,-2.204421 0.68864,0 0.76662,0.49277 0.96059,6.070409 l 0.15042,4.32523 -4.16189,0.004 c -6.41714,0.006 -10.65153,0.89429 -15.331,3.2159 -2.94014,1.45867 -5.15274,3.04485 -7.37668,5.28821 -0.85769,0.86517 -1.62184,1.57304 -1.69812,1.57304 -0.0763,0 -0.39211,-0.27345 -0.70185,-0.60767 z"
       id="path2628"
       inkscape:connector-curvature="0" />
    <path
       style="opacity:1;fill:#ffcc00;fill-opacity:0.99078339;stroke:none;stroke-width:0.4089483;stroke-linecap:round;stroke-linejoin:round;stroke-miterlimit:4;stroke-dasharray:none;stroke-opacity:1;paint-order:normal"
       d="m 374.63056,117.41025 c -3.00193,-0.41014 -7.12222,-1.59842 -7.12222,-2.05402 0,-0.0978 0.70679,-0.85814 1.57066,-1.68968 4.17832,-4.02196 8.92581,-6.38253 14.91529,-7.41627 3.26348,-0.56326 10.5061,-0.66512 10.5061,-0.14777 0,0.16942 -0.16588,1.27371 -0.36862,2.45397 -0.40489,2.3571 -0.2832,2.82256 0.73796,2.82256 0.73854,0 0.92566,-0.44376 1.27552,-3.02497 0.16479,-1.21581 0.31718,-2.23806 0.33864,-2.27167 0.0695,-0.1088 6.93071,1.10248 7.07149,1.2484 0.075,0.0777 -0.22641,0.41825 -0.6697,0.75678 -0.44328,0.33854 -1.73395,1.40085 -2.86816,2.3607 -7.03114,5.95025 -7.30167,6.11895 -10.63631,6.63241 -3.0957,0.47668 -12.18717,0.6798 -14.75065,0.32956 z"
       id="path2630"
       inkscape:connector-curvature="0" />
  </g>
  <g
     inkscape:groupmode="layer"
     id="layer3"
     inkscape:label="shadowbottle"
     style="display:inline;opacity:0.556">
    <path
       style="display:inline;fill:url(#linearGradient2646);fill-opacity:1;stroke:none;stroke-width:1px;stroke-linecap:round;stroke-linejoin:round;stroke-opacity:1"
       d="m 389.45508,75.353516 2.2539,14.796875 c -10.43666,0.863771 -14.02748,4.818497 -16.9707,9.066406 -16.07762,6.164783 -24.2752,13.941863 -13.16406,25.667973 -6.85613,11.84665 -6.28266,23.69437 -2.63281,35.54101 -2.1225,5.60192 -5.14932,11.38406 -1.31641,15.79492 -1.67615,8.0777 -4.84395,18.99584 4.0293,21.79883 l -0.73828,80.87109 c 0.034,1.5604 0.38799,3.00179 0.99804,4.33008 l -0.1875,0.004 c -10.54488,9.51516 -4.24796,15.652 -0.6582,21.88281 -7.55431,207.88311 -33.86888,142.716 -33.93945,202.49805 l -0.20313,155.46875 h -0.46875 c 0.15596,0.0699 0.31276,0.13725 0.46875,0.20703 l -0.084,64.78711 c 6.44569,48.73497 126.9665,55.95273 127.9414,6.54297 0.2006,-27.36972 0.28115,-50.60396 0.29688,-71.46875 0.0405,-0.0241 0.0806,-0.0442 0.12109,-0.0684 h -0.12109 c 0.0438,-58.7043 -0.46878,-97.70285 -0.58594,-149.9336 -0.14805,-66.0126 -23.07369,20.65253 -32.79102,-208.91992 10.62969,-7.63592 2.08811,-15.90242 -1.0664,-22.4707 l -0.041,0.002 c 0.96343,-1.84837 1.50714,-3.89686 1.5293,-6.15039 l -0.6582,-163.8789 c 9.66761,-22.873078 -5.5694,-18.507921 -14.48047,-21.060551 -5.06393,-0.586359 -9.22369,-0.764801 -12.74024,-0.652343 -1.32255,-5.085007 -3.2551,-9.726415 -4.79101,-14.65625 z"
       id="path906-9-7"
       inkscape:connector-curvature="0" />
  </g>
</svg>
