<?xml version="1.0" encoding="UTF-8" standalone="no"?>
<!-- Created with Inkscape (http://www.inkscape.org/) -->

<svg
   xmlns:dc="http://purl.org/dc/elements/1.1/"
   xmlns:cc="http://creativecommons.org/ns#"
   xmlns:rdf="http://www.w3.org/1999/02/22-rdf-syntax-ns#"
   xmlns:svg="http://www.w3.org/2000/svg"
   xmlns="http://www.w3.org/2000/svg"
   xmlns:xlink="http://www.w3.org/1999/xlink"
   xmlns:sodipodi="http://sodipodi.sourceforge.net/DTD/sodipodi-0.dtd"
   xmlns:inkscape="http://www.inkscape.org/namespaces/inkscape"
   width="297mm"
   height="210mm"
   viewBox="0 0 297 210"
   version="1.1"
   id="svg3667"
   inkscape:version="0.92.4 5da689c313, 2019-01-14"
   sodipodi:docname="cantux.svg">
  <defs
     id="defs3661">
    <linearGradient
       gradientTransform="matrix(0.0990718,0,0,0.0990718,91.111839,137.58301)"
       inkscape:collect="always"
       xlink:href="#linearGradient2644"
       id="linearGradient2646"
       x1="352.8569"
       y1="440.32959"
       x2="901.96259"
       y2="411.32812"
       gradientUnits="userSpaceOnUse" />
    <linearGradient
       inkscape:collect="always"
       id="linearGradient2644">
      <stop
         style="stop-color:#808080;stop-opacity:0.6082949"
         offset="0"
         id="stop2640" />
      <stop
         style="stop-color:#808080;stop-opacity:0;"
         offset="1"
         id="stop2642" />
    </linearGradient>
  </defs>
  <sodipodi:namedview
     id="base"
     pagecolor="#ffffff"
     bordercolor="#666666"
     borderopacity="1.0"
     inkscape:pageopacity="0.0"
     inkscape:pageshadow="2"
     inkscape:zoom="0.49497475"
     inkscape:cx="345.18922"
     inkscape:cy="151.54631"
     inkscape:document-units="mm"
     inkscape:current-layer="layer1"
     showgrid="false"
     inkscape:window-width="1916"
     inkscape:window-height="996"
     inkscape:window-x="0"
     inkscape:window-y="54"
     inkscape:window-maximized="0" />
  <metadata
     id="metadata3664">
    <rdf:RDF>
      <cc:Work
         rdf:about="">
        <dc:format>image/svg+xml</dc:format>
        <dc:type
           rdf:resource="http://purl.org/dc/dcmitype/StillImage" />
        <dc:title></dc:title>
      </cc:Work>
    </rdf:RDF>
  </metadata>
  <g
     inkscape:label="Layer 1"
     inkscape:groupmode="layer"
     id="layer1"
     transform="translate(0,-87)">
    <path
       inkscape:connector-curvature="0"
       style="display:inline;fill:#b3b3b3;fill-opacity:0.50230414;stroke:none;stroke-width:0.09572522px;stroke-linecap:round;stroke-linejoin:round;stroke-opacity:1"
       d="m 225.78345,214.6239 -0.27029,0.85826 c -1.69375,0.076 -2.43182,0.3159 -3.07943,0.57099 -2.81404,0.39934 -4.44548,0.87332 -3.17933,1.5306 -1.5913,0.70839 -2.00287,1.39861 -1.92632,2.08119 -0.57475,0.33225 -1.30072,0.67722 -0.87948,0.9253 -0.60898,0.47566 -1.57566,1.1208 -0.28598,1.26265 l -3.55019,4.72291 c -0.0609,0.0911 -0.0656,0.17418 -0.0248,0.25016 l -0.0301,6e-4 c -2.07794,0.58134 -1.3388,0.92414 -1.0334,1.27906 -10.02372,12.15405 -11.43465,8.41437 -13.98355,11.90443 l -6.63173,9.07624 -0.0744,0.002 c 0.0216,0.004 0.0435,0.007 0.0653,0.011 l -2.76348,3.78226 c -1.0455,2.82918 17.78116,2.95482 20.03335,0.068 1.19369,-1.59829 2.19301,-2.95475 3.08123,-4.17284 0.009,-0.002 0.014,-0.002 0.022,-0.004 l -0.0192,-2.4e-4 c 2.49884,-3.42699 4.07298,-5.70243 6.2715,-8.75117 2.77868,-3.85322 -4.53998,1.26223 3.66249,-12.11559 2.01163,-0.47184 1.00652,-0.93344 0.78457,-1.30915 l -0.007,3.5e-4 c 0.2312,-0.11025 0.40433,-0.23114 0.50345,-0.36268 l 6.85202,-9.56507 c 2.50569,-1.35898 -0.0986,-1.06676 -1.40482,-1.19392 -0.77903,-0.0218 -1.43183,-0.022 -1.99488,-0.007 0.006,-0.29359 -0.10366,-0.55982 -0.13811,-0.84385 z"
       id="path906" />
    <path
       style="color:#000000;font-style:normal;font-variant:normal;font-weight:normal;font-stretch:normal;font-size:medium;line-height:normal;font-family:sans-serif;font-variant-ligatures:normal;font-variant-position:normal;font-variant-caps:normal;font-variant-numeric:normal;font-variant-alternates:normal;font-feature-settings:normal;text-indent:0;text-align:start;text-decoration:none;text-decoration-line:none;text-decoration-style:solid;text-decoration-color:#000000;letter-spacing:normal;word-spacing:normal;text-transform:none;writing-mode:lr-tb;direction:ltr;text-orientation:mixed;dominant-baseline:auto;baseline-shift:baseline;text-anchor:start;white-space:normal;shape-padding:0;clip-rule:nonzero;display:inline;overflow:visible;visibility:visible;opacity:1;isolation:auto;mix-blend-mode:normal;color-interpolation:sRGB;color-interpolation-filters:linearRGB;solid-color:#000000;solid-opacity:1;vector-effect:none;fill:#000000;fill-opacity:1;fill-rule:nonzero;stroke:#040000;stroke-width:0.44624358;stroke-linecap:round;stroke-linejoin:round;stroke-miterlimit:4;stroke-dasharray:none;stroke-dashoffset:0;stroke-opacity:0.60784314;color-rendering:auto;image-rendering:auto;shape-rendering:auto;text-rendering:auto;enable-background:accumulate"
       d="m 200.26109,134.55264 a 0.15274846,0.15274846 0 0 0 -0.14263,0.20027 c 0.25778,0.82739 0.57422,1.59456 0.80016,2.42045 -0.6966,0.0351 -1.23935,0.14123 -1.67056,0.3011 -0.82134,0.30457 -1.24083,0.8025 -1.59382,1.30867 -1.39314,0.53624 -2.45556,1.13907 -2.93746,1.89357 -0.24219,0.37926 -0.33259,0.80082 -0.23355,1.25231 0.0956,0.43634 0.37312,0.90017 0.83308,1.39727 -1.16679,2.05411 -1.07015,4.11649 -0.44607,6.16038 -0.18148,0.47592 -0.40163,0.96494 -0.49734,1.44039 -0.094,0.46771 -0.0552,0.93081 0.26685,1.32832 -0.1449,0.69219 -0.35089,1.50561 -0.332,2.22424 0.009,0.36486 0.0776,0.70701 0.24883,0.99293 0.16105,0.26895 0.42416,0.47691 0.78859,0.60732 l -0.12808,14.00386 a 0.08691333,0.08691333 0 0 0 0,0.004 c 0.005,0.25414 0.0576,0.49095 0.14807,0.71086 -0.90843,0.82902 -1.10804,1.54166 -0.98104,2.17261 0.12649,0.62879 0.55455,1.16579 0.86123,1.69295 -0.65687,18.04139 -2.12852,24.23146 -3.429,27.19571 -0.65059,1.48288 -1.26152,2.16468 -1.71842,3.14113 -0.45688,0.97646 -0.74716,2.23365 -0.75022,4.83748 l -0.0353,27.02734 -0.0305,0.0678 c 0.009,0.005 0.0202,0.009 0.0303,0.0122 l -0.014,11.21546 8.9e-4,0.005 c 0.28451,2.15104 1.82711,3.83879 3.9657,5.02147 2.1386,1.18268 4.87787,1.86703 7.58787,2.01713 2.70999,0.14999 5.39099,-0.23364 7.41439,-1.20001 2.02341,-0.96641 3.39309,-2.52914 3.43612,-4.71017 v -6.7e-4 -6.5e-4 c 0.13316,-18.15125 -0.0222,-26.18739 -0.05,-38.49435 -0.007,-2.87328 -0.26079,-4.09826 -0.67249,-4.93965 -0.41171,-0.84135 -0.96106,-1.27361 -1.56122,-2.59048 -1.19954,-2.632 -2.61975,-8.83272 -3.46431,-28.74813 0.44371,-0.32888 0.70707,-0.67 0.82185,-1.01742 0.1186,-0.35914 0.0861,-0.71883 -0.0217,-1.06387 -0.21189,-0.67784 -0.70843,-1.31455 -0.97938,-1.8644 0.1593,-0.32071 0.25012,-0.67423 0.25393,-1.06151 a 0.08691333,0.08691333 0 0 0 0,-8.9e-4 l -0.11439,-28.46968 c 0.41549,-0.9883 0.57088,-1.69274 0.53329,-2.2069 -0.0378,-0.51815 -0.28226,-0.84488 -0.62494,-1.03741 -0.34267,-0.19255 -0.77604,-0.2627 -1.21837,-0.31641 -0.44233,-0.0536 -0.89503,-0.09 -1.26963,-0.19723 a 0.08691333,0.08691333 0 0 0 -0.014,-0.004 c -0.50041,-0.0578 -0.95308,-0.0944 -1.36363,-0.11139 -0.26008,-0.0108 -0.49981,-0.0122 -0.7275,-0.009 -0.232,-0.87468 -0.56166,-1.67085 -0.82016,-2.50056 a 0.15274846,0.15274846 0 0 0 -0.14895,-0.1093 z m 1.25164,2.78128 c 0.14017,8.9e-4 0.28623,0.005 0.43827,0.0108 0.40423,0.0175 0.85129,0.0521 1.34632,0.1093 0.39758,0.11228 0.85281,0.14808 1.2866,0.20063 0.43728,0.0531 0.85126,0.12491 1.15421,0.295 0.30293,0.17017 0.50223,0.42702 0.5367,0.89857 0.0336,0.46103 -0.10508,1.13091 -0.50105,2.08301 -0.20925,-0.0402 -0.41063,-0.0681 -0.60156,-0.0798 -0.63938,-0.0394 -1.17787,0.0767 -1.62639,0.32217 -0.59807,0.32737 -1.03085,0.88027 -1.3399,1.57616 -0.6181,1.39177 -0.75366,3.36361 -0.73599,5.36772 0.0175,2.0041 0.19154,4.04086 0.20846,5.54595 0.009,0.75254 -0.0238,1.37315 -0.1286,1.78019 -0.0523,0.2035 -0.12333,0.3518 -0.20537,0.43689 -0.082,0.085 -0.16843,0.11632 -0.29774,0.0953 l -8.9e-4,-3.5e-4 h -6.7e-4 c -0.37756,-0.0525 -0.57192,-0.26808 -0.68469,-0.64771 -0.11281,-0.37963 -0.12316,-0.91895 -0.0893,-1.55818 0.067,-1.26729 0.29997,-2.92712 0.16368,-4.5876 0.30233,-0.26092 0.4106,-0.59679 0.37853,-0.95494 -0.0334,-0.37242 -0.20458,-0.77179 -0.43216,-1.18578 a 0.08691333,0.08691333 0 0 0 -0.0781,-0.0461 0.08691333,0.08691333 0 0 0 -0.0739,0.13 c 0.22234,0.40449 0.38154,0.78758 0.41109,1.11754 0.0287,0.31955 -0.0552,0.58518 -0.32385,0.8127 -0.13193,-0.009 -0.22876,-0.066 -0.31335,-0.17619 -0.0912,-0.11878 -0.16176,-0.30009 -0.21148,-0.52449 -0.0995,-0.44881 -0.11754,-1.06528 -0.12123,-1.69396 -0.004,-0.62868 0.007,-1.27 -0.0458,-1.78256 -0.0258,-0.2563 -0.0664,-0.48052 -0.13579,-0.6589 -0.0695,-0.17842 -0.17281,-0.31827 -0.32761,-0.37275 a 0.08695125,0.08695125 0 1 0 -0.0577,0.16403 c 0.0893,0.0314 0.16368,0.11859 0.22336,0.27191 0.0597,0.15315 0.10002,0.36515 0.12491,0.61309 0.05,0.49588 0.0411,1.1352 0.045,1.76626 0.004,0.63108 0.0195,1.25371 0.12527,1.73065 0.0528,0.23846 0.12772,0.44151 0.24342,0.59236 0.0979,0.12754 0.23673,0.2016 0.39582,0.22677 0.13157,1.62975 -0.0958,3.27247 -0.16333,4.54891 -0.034,0.64585 -0.0281,1.1979 0.0965,1.61691 0.1244,0.41852 0.38793,0.70845 0.8256,0.76993 0.17526,0.0281 0.33475,-0.027 0.44981,-0.14633 0.11526,-0.11947 0.19222,-0.29426 0.24884,-0.51394 0.11333,-0.4394 0.14263,-1.06735 0.13403,-1.82567 -0.0175,-1.51668 -0.19084,-3.55052 -0.20844,-5.54561 -0.0175,-1.99507 0.12404,-3.9511 0.72105,-5.29543 0.29851,-0.67216 0.70774,-1.1892 1.26454,-1.494 0.54242,-0.29692 1.23134,-0.39409 2.11218,-0.22439 l 0.11403,28.41069 c -0.0108,1.01886 -0.64781,1.78774 -1.62335,2.32437 -0.97589,0.5368 -2.28554,0.82876 -3.5967,0.87174 -1.31115,0.043 -2.62383,-0.16315 -3.60451,-0.60831 -0.98067,-0.44516 -1.62033,-1.11568 -1.64,-2.01817 l 0.12808,-14.04086 a 0.08691333,0.08691333 0 0 0 0,-0.0122 0.08691333,0.08691333 0 0 0 0,-8.9e-4 l -0.061,-4.78554 c 0.52791,-0.48903 0.75471,-1.06236 0.81676,-1.66475 0.0619,-0.60241 -0.0318,-1.23427 -0.12526,-1.86029 0.5685,-0.48303 0.75822,-1.32417 0.90094,-2.12817 0.0731,-0.41212 0.13457,-0.81483 0.22406,-1.15353 0.0895,-0.33869 0.20829,-0.60977 0.37919,-0.76516 a 0.08691333,0.08691333 0 0 0 -0.056,-0.15211 0.08691333,0.08691333 0 0 0 -0.061,0.0236 c -0.21391,0.19454 -0.33698,0.49689 -0.43009,0.84936 -0.0931,0.35247 -0.15491,0.75846 -0.22746,1.16779 -0.14526,0.81866 -0.33994,1.64159 -0.87447,2.06365 l -0.0397,0.0311 0.009,0.05 c 0.0954,0.63902 0.18954,1.27166 0.12929,1.8559 -0.0602,0.58425 -0.26914,1.11875 -0.78892,1.58532 l -0.0292,0.0261 0.0605,4.73392 c -0.30306,-0.1186 -0.50402,-0.29723 -0.63786,-0.52075 -0.15017,-0.25076 -0.21529,-0.56213 -0.22438,-0.90809 -0.0183,-0.69188 0.18909,-1.51342 0.33539,-2.21843 a 0.08691333,0.08691333 0 0 0 -0.0194,-0.0748 c -0.31333,-0.36059 -0.34571,-0.76639 -0.25426,-1.22074 0.0914,-0.45435 0.31289,-0.94626 0.49868,-1.43664 a 0.08691333,0.08691333 0 0 0 8.9e-4,-0.0564 c -0.63032,-2.04592 -0.72821,-4.07261 0.44981,-6.10811 a 0.08691333,0.08691333 0 0 0 -0.0122,-0.10314 c -0.47583,-0.50228 -0.73863,-0.95682 -0.82828,-1.36547 -0.0896,-0.40864 -0.0108,-0.77389 0.21047,-1.12128 0.4437,-0.69473 1.48354,-1.30067 2.87397,-1.83381 a 0.08691333,0.08691333 0 0 0 0.0403,-0.0316 c 0.35054,-0.50595 0.73643,-0.97297 1.53099,-1.26761 0.41772,-0.15474 0.95439,-0.25921 1.6546,-0.29159 0.0353,0.13841 0.0681,0.27843 0.097,0.42094 -0.52055,0.0793 -1.00249,0.19658 -1.41491,0.38292 -0.54581,0.24662 -0.96872,0.6229 -1.18271,1.18068 -1.2382,0.39389 -2.00688,0.79779 -2.39294,1.19222 -0.19534,0.19958 -0.29708,0.40193 -0.29806,0.60017 -8.9e-4,0.19827 0.10173,0.37936 0.27363,0.52757 0.043,0.0372 0.0907,0.0729 0.14228,0.10679 a 0.08691333,0.08691333 0 0 0 0.0631,0.0363 c 0.36252,0.21656 0.90405,0.36435 1.58057,0.43282 0.81748,0.0825 1.82778,0.0458 2.93407,-0.15333 a 0.08705021,0.08705021 0 0 0 0.0294,-0.0107 c 0.80558,-0.48757 1.25059,-0.99942 1.81924,-1.43427 0.56867,-0.43484 1.26414,-0.8024 2.59866,-1.02112 a 0.08705021,0.08705021 0 0 0 0.053,-0.0305 c 0.13018,-0.15668 0.21819,-0.31226 0.25121,-0.47018 0.033,-0.15806 0.007,-0.31777 -0.0836,-0.46066 -0.17998,-0.28579 -0.58647,-0.51068 -1.26214,-0.70475 a 0.08709995,0.08709995 0 0 0 -0.0483,0.16737 c 0.65819,0.18904 1.02634,0.41304 1.16304,0.63005 0.0684,0.10842 0.0853,0.21344 0.0605,0.33234 -0.0236,0.11228 -0.0959,0.23937 -0.20301,0.37307 -0.96286,0.16211 -1.60879,0.40741 -2.1132,0.69862 a 0.08694794,0.08694794 0 0 0 -0.0358,-0.0183 c -0.51946,-0.12492 -1.02191,-0.21614 -1.50656,-0.27192 0.0597,-0.71643 0.0122,-1.35648 -0.0937,-1.95163 0.085,-0.0108 0.16754,-0.023 0.25428,-0.0319 a 0.08710994,0.08710994 0 0 0 -0.0108,-0.17386 0.08705021,0.08705021 0 0 0 -0.007,6.4e-4 c -0.0912,0.009 -0.17872,0.0222 -0.26819,0.0334 -0.0264,-0.13246 -0.0558,-0.26292 -0.0875,-0.39143 0.0786,-8.9e-4 0.15526,-0.004 0.23796,-0.004 z m -0.41993,0.6046 c 0.10389,0.57531 0.14913,1.19124 0.0914,1.8834 -0.41165,-0.035 -0.81036,-0.0437 -1.19321,-0.0211 -0.30667,0.0181 -0.6035,0.0554 -0.89044,0.11316 -1.12122,0.22472 -2.08655,0.763 -2.85225,1.67122 -0.0314,-0.022 -0.063,-0.0439 -0.0892,-0.0665 -0.14596,-0.12579 -0.2139,-0.25574 -0.21321,-0.39481 6.7e-4,-0.13913 0.0731,-0.30011 0.24851,-0.47931 0.35086,-0.35847 1.10605,-0.76823 2.35729,-1.16236 a 0.08705021,0.08705021 0 0 0 0.0556,-0.0536 c 0.1909,-0.53274 0.57929,-0.88057 1.10973,-1.12025 0.39248,-0.17734 0.86245,-0.2915 1.37589,-0.36966 z m -0.63482,2.0236 c 0.2299,5.2e-4 0.46693,0.014 0.70747,0.0345 -0.0269,0.25257 -0.0644,0.51293 -0.12053,0.78724 a 0.15279221,0.15279221 0 0 0 0.29941,0.0611 c 0.0584,-0.28535 0.0972,-0.55667 0.12491,-0.82015 0.43743,0.0503 0.89155,0.13175 1.36027,0.23997 -0.11228,0.0728 -0.22026,0.14721 -0.32114,0.22442 -0.58208,0.44511 -1.01692,0.94301 -1.79104,1.41456 -1.08475,0.19377 -2.07492,0.22967 -2.86854,0.14947 -0.62199,-0.063 -1.12132,-0.2004 -1.45056,-0.37681 0.73808,-0.86669 1.65671,-1.37577 2.73614,-1.5921 0.41768,-0.0839 0.85962,-0.12334 1.32359,-0.12211 z m 5.22039,30.79037 c 0.28812,0.54817 0.73015,1.14036 0.91658,1.73674 0.10088,0.32274 0.1279,0.64219 0.0225,0.96138 -0.10539,0.3192 -0.345,0.64366 -0.79673,0.96817 l -0.037,0.0262 9e-4,0.0451 c 0.84458,19.95415 2.26019,26.16941 3.48092,28.84794 0.61037,1.33926 1.16747,1.78674 1.56292,2.59492 0.39546,0.80816 0.64911,2.00278 0.65553,4.8663 0.007,3.07894 0.0216,5.8906 0.0381,8.65992 -3.97823,2.82438 -7.74025,3.76471 -11.37839,3.54646 -3.64308,-0.21853 -7.16416,-1.6011 -10.64208,-3.43002 l 0.0122,-9.73875 c 0.004,-2.59149 0.28918,-3.81521 0.73428,-4.76651 0.44512,-0.9513 1.06166,-1.64406 1.72011,-3.14487 1.31691,-3.00162 2.78762,-9.21175 3.44427,-27.2816 l 6.6e-4,-0.0242 -0.0107,-0.0206 c -0.31659,-0.54954 -0.73752,-1.08142 -0.85443,-1.66242 -0.11422,-0.56717 0.043,-1.19183 0.89111,-1.97977 0.2869,0.5542 0.83148,0.98992 1.51947,1.3022 1.01525,0.46083 2.34924,0.66732 3.68223,0.6236 1.33303,-0.0436 2.6649,-0.33762 3.67479,-0.89313 0.58411,-0.32131 1.061,-0.73487 1.36231,-1.23705 z m -0.81846,3.93414 a 0.08691333,0.08691333 0 0 0 -0.0341,0.007 c -3.17317,1.15399 -5.95262,0.9655 -8.51903,3.6e-4 a 0.08691333,0.08691333 0 0 0 -0.034,-0.007 0.08691333,0.08691333 0 0 0 -0.0272,0.16877 c 2.59824,0.97715 5.4299,1.16758 8.63953,3.5e-4 a 0.08691333,0.08691333 0 0 0 -0.0256,-0.16947 z m 6.66418,44.96705 c 0.0316,5.31967 0.0676,10.52634 0.0628,17.17249 -4.52205,2.68518 -8.43586,3.408 -12.03697,3.09734 -3.56941,-0.30795 -6.8339,-1.63354 -10.06974,-3.0797 l 0.0223,-17.08727 c 3.46385,1.81483 6.98147,3.19062 10.63258,3.40965 3.64407,0.21859 7.41919,-0.72087 11.38892,-3.51251 z m 0.0631,17.35817 c -0.004,3.58898 -0.0178,7.58776 -0.0523,12.28038 -0.0421,2.11234 -1.35414,3.61265 -3.34072,4.56148 -1.98693,0.94896 -4.64482,1.33263 -7.33293,1.18373 -2.68811,-0.14895 -5.40644,-0.82985 -7.51589,-1.99645 -2.10829,-1.16589 -3.60328,-2.8105 -3.88015,-4.89312 l 0.014,-11.12821 c 3.21806,1.43645 6.47995,2.75588 10.05616,3.06442 3.61038,0.31146 7.53955,-0.41269 12.05126,-3.07223 z"
       id="path906-9"
       inkscape:connector-curvature="0" />
    <path
       style="display:inline;opacity:1;fill:#c83737;fill-opacity:0.99078339;stroke:#040000;stroke-width:0.44624358;stroke-linecap:round;stroke-linejoin:round;stroke-miterlimit:4;stroke-dasharray:none;stroke-opacity:0.60784314;paint-order:normal"
       d="m 199.16717,239.82455 c -2.57641,-0.38347 -4.68889,-0.99155 -7.64388,-2.20029 l -1.98173,-0.81061 v -8.46564 -8.4656 l 1.65819,0.79151 c 6.18749,2.9535 11.57581,3.33352 16.56334,1.16816 0.78877,-0.34243 1.91524,-0.91716 2.50328,-1.27716 l 1.06912,-0.65456 0.10304,1.55339 c 0.0567,0.85437 0.10335,4.6515 0.10367,8.4381 l 6.7e-4,6.88474 -1.25377,0.65906 c -2.97502,1.56392 -5.64956,2.30672 -8.61451,2.39259 -1.1122,0.032 -2.24058,0.0259 -2.5075,-0.0141 z"
       id="path2620"
       inkscape:connector-curvature="0" />
    <path
       style="display:inline;opacity:1;fill:#a05a2c;fill-opacity:0.99078339;stroke:#040000;stroke-width:0.44624358;stroke-linecap:round;stroke-linejoin:round;stroke-miterlimit:4;stroke-dasharray:none;stroke-opacity:0.60784314;paint-order:normal"
       d="m 198.03474,222.67827 c -1.74852,-0.3275 -4.64207,-1.31601 -6.75412,-2.30732 l -1.73906,-0.81627 8.9e-4,-5.2251 c 6.4e-4,-2.8738 0.0719,-5.88025 0.15806,-6.68104 0.14561,-1.35381 0.24083,-1.62058 1.3559,-3.8017 0.65959,-1.29016 1.38182,-2.92813 1.605,-3.63994 1.32803,-4.23566 2.13115,-10.92305 2.69753,-22.46132 l 0.14965,-3.04835 -0.49252,-0.93965 c -0.53802,-1.02634 -0.53432,-1.53538 0.0158,-2.25781 l 0.30228,-0.39657 0.65561,0.59231 c 0.95512,0.86292 2.11549,1.17196 4.38978,1.16916 2.19841,-0.004 3.59614,-0.39187 4.65135,-1.29509 0.70804,-0.60606 0.74924,-0.59406 1.23322,0.35913 0.39285,0.77367 0.33558,1.555 -0.15685,2.1402 l -0.4197,0.49878 0.18071,3.43667 c 0.82799,15.74832 1.93447,23.20928 3.90802,26.35188 0.92678,1.47574 1.2778,2.28316 1.45024,3.33599 0.0835,0.50984 0.15227,3.37865 0.1528,6.37514 l 8.9e-4,5.44821 -0.95979,0.58302 c -1.59633,0.9697 -3.8947,1.98511 -5.34946,2.36331 -1.7875,0.46473 -5.15799,0.56837 -7.03721,0.21636 z m 5.94986,-47.45628 c 1.56502,-0.49768 1.21285,-0.6665 -0.48119,-0.23072 -1.92121,0.49426 -3.99818,0.49503 -5.91356,9e-4 -1.3396,-0.34468 -1.93416,-0.29784 -0.97065,0.0765 1.84287,0.71593 5.36359,0.78858 7.3654,0.15194 z"
       id="path2622"
       inkscape:connector-curvature="0" />
    <path
       style="display:inline;opacity:1;fill:#a05a2b;fill-opacity:0.99215686;stroke:#040000;stroke-width:0.44624358;stroke-linecap:round;stroke-linejoin:round;stroke-miterlimit:4;stroke-dasharray:none;stroke-opacity:0.60784314;paint-order:normal"
       d="m 198.6229,254.71824 c -4.08588,-0.71615 -7.45492,-2.6776 -8.60226,-5.00826 -0.3979,-0.80826 -0.39823,-0.81325 -0.44439,-6.67319 -0.0255,-3.22539 -0.014,-5.86434 0.0255,-5.86434 0.0393,0 0.53336,0.20705 1.09776,0.46012 7.43215,3.33249 13.12734,3.40219 19.44348,0.23799 l 1.43096,-0.71685 -0.0558,6.52081 -0.0558,6.52079 -0.44972,0.91575 c -0.78294,1.59431 -2.43908,2.73212 -4.94653,3.39833 -1.64994,0.43839 -5.51455,0.54681 -7.44291,0.20885 z"
       id="path2624"
       inkscape:connector-curvature="0" />
    <path
       style="display:inline;opacity:1;fill:#ffeeaa;fill-opacity:0.99078339;stroke:#040000;stroke-width:0.44624358;stroke-linecap:round;stroke-linejoin:round;stroke-miterlimit:4;stroke-dasharray:none;stroke-opacity:0.60784314;paint-order:normal"
       d="m 198.15286,172.38346 c -1.15879,-0.32554 -1.70094,-0.62636 -2.20192,-1.22174 l -0.4237,-0.50355 v -9.62482 -9.62483 l 0.41552,-0.70905 c 0.35138,-0.5996 0.40999,-0.87997 0.37961,-1.81657 -0.0264,-0.81554 0.0363,-1.21785 0.2383,-1.52604 0.15088,-0.2302 0.38957,-0.99085 0.53059,-1.6904 0.14106,-0.69954 0.35823,-1.47208 0.48274,-1.71675 0.19747,-0.38808 0.19546,-0.44488 -0.0158,-0.44488 -0.23554,0 -0.39053,0.43907 -0.8852,2.5075 -0.10647,0.4449 -0.31197,0.99068 -0.45683,1.21288 -0.18481,0.28345 -0.26654,0.7903 -0.27389,1.69863 -0.009,1.073 -0.0728,1.382 -0.37451,1.80493 -0.3346,0.4691 -0.364,0.68788 -0.364,2.70974 0,1.20968 -0.061,2.19942 -0.1358,2.19942 -0.21737,0 -0.51162,-0.77846 -0.50732,-1.34223 8.9e-4,-0.285 0.077,-0.83498 0.16631,-1.22219 0.11579,-0.50242 0.10807,-0.85405 -0.0272,-1.22796 -0.15596,-0.43128 -0.13807,-0.68766 0.10196,-1.44985 0.24709,-0.78557 0.26288,-1.04875 0.104,-1.73676 -0.29004,-1.25659 -0.22536,-2.99885 0.1493,-4.02169 0.17924,-0.48939 0.36438,-1.00578 0.41139,-1.14759 0.0472,-0.14177 -0.10196,-0.53418 -0.3312,-0.87192 -0.2292,-0.33773 -0.41671,-0.81976 -0.41671,-1.07117 0,-0.66621 0.78684,-1.4659 2.0578,-2.09145 0.60324,-0.29687 1.23064,-0.7098 1.3942,-0.91756 0.38532,-0.48948 1.06208,-0.83326 1.97663,-1.00411 0.96385,-0.18006 0.8832,0.12298 -0.10983,0.4125 -0.46352,0.1351 -0.9388,0.43825 -1.30087,0.82954 -0.31774,0.34341 -0.87045,0.71562 -1.24754,0.84005 -0.37238,0.12298 -0.94112,0.45172 -1.26385,0.7307 -0.47941,0.4144 -0.56798,0.58223 -0.48397,0.91699 0.19505,0.77707 1.8613,1.21519 3.8962,1.0245 1.15864,-0.10858 1.2432,-0.1463 2.38778,-1.06428 0.8601,-0.68985 1.49818,-1.0522 2.31902,-1.31693 1.06568,-0.34366 1.13536,-0.39568 1.1825,-0.88274 0.0445,-0.46098 -0.0209,-0.55383 -0.60021,-0.84931 -0.69206,-0.35305 -0.98673,-0.41315 -0.98673,-0.20113 0,0.0719 0.29531,0.26093 0.65629,0.4202 0.9111,0.40197 0.83932,0.87977 -0.17105,1.13799 -0.40039,0.10228 -0.86176,0.26205 -1.02527,0.35495 -0.20081,0.11403 -0.55521,0.11789 -1.09198,0.0108 l -0.79472,-0.1572 v -0.83595 c 0,-0.4598 0.0873,-0.92335 0.19415,-1.03012 0.15105,-0.15105 0.13315,-0.19414 -0.0809,-0.19414 -0.15124,0 -0.27503,-0.082 -0.27503,-0.18261 0,-0.18789 0.30919,-0.16649 2.93991,0.20342 1.62766,0.22889 1.98823,0.53626 1.8636,1.58866 -0.0489,0.41325 -0.17175,0.93301 -0.27288,1.15499 -0.15545,0.34104 -0.27134,0.3934 -0.7481,0.33773 -0.75213,-0.0878 -1.90051,0.36925 -2.39028,0.9513 -1.11393,1.32383 -1.50358,4.04365 -1.27683,8.91211 0.21236,4.56004 0.0255,5.77927 -0.76528,4.98865 -0.35379,-0.35378 -0.35707,-0.39982 -0.2411,-3.37301 0.0648,-1.65788 0.18238,-3.13693 0.26161,-3.28679 0.21789,-0.41222 0.17333,-1.0621 -0.11053,-1.61103 -0.33356,-0.64501 -0.47731,-0.48137 -0.23149,0.26349 0.10626,0.32211 0.14579,0.77514 0.0875,1.00674 -0.0981,0.39075 -0.12491,0.40193 -0.37173,0.15491 -0.20935,-0.20938 -0.28546,-0.72312 -0.35719,-2.41141 -0.0944,-2.21953 -0.17211,-2.54984 -0.6006,-2.54984 -0.21592,0 -0.22077,0.0387 -0.033,0.26494 0.14772,0.17792 0.25007,0.94789 0.3118,2.34422 0.0809,1.82871 0.1365,2.13949 0.46155,2.57921 0.36444,0.49292 0.36799,0.54175 0.25324,3.46607 l -0.11648,2.9661 0.41806,0.41805 c 0.52602,0.52604 0.83827,0.52853 1.17841,0.009 0.23021,-0.35138 0.25909,-0.81065 0.20593,-3.27595 -0.0984,-4.56006 -0.0421,-7.16089 0.17712,-8.20584 0.46017,-2.19288 1.31317,-3.17422 2.79287,-3.21312 l 0.85081,-0.0222 0.0412,14.49407 0.0412,14.4941 -0.36868,0.54711 c -0.80296,1.19152 -2.26319,1.76731 -4.72894,1.86469 -1.11244,0.0439 -1.88404,-0.0107 -2.47028,-0.17561 z"
       id="path2626"
       inkscape:connector-curvature="0" />
    <path
       style="display:inline;opacity:1;fill:#ffe680;fill-opacity:0.99078339;stroke:#040000;stroke-width:0.44624358;stroke-linecap:round;stroke-linejoin:round;stroke-miterlimit:4;stroke-dasharray:none;stroke-opacity:0.60784314;paint-order:normal"
       d="m 196.10518,141.42961 c -0.22205,-0.23962 -0.18294,-0.46606 0.13508,-0.78205 0.35055,-0.34828 0.9726,-0.67731 1.87665,-0.99265 l 0.4742,-0.16544 0.12387,-0.24794 c 0.16596,-0.33213 0.55254,-0.69137 0.94934,-0.88222 0.28935,-0.13913 1.13946,-0.38315 1.33503,-0.38315 0.11982,0 0.13333,0.0856 0.16702,1.0551 l 0.0261,0.75175 -0.72338,6.5e-4 c -1.11534,9e-4 -1.85132,0.15544 -2.66465,0.55897 -0.51104,0.25353 -0.89559,0.52923 -1.28215,0.91913 -0.14913,0.15035 -0.2819,0.27341 -0.29514,0.27341 -0.0122,0 -0.0683,-0.0476 -0.12193,-0.10562 z"
       id="path2628"
       inkscape:connector-curvature="0" />
    <path
       style="display:inline;opacity:1;fill:#ffcc00;fill-opacity:0.99078339;stroke:#040000;stroke-width:0.44624358;stroke-linecap:round;stroke-linejoin:round;stroke-miterlimit:4;stroke-dasharray:none;stroke-opacity:0.60784314;paint-order:normal"
       d="m 197.6875,142.01728 c -0.52174,-0.0712 -1.23788,-0.2778 -1.23788,-0.35699 0,-0.0175 0.1228,-0.14913 0.27297,-0.2937 0.72624,-0.69903 1.55141,-1.10935 2.59242,-1.28901 0.56722,-0.0979 1.82606,-0.11561 1.82606,-0.0256 0,0.0293 -0.0289,0.22139 -0.064,0.42653 -0.0703,0.40971 -0.0492,0.49059 0.12824,0.49059 0.12825,0 0.16088,-0.077 0.22172,-0.52577 0.0286,-0.21133 0.0551,-0.38899 0.0588,-0.39484 0.0122,-0.0189 1.20462,0.19162 1.2291,0.21699 0.0122,0.014 -0.0393,0.0726 -0.11649,0.13158 -0.077,0.0588 -0.3014,0.24348 -0.49851,0.41029 -1.22208,1.03422 -1.2691,1.06354 -1.8487,1.15279 -0.53806,0.0828 -2.11824,0.11824 -2.56381,0.0572 z"
       id="path2630"
       inkscape:connector-curvature="0" />
    <path
       style="display:inline;fill:#cccccc;fill-opacity:0.67281105;stroke:none;stroke-width:0.47329098;stroke-linecap:round;stroke-linejoin:round;stroke-miterlimit:4;stroke-dasharray:none;stroke-opacity:1"
       d="m 105.5786,224.85981 c -0.86467,-0.005 -1.72555,0.12192 -2.5829,0.39848 -0.1392,0.0503 -1.33987,0.37259 -2.88091,0.1553 -2.26261,-0.31897 -2.104498,0.49703 -2.104498,0.49703 -2.348058,-0.16711 -3.399104,-0.0192 -3.190415,0.43491 -3.02144,-0.0712 -2.263062,0.34131 -3.268252,0.52808 -1.733558,-0.25634 -2.94341,0.0843 -3.953181,0.65234 -2.469372,0.23814 -2.84351,1.00426 -1.370629,2.23627 -0.410284,0.56036 0.225494,1.09632 1.577036,1.61532 -0.469521,0.54627 0.517291,1.02654 1.864657,1.49073 1.591801,1.13889 3.269,2.13356 5.660223,1.92595 l 0.3549,-0.0654 12.977949,13.90728 c -0.91691,0.90174 -1.3017,2.28146 2.00233,2.52954 12.24304,0.79782 20.21133,0.96265 31.15034,0.0621 3.83436,-0.41034 1.33857,-1.69063 -0.74204,-2.63541 l -1.90045,-2.34349 c 5.83016,-0.39127 14.7974,1.26157 8.43308,-7.07523 -4.95332,-7.464 -12.3227,-7.31289 -19.77261,-6.90886 l -1.68524,-2.07795 c -0.26465,-0.32642 -0.82502,-0.5829 -1.96431,-0.70277 0.63136,-0.91174 -0.8937,-1.44945 -3.84196,-1.74057 -0.83009,-0.45931 -1.76416,-0.8487 -3.38152,-0.77661 -1.21217,-0.4785 -2.42029,-0.82148 -3.61646,-0.6834 -1.59321,-0.93392 -2.97352,-0.68855 -4.41375,-0.7766 -1.12223,-0.41281 -2.23968,-0.63986 -3.35139,-0.64698 z"
       id="path3252-9"
       inkscape:connector-curvature="0" />
    <path
       style="color:#000000;font-style:normal;font-variant:normal;font-weight:normal;font-stretch:normal;font-size:medium;line-height:normal;font-family:sans-serif;font-variant-ligatures:normal;font-variant-position:normal;font-variant-caps:normal;font-variant-numeric:normal;font-variant-alternates:normal;font-feature-settings:normal;text-indent:0;text-align:start;text-decoration:none;text-decoration-line:none;text-decoration-style:solid;text-decoration-color:#000000;letter-spacing:normal;word-spacing:normal;text-transform:none;writing-mode:lr-tb;direction:ltr;text-orientation:mixed;dominant-baseline:auto;baseline-shift:baseline;text-anchor:start;white-space:normal;shape-padding:0;clip-rule:nonzero;display:inline;overflow:visible;visibility:visible;opacity:1;isolation:auto;mix-blend-mode:normal;color-interpolation:sRGB;color-interpolation-filters:linearRGB;solid-color:#000000;solid-opacity:1;vector-effect:none;fill:#000000;fill-opacity:1;fill-rule:nonzero;stroke:none;stroke-width:0.75683033;stroke-linecap:round;stroke-linejoin:round;stroke-miterlimit:4;stroke-dasharray:none;stroke-dashoffset:0;stroke-opacity:1;color-rendering:auto;image-rendering:auto;shape-rendering:auto;text-rendering:auto;enable-background:accumulate"
       d="m 127.54922,184.38643 c -0.95687,-0.0165 -2.00343,0.34512 -3.1445,1.07835 a 0.37845301,0.37845301 0 0 0 -0.0129,0.008 c -0.0105,0.008 -0.44067,0.26062 -0.95282,0.39957 -0.51215,0.13895 -1.13414,0.1914 -1.7033,-0.0426 -1.1078,-0.45562 -1.97237,-0.0785 -2.43501,0.42262 -0.26353,0.28542 -0.40826,0.56882 -0.49946,0.7889 -0.96928,-0.15976 -1.78045,-0.18665 -2.40342,0.008 -0.57922,0.18148 -0.95404,0.6149 -1.14833,1.14578 -1.31658,-0.0446 -2.06859,0.15481 -2.52893,0.48665 -0.47124,0.33969 -0.63545,0.63746 -1.06211,0.83587 -0.7781,-0.26369 -1.57379,-0.22616 -2.32058,0.0879 -0.80625,0.3391 -1.5731,0.93624 -2.33,1.6589 -1.33904,0.33645 -2.35167,1.01273 -2.93361,2.03201 -0.58694,1.02804 -0.74067,2.35683 -0.5635,3.92402 -0.84332,1.43383 -0.69737,2.89954 0.1221,4.22198 -0.39983,0.69533 -0.53088,1.39949 -0.38677,2.04738 0.15337,0.6895 0.54367,1.30811 1.0032,1.89882 0.29455,1.43727 0.63684,2.80242 1.27556,3.80107 0.32541,0.5088 0.73725,0.9274 1.2636,1.17397 0.51827,0.24275 1.13545,0.30517 1.82796,0.16819 l 0.75304,34.90282 c -0.84631,1.16196 -1.65946,2.58052 -1.89796,3.89497 -0.12313,0.67856 -0.0933,1.34588 0.22368,1.90653 0.317,0.56061 0.91578,0.96433 1.76137,1.13809 a 0.37845301,0.37845301 0 0 0 0.0102,0.003 c 11.56262,2.04287 19.4647,2.46673 31.23411,0.15712 a 0.37845301,0.37845301 0 0 0 0.0188,-0.005 c 1.09829,-0.27465 1.8749,-0.70555 2.38122,-1.26958 0.50632,-0.56405 0.7195,-1.25123 0.7334,-1.94579 0.0271,-1.35436 -0.63486,-2.76403 -1.25336,-3.96412 l 0.14688,-5.58549 c 2.89176,-0.37835 6.22866,0.32572 9.05102,-1.39936 1.48111,-0.90529 2.77227,-2.48524 3.73787,-5.15944 0.96519,-2.67302 1.6213,-6.45023 1.86296,-11.83178 2e-4,-0.002 8.4e-4,-0.003 8.4e-4,-0.007 0.40475,-4.83999 0.23028,-8.45176 -0.39956,-11.14619 -0.63063,-2.6977 -1.7295,-4.48852 -3.16244,-5.61365 -1.43294,-1.12516 -3.1537,-1.57155 -5.01088,-1.67088 -1.63627,-0.0876 -3.37859,0.0971 -5.12274,0.32274 l 0.12804,-4.87001 c 0.0115,-0.47044 -0.0769,-0.93248 -0.34321,-1.32081 -0.19389,-0.28256 -0.47751,-0.51158 -0.83927,-0.68132 0.55479,-1.07145 0.62262,-2.03758 0.17418,-2.81324 -0.47721,-0.82533 -1.46073,-1.35086 -2.74664,-1.73233 -0.21033,-0.55007 -0.46554,-1.08815 -0.91016,-1.4907 -0.44007,-0.39846 -1.08191,-0.59259 -1.86979,-0.5618 -0.3804,-0.56579 -0.79257,-1.07705 -1.30543,-1.41985 -0.48198,-0.32217 -1.07429,-0.43532 -1.70672,-0.3475 -0.42629,-1.04502 -1.06447,-1.61238 -1.75967,-1.78954 -0.72818,-0.18557 -1.42938,-0.1026 -2.01579,-0.1793 -0.69418,-0.89671 -1.535,-1.50469 -2.5366,-1.63841 -0.13304,-0.0178 -0.26799,-0.0276 -0.4047,-0.0299 z m -0.0137,0.75731 c 0.10896,0.002 0.21501,0.0102 0.31845,0.023 0.82753,0.11053 1.5299,0.59165 2.16437,1.47279 a 0.37845301,0.37845301 0 0 0 0.24588,0.15283 c 0.76065,0.12556 1.48885,0.0307 2.05506,0.17503 0.56623,0.14424 1.0179,0.44128 1.37802,1.55303 a 0.37845301,0.37845301 0 0 0 0.45763,0.24846 c 0.56208,-0.15052 0.97826,-0.0489 1.39765,0.23137 0.41938,0.28032 0.82125,0.76499 1.20385,1.35583 a 0.37845301,0.37845301 0 0 0 0.35944,0.16989 c 0.76219,-0.0836 1.19045,0.0856 1.52401,0.38762 0.33355,0.30202 0.57186,0.78421 0.7778,1.3507 a 0.37845301,0.37845301 0 0 0 0.25528,0.23564 c 1.30087,0.35951 2.13786,0.86769 2.47685,1.454 0.30935,0.53508 0.29176,1.20511 -0.22712,2.15495 -1.07353,-0.4309 -2.27469,-0.61202 -3.55261,-0.64119 -1.40649,-0.032 -2.90256,0.1135 -4.41152,0.292 a 0.37845301,0.37845301 0 0 0 -0.31761,0.26723 c -0.31952,1.0708 -1.04951,1.83338 -1.79295,2.22753 -0.74345,0.39419 -1.44722,0.37632 -1.75197,0.11103 a 0.37845301,0.37845301 0 0 0 -0.60534,0.16043 c -0.21755,0.62484 -0.71917,1.07155 -1.27385,1.29434 -0.55468,0.2228 -1.13813,0.19811 -1.47705,-0.018 a 0.37845301,0.37845301 0 0 0 -0.3714,-0.0197 c -0.79831,0.39645 -1.46946,0.81231 -2.03201,1.01003 -0.56256,0.19769 -0.95838,0.21558 -1.45315,-0.13747 a 0.37845301,0.37845301 0 0 0 -0.52935,0.0906 c -0.58176,0.82668 -1.09706,1.25088 -1.50779,1.40532 -0.41073,0.15449 -0.73587,0.0921 -1.12102,-0.15794 a 0.37845301,0.37845301 0 0 0 -0.27577,-0.0547 c -0.72756,0.1368 -1.39944,0.24963 -1.92273,0.0965 -0.5233,-0.15317 -0.98007,-0.53467 -1.35411,-1.64185 a 0.37845301,0.37845301 0 0 0 -0.34835,-0.25697 c -1.37618,-0.0379 -2.06064,-0.60936 -2.46402,-1.66574 a 0.37845301,0.37845301 0 0 0 -0.36286,-0.24333 l -4.26723,0.11268 a 0.37845301,0.37845301 0 0 0 -0.36798,0.3859 l 0.2382,11.05229 a 0.37845301,0.37845301 0 0 0 -0.10502,0.0102 c -0.58103,0.11978 -1.01892,0.0634 -1.38569,-0.10838 -0.36676,-0.1718 -0.6755,-0.47136 -0.94685,-0.89562 -0.5427,-0.84854 -0.89663,-2.17963 -1.19017,-3.62348 a 0.37845301,0.37845301 0 0 0 -0.0742,-0.1596 c -0.45337,-0.57235 -0.7935,-1.13453 -0.91355,-1.67427 -0.12007,-0.53974 -0.0519,-1.06214 0.37395,-1.68878 a 0.37845301,0.37845301 0 0 0 8.4e-4,-0.42435 c -0.84034,-1.24435 -0.98517,-2.39299 -0.15197,-3.71569 a 0.37845301,0.37845301 0 0 0 0.0555,-0.24844 c -0.18934,-1.52404 -0.0235,-2.71445 0.46872,-3.57652 0.49219,-0.86207 1.31008,-1.43652 2.57418,-1.7238 a 0.37845301,0.37845301 0 0 0 0.17842,-0.0965 c 0.73606,-0.70846 1.46202,-1.2597 2.14727,-1.54791 0.68525,-0.28821 1.30876,-0.33008 1.96457,-0.0453 a 0.37845301,0.37845301 0 0 0 0.29455,0.003 c 0.6887,-0.28122 0.93399,-0.72189 1.27214,-0.96564 0.33816,-0.24374 0.8566,-0.44518 2.29242,-0.35689 a 0.37845301,0.37845301 0 0 0 0.39701,-0.31588 c 0.0759,-0.46343 0.27983,-0.6971 0.77182,-0.85123 0.49201,-0.15414 1.28787,-0.15762 2.35561,0.0495 a 0.37845301,0.37845301 0 0 0 0.43714,-0.27322 c 0,0 0.12765,-0.44411 0.4397,-0.78208 0.31205,-0.33795 0.71672,-0.59626 1.59146,-0.23648 0.78113,0.32126 1.57614,0.23972 2.18911,0.0733 0.60137,-0.16308 0.99847,-0.37964 1.17652,-0.50204 1.05929,-0.68066 1.95912,-0.97012 2.72188,-0.95795 z m -6.33254,4.21174 c -0.92159,0.0235 -1.68001,0.23374 -2.26596,0.64547 -0.66963,0.47053 -1.08067,1.1969 -1.24909,2.07725 a 0.37860245,0.37860245 0 1 0 0.74366,0.14258 c 0.14139,-0.73914 0.44517,-1.25228 0.94001,-1.59998 0.49485,-0.34772 1.21348,-0.5377 2.21302,-0.50716 a 0.37845301,0.37845301 0 1 0 0.0231,-0.75646 c -0.13829,-0.005 -0.27303,-0.005 -0.40468,-0.002 z m 11.94534,2.18654 a 0.37845301,0.37845301 0 0 0 -0.31675,0.56777 c 0.25813,0.45987 0.30053,0.78313 0.26552,0.88623 -0.0175,0.0515 -0.0356,0.0809 -0.12636,0.12804 -0.0908,0.0471 -0.2576,0.093 -0.50373,0.10673 a 0.37845301,0.37845301 0 1 0 0.0419,0.7556 c 0.31532,-0.0175 0.58276,-0.0725 0.81109,-0.19123 0.22835,-0.11862 0.41299,-0.31876 0.4935,-0.55583 0.16102,-0.47414 -0.0203,-0.96287 -0.32188,-1.50009 a 0.37845301,0.37845301 0 0 0 -0.34322,-0.19724 z m -19.76347,0.28346 a 0.37845301,0.37845301 0 0 0 -0.10078,0.0197 c -1.16946,0.37475 -1.63335,1.4502 -1.45486,2.34964 0.0892,0.44971 0.32653,0.86827 0.70011,1.15345 0.37357,0.2852 0.8869,0.42081 1.44546,0.31676 a 0.37845301,0.37845301 0 1 0 -0.13916,-0.74365 c -0.37082,0.0691 -0.63679,-0.0132 -0.84696,-0.17417 -0.21017,-0.16044 -0.36098,-0.41443 -0.4175,-0.69925 -0.11304,-0.56964 0.0994,-1.21143 0.94428,-1.48218 a 0.37845301,0.37845301 0 0 0 -0.0931,-0.74023 0.37845301,0.37845301 0 0 0 -0.0376,0 z m 16.13744,0.55753 a 0.37845301,0.37845301 0 0 0 -0.0376,8.4e-4 0.37845301,0.37845301 0 0 0 -0.33895,0.47811 c 0.14364,0.55419 0.1963,1.00682 0.17246,1.34045 -0.0238,0.33363 -0.11484,0.53417 -0.24418,0.66254 -0.12933,0.12837 -0.32326,0.21402 -0.65144,0.22882 -0.32817,0.0149 -0.77639,-0.052 -1.32765,-0.21857 a 0.37845301,0.37845301 0 1 0 -0.21856,0.72401 c 0.60375,0.1824 1.12436,0.27073 1.58036,0.25015 0.456,-0.0204 0.86228,-0.16091 1.15091,-0.44738 0.28864,-0.28651 0.43274,-0.68979 0.46532,-1.14578 0.0326,-0.45597 -0.0378,-0.97926 -0.19467,-1.58462 a 0.37845301,0.37845301 0 0 0 -0.35603,-0.28859 z m 7.90009,0.56179 a 0.37845301,0.37845301 0 0 0 -0.37311,0.38336 c 0,0.28201 -0.0329,0.49311 -0.0769,0.61899 -0.044,0.1259 -0.0821,0.15332 -0.10671,0.16563 -0.0246,0.0115 -0.0799,0.0282 -0.21772,-0.0115 -0.13775,-0.0393 -0.33879,-0.13712 -0.57971,-0.30052 a 0.37845301,0.37845301 0 1 0 -0.42434,0.62583 c 0.28304,0.19206 0.5405,0.32921 0.79573,0.40213 0.25522,0.0728 0.52763,0.0795 0.76499,-0.0393 0.23737,-0.11863 0.39547,-0.34415 0.48239,-0.59253 0.0869,-0.24839 0.11954,-0.53362 0.11954,-0.86916 a 0.37845301,0.37845301 0 0 0 -0.38419,-0.38335 z m -12.29881,0.95453 a 0.37845301,0.37845301 0 0 0 -0.3603,0.46104 c 0.10485,0.499 0.10186,0.83993 0.0529,1.03908 -0.0489,0.19913 -0.11276,0.26134 -0.22624,0.32016 -0.22699,0.11763 -0.79235,0.0879 -1.41729,-0.0132 a 0.37845301,0.37845301 0 1 0 -0.12124,0.74707 c 0.63855,0.10375 1.30748,0.23878 1.88687,-0.0614 0.28969,-0.15018 0.52232,-0.44275 0.61302,-0.81195 0.0907,-0.36919 0.0708,-0.81013 -0.0478,-1.37459 a 0.37845301,0.37845301 0 0 0 -0.37993,-0.30566 z m -17.05441,0.67535 a 0.37845301,0.37845301 0 0 0 -0.20405,0.0614 c -0.39332,0.24708 -0.63488,0.60168 -0.72486,0.9665 -0.0899,0.36481 -0.0411,0.72826 0.0725,1.04248 0.11367,0.31421 0.29027,0.58481 0.50971,0.78377 0.21944,0.19894 0.52773,0.36578 0.8683,0.23992 a 0.37845301,0.37845301 0 1 0 -0.2629,-0.70952 c 0.054,-0.0199 0.0105,0.007 -0.0973,-0.0914 -0.10784,-0.0978 -0.23369,-0.27937 -0.30652,-0.48067 -0.0728,-0.20132 -0.0945,-0.41709 -0.0487,-0.60279 0.0458,-0.1857 0.14651,-0.35333 0.39273,-0.50799 a 0.37845301,0.37845301 0 0 0 -0.19893,-0.70181 z m 30.27787,1.65976 c 1.31149,0.0303 2.50789,0.21706 3.51248,0.66424 a 0.37845301,0.37845301 0 0 0 0.18014,0.0701 c 0.41644,0.134 0.65928,0.31641 0.80599,0.53022 0.15414,0.22473 0.22047,0.50777 0.21088,0.87171 l -0.35346,13.48387 c -0.005,0.0115 -0.0115,0.0231 -0.0149,0.0351 l 0.0133,0.005 -0.87938,33.52225 a 0.37845301,0.37845301 0 0 0 0.0419,0.18443 c 0.61941,1.19562 1.23635,2.58521 1.21407,3.69861 -0.0115,0.55668 -0.16324,1.03557 -0.54045,1.4557 -0.3761,0.41896 -1.00027,0.78842 -1.99445,1.03822 -11.6793,2.2905 -19.42173,1.87383 -30.93442,-0.15961 -0.69689,-0.14341 -1.05583,-0.4184 -1.25422,-0.76925 -0.19847,-0.35103 -0.24183,-0.82799 -0.13831,-1.39851 0.20703,-1.14105 1.00618,-2.57846 1.83905,-3.70202 a 0.37845301,0.37845301 0 0 0 0.0742,-0.23309 l -1.00231,-46.44519 3.6619,-0.0965 c 0.49736,1.05688 1.42959,1.75701 2.78846,1.86638 0.42375,1.0706 1.02793,1.69827 1.7366,1.90566 0.73443,0.21492 1.48055,0.0683 2.17973,-0.0641 0.49302,0.265 1.0548,0.37429 1.61878,0.16225 0.56697,-0.21321 1.11243,-0.71759 1.67513,-1.46168 0.59726,0.28346 1.2215,0.31165 1.79978,0.10839 0.65229,-0.22926 1.29686,-0.63059 2.00554,-0.99127 0.58027,0.25674 1.26464,0.26431 1.90566,0.007 0.60853,-0.24442 1.12628,-0.74171 1.47279,-1.37972 0.64056,0.29746 1.46652,0.18587 2.23095,-0.21942 0.84616,-0.44863 1.60736,-1.29844 2.02602,-2.4239 1.43108,-0.16578 2.8334,-0.29446 4.11868,-0.26469 z m -16.81449,0.47214 a 0.37845301,0.37845301 0 0 0 -0.32444,0.56351 c 0.0361,0.0662 0.0389,0.0338 -0.0384,0.1178 -0.0772,0.084 -0.26923,0.19829 -0.50203,0.2621 -0.46559,0.12772 -1.02078,0.0504 -1.24396,-0.23307 a 0.37850172,0.37850172 0 1 0 -0.5951,0.46787 c 0.50169,0.6371 1.37088,0.67856 2.0397,0.4952 0.33442,-0.0917 0.63673,-0.2397 0.85806,-0.47982 0.22132,-0.24015 0.32716,-0.65792 0.14601,-0.99126 a 0.37845301,0.37845301 0 0 0 -0.33982,-0.20234 z m -15.08216,4.15538 a 0.37845301,0.37845301 0 0 0 -0.3031,0.1793 c -0.33042,0.52115 -0.4849,1.07529 -0.37395,1.6128 0.11095,0.53753 0.47293,1.01309 1.03052,1.42158 a 0.37845301,0.37845301 0 1 0 0.44744,-0.61046 c -0.46009,-0.33707 -0.67364,-0.65782 -0.73682,-0.96394 -0.0632,-0.3061 0.0105,-0.64293 0.27151,-1.05442 a 0.37845301,0.37845301 0 0 0 -0.33552,-0.58486 z m 34.03026,1.18762 c -12.6942,3.04043 -20.77059,2.11915 -28.56175,0.11351 l -0.18869,0.7334 c 7.86011,2.02334 16.12714,2.95458 28.92633,-0.11103 z m 7.59019,1.63501 c 2.0224,0.0186 3.84513,0.39322 5.27982,1.51974 1.27529,1.00136 2.29007,2.60974 2.89349,5.19104 0.6034,2.5813 0.78327,6.12569 0.38079,10.92507 v 0.008 l -8.4e-4,0.008 c -0.23935,5.33948 -0.89413,9.05153 -1.8194,11.61407 -0.9253,2.56252 -2.10425,3.96571 -3.42029,4.77009 -2.47479,1.51266 -5.60359,0.89222 -8.63693,1.27643 l 0.11615,-4.42006 c 2.38365,0.223 4.7779,0.11963 6.62796,-1.49156 2.00345,-1.74468 3.25898,-5.14165 3.30416,-11.45442 0.21812,-3.92505 -0.16257,-6.76861 -0.90756,-8.7795 -0.74594,-2.01356 -1.87364,-3.20158 -3.11804,-3.72421 -0.6222,-0.26133 -1.26087,-0.35784 -1.88261,-0.32018 -1.31908,0.0799 -2.55812,0.76272 -3.39296,1.74003 l 0.17075,-6.51867 c 1.5209,-0.19636 3.01208,-0.35599 4.40557,-0.34322 z m -34.96085,2.16949 a 0.27032359,0.27032359 0 0 0 -0.26126,0.27917 l 0.22454,12.79998 a 0.27032359,0.27032359 0 1 0 0.54045,-0.0102 l -0.22453,-12.79992 a 0.27032359,0.27032359 0 0 0 -0.27917,-0.2698 z m 34.19931,3.71396 c 0.39192,0.0149 0.78565,0.0955 1.168,0.25614 1.01955,0.4282 2.00734,1.41534 2.70137,3.28879 0.69404,1.87347 1.0776,4.62545 0.86149,8.48922 l -8.4e-4,0.0102 v 0.008 c -0.044,6.21688 -1.2923,9.36835 -3.0446,10.89432 -1.62882,1.41842 -3.79022,1.52491 -6.11143,1.30372 l 0.57204,-21.79547 c 0.59976,-1.39564 2.20855,-2.51553 3.854,-2.45464 z m 6.02861,14.20958 a 0.27032359,0.27032359 0 0 0 -0.257,0.25615 c -0.26938,3.97317 -0.94012,6.9416 -1.98761,8.85122 -1.04749,1.90962 -2.41571,2.76423 -4.23651,2.64758 a 0.27034551,0.27034551 0 1 0 -0.0342,0.5396 c 2.01436,0.12904 3.631,-0.89765 4.74452,-2.92764 1.11351,-2.03 1.78027,-5.05916 2.0525,-9.07405 a 0.27032359,0.27032359 0 0 0 -0.28175,-0.29286 z m -38.96944,0.8649 c -0.085,-0.002 -0.16855,0.003 -0.25101,0.0178 -0.32987,0.0562 -0.62047,0.23778 -0.86148,0.49691 -0.48201,0.51825 -0.8076,1.34401 -1.05271,2.37354 -0.49025,2.05904 -0.62612,4.95197 -0.52679,7.76776 0.0994,2.81577 0.43371,5.54245 0.91782,7.27084 0.24205,0.86421 0.47976,1.48313 0.90075,1.78612 0.21049,0.15151 0.52518,0.17195 0.75475,0.0265 0.22955,-0.14556 0.40026,-0.39242 0.57203,-0.74623 a 0.27032359,0.27032359 0 1 0 -0.4858,-0.23564 c -0.14945,0.30781 -0.29564,0.47436 -0.37567,0.52509 -0.08,0.0508 -0.0683,0.0498 -0.1494,-0.008 -0.16217,-0.11663 -0.46513,-0.66956 -0.69585,-1.49327 -0.46143,-1.64744 -0.79994,-4.35881 -0.89817,-7.14363 -0.0983,-2.78484 0.0434,-5.65537 0.51226,-7.62432 0.2344,-0.98449 0.55882,-1.73962 0.9221,-2.13021 0.18164,-0.1953 0.36286,-0.29915 0.55666,-0.33211 0.19382,-0.0329 0.41661,0.002 0.69328,0.14935 a 0.27032359,0.27032359 0 1 0 0.25357,-0.47726 c -0.26581,-0.14127 -0.53126,-0.21727 -0.78633,-0.22285 z m 16.19038,0.36457 c -0.0851,-0.002 -0.16855,0.003 -0.25103,0.0181 -0.32986,0.0562 -0.62046,0.23777 -0.86146,0.4969 -0.48202,0.51823 -0.8076,1.344 -1.05273,2.37352 -0.49024,2.05904 -0.62612,4.95197 -0.52678,7.76776 0.0994,2.81579 0.43372,5.54247 0.91782,7.27086 0.24205,0.86419 0.47977,1.48313 0.90075,1.78612 0.21049,0.15151 0.52518,0.17198 0.75475,0.0264 0.22956,-0.14555 0.40026,-0.39242 0.57204,-0.7462 a 0.27036351,0.27036351 0 1 0 -0.48667,-0.23566 c -0.14943,0.3078 -0.29478,0.47523 -0.37481,0.52592 -0.08,0.0508 -0.0683,0.0489 -0.1494,-0.0102 -0.16214,-0.11663 -0.46512,-0.66956 -0.69583,-1.49328 -0.46144,-1.64743 -0.79996,-4.35879 -0.89819,-7.14362 -0.0982,-2.78486 0.0435,-5.65537 0.51226,-7.62434 0.2344,-0.98446 0.55883,-1.73875 0.9221,-2.12934 0.18164,-0.19529 0.36287,-0.29999 0.55667,-0.33297 0.19381,-0.033 0.41661,0.002 0.69327,0.14936 a 0.27032359,0.27032359 0 1 0 0.25357,-0.47726 c -0.2658,-0.14127 -0.53124,-0.21726 -0.78632,-0.22284 z m -8.02902,0.41408 c -0.083,-4.3e-4 -0.16428,0.005 -0.24419,0.0172 -0.31961,0.0479 -0.61244,0.19421 -0.85549,0.42348 -0.48611,0.45852 -0.81555,1.19268 -1.06211,2.10116 -0.49313,1.81697 -0.62885,4.3586 -0.52935,6.83287 0.0995,2.47425 0.4342,4.86857 0.92124,6.394 0.24351,0.76274 0.49104,1.32034 0.91099,1.5855 0.20996,0.1325 0.49996,0.14952 0.72742,0.0229 0.22746,-0.12639 0.40492,-0.34909 0.57888,-0.6634 a 0.27032359,0.27032359 0 1 0 -0.47301,-0.26126 c -0.14725,0.26609 -0.28671,0.40686 -0.36883,0.45252 -0.0821,0.0456 -0.0943,0.0429 -0.17589,-0.008 -0.1632,-0.1031 -0.45548,-0.57374 -0.68473,-1.29179 -0.45851,-1.43608 -0.79755,-3.81243 -0.89563,-6.25144 -0.098,-2.439 0.0446,-4.95308 0.51057,-6.66977 0.23296,-0.85834 0.55267,-1.51053 0.91185,-1.84932 0.35917,-0.33877 0.71738,-0.42044 1.27469,-0.16041 a 0.27032359,0.27032359 0 1 0 0.22796,-0.49007 c -0.26429,-0.12325 -0.52555,-0.18203 -0.77437,-0.18358 z m 14.30008,0.88538 c -0.24777,0.002 -0.5079,0.0592 -0.77182,0.17843 a 0.27035696,0.27035696 0 1 0 0.22284,0.49266 c 0.55836,-0.25284 0.92224,-0.17286 1.28068,0.1553 0.35842,0.32823 0.6767,0.95921 0.90928,1.79124 0.46518,1.66406 0.60775,4.1039 0.50971,6.47086 -0.0979,2.36694 -0.437,4.67327 -0.89476,6.0653 -0.22889,0.69599 -0.51923,1.15038 -0.68304,1.2508 -0.082,0.0503 -0.0991,0.0524 -0.18185,0.008 -0.0827,-0.0445 -0.22039,-0.18055 -0.36714,-0.43799 a 0.27036311,0.27036311 0 1 0 -0.46958,0.2681 c 0.17447,0.30607 0.35293,0.52303 0.57972,0.64545 0.22682,0.12244 0.51179,0.1064 0.72146,-0.0222 0.41932,-0.25704 0.66966,-0.80115 0.91355,-1.54278 0.48778,-1.48329 0.82256,-3.80891 0.92208,-6.21216 0.0997,-2.40327 -0.0356,-4.87236 -0.52933,-6.63905 -0.24694,-0.88337 -0.57869,-1.59812 -1.06553,-2.04397 -0.24344,-0.22292 -0.5347,-0.36508 -0.85293,-0.41152 -0.0796,-0.0115 -0.16073,-0.0168 -0.24334,-0.0165 z m 3.58165,19.07872 c -10.4364,1.88609 -19.8531,1.65401 -28.64885,0.11186 l -0.0939,0.53276 c 8.85137,1.55189 18.33918,1.7849 28.83925,-0.11268 z"
       id="path3252"
       inkscape:connector-curvature="0" />
    <path
       style="display:inline;opacity:1;fill:#ffcc00;fill-opacity:0.99539173;stroke:none;stroke-width:0.5940063;stroke-linecap:round;stroke-linejoin:round;stroke-miterlimit:4;stroke-dasharray:none;stroke-opacity:1;paint-order:normal"
       d="m 119.72249,252.94684 c -3.71675,-0.36358 -10.43607,-1.52482 -10.86023,-1.87682 -0.71625,-0.59445 -0.55391,-1.93031 0.46123,-3.79545 l 0.92521,-1.69992 -0.41827,-20.82336 c -0.23006,-11.45284 -0.41477,-21.86572 -0.41048,-23.13968 l 0.008,-2.31633 h 1.66259 c 1.21963,0 1.82598,0.18054 2.27579,0.67755 0.33724,0.37266 0.8995,0.76845 1.24944,0.87952 0.79711,0.25298 2.79637,2.21949 2.24946,2.21259 -0.2214,-0.003 -1.39417,-0.2388 -2.60617,-0.52448 -1.48613,-0.35029 -2.31666,-0.40637 -2.5508,-0.17222 -0.52205,0.52204 -0.2494,0.64746 3.07037,1.41224 4.47818,1.03164 13.44881,1.27724 18.65354,0.51068 5.53665,-0.81544 7.22314,-1.245 7.22314,-1.83972 0,-0.54397 0.10078,-0.55298 -5.14737,0.46148 -3.49264,0.67511 -13.07494,1.01294 -15.95684,0.56256 l -2.05895,-0.32177 1.90845,-0.0418 c 1.39307,-0.0306 2.10739,-0.2272 2.64513,-0.72817 0.40517,-0.37747 1.13933,-0.68631 1.63147,-0.68631 0.49215,0 1.2321,-0.18359 1.64435,-0.408 0.41225,-0.22438 1.34083,-0.44057 2.06351,-0.4804 0.7827,-0.0431 1.62413,-0.36379 2.08107,-0.79306 0.42191,-0.39636 1.20571,-0.72065 1.7418,-0.72065 0.69075,0 1.35509,-0.39988 2.28044,-1.37263 l 1.30576,-1.37263 h 2.94763 c 2.96391,0 4.72406,0.50533 5.03566,1.44571 0.0804,0.24292 -0.14159,10.9423 -0.49329,23.77639 l -0.63965,23.33475 0.74476,2.14651 c 0.6807,1.96189 0.6995,2.21565 0.21833,2.95 -0.69478,1.06036 -1.78186,1.4498 -5.89857,2.11315 -3.3503,0.53985 -13.90685,0.93156 -16.98632,0.63031 z m 17.92582,-6.39516 c 1.46042,-0.25529 2.76012,-0.56899 2.88825,-0.69713 0.52997,-0.52996 -0.31305,-0.63155 -2.35062,-0.28325 -7.58809,1.29705 -19.31743,1.23074 -25.75556,-0.14557 -0.69225,-0.14803 -0.94369,-0.0676 -0.94369,0.30157 0,0.38288 0.84187,0.60175 3.51738,0.91446 1.93456,0.2261 3.749,0.46748 4.03211,0.53642 1.2284,0.29905 16.20055,-0.20486 18.61213,-0.62643 z m -6.65935,-2.42163 c 0.0944,-0.49526 -0.0278,-0.58646 -0.56006,-0.41756 -1.13581,0.3605 -1.61272,-2.42375 -1.61272,-9.41508 0,-6.92305 0.3709,-8.43741 2.11657,-8.64164 0.94741,-0.11085 0.95335,-0.12425 0.23642,-0.53269 -1.12824,-0.64278 -2.34286,0.49681 -2.91784,2.73763 -0.93251,3.63412 -0.42413,13.53251 0.8372,16.30083 0.43638,0.95773 1.71582,0.93653 1.90043,-0.0316 z m -16.12843,-0.34315 c 0.0944,-0.49526 -0.0278,-0.58647 -0.56007,-0.41757 -1.14456,0.36329 -1.6127,-2.41959 -1.6127,-9.58667 0,-5.26925 0.0895,-6.34071 0.60933,-7.2921 0.36929,-0.67591 0.87624,-1.11526 1.28684,-1.11526 0.74885,0 0.92433,-0.54608 0.24856,-0.77345 -1.5195,-0.51125 -2.46051,0.9141 -3.03759,4.60102 -0.64625,4.12893 0.004,12.66196 1.12866,14.80956 0.41458,0.79172 1.77314,0.63355 1.93697,-0.22553 z m 23.1591,-0.72618 c 0.9558,-0.95582 1.43444,-3.99445 1.43444,-9.10647 0,-4.10271 -0.10607,-5.16971 -0.60407,-6.08088 -0.67253,-1.23032 -1.76848,-1.96236 -2.51116,-1.67738 -0.78309,0.30049 -0.56207,0.89509 0.33271,0.89509 0.63329,0 0.94262,0.30487 1.35495,1.33536 1.10983,2.77375 1.03177,9.38095 -0.15365,13.00714 -0.28781,0.88037 -0.46993,1.04772 -0.82211,0.75544 -0.62916,-0.52216 -1.0502,0.21224 -0.50104,0.87393 0.52258,0.62967 0.8385,0.62919 1.46993,-0.002 z m -14.98397,-0.71392 c 0.27926,-0.72773 -0.10555,-1.02605 -0.69379,-0.53785 -0.6947,0.57655 -1.18615,-1.0262 -1.64513,-5.36511 -0.60561,-5.7252 0.44296,-10.74107 2.13326,-10.20459 0.47466,0.15067 0.66722,0.0503 0.66722,-0.34784 0,-0.42463 -0.26898,-0.53368 -1.11525,-0.45207 -0.91236,0.088 -1.24013,0.35727 -1.80158,1.48017 -0.59972,1.19945 -0.68478,2.0437 -0.67414,6.69158 0.0118,5.11351 0.39215,7.77219 1.26444,8.83631 0.4897,0.59738 1.62053,0.53638 1.86497,-0.10057 z m -9.26808,-25.77382 c -0.12206,-1.44398 -0.22193,-4.4552 -0.22193,-6.69157 0,-2.48198 -0.1337,-4.06614 -0.34316,-4.06614 -0.21704,0 -0.34315,2.45933 -0.34315,6.6916 0,5.98431 0.0597,6.69157 0.56509,6.69157 0.49477,0 0.53748,-0.32665 0.34315,-2.62546 z"
       id="path3653"
       inkscape:connector-curvature="0" />
    <path
       style="display:inline;opacity:1;fill:#ffffff;fill-opacity:0.93548387;stroke:none;stroke-width:0.29700315;stroke-linecap:round;stroke-linejoin:round;stroke-miterlimit:4;stroke-dasharray:none;stroke-opacity:1;paint-order:normal"
       d="m 106.97253,209.44669 c -0.65283,-0.39803 -1.24061,-1.54469 -1.66847,-3.25486 -0.15345,-0.61341 -0.47165,-1.41233 -0.70708,-1.77541 -0.56424,-0.87016 -0.66842,-1.60953 -0.33816,-2.39995 0.25388,-0.60762 0.24803,-0.67995 -0.11047,-1.36447 -0.42647,-0.81433 -0.47309,-1.82904 -0.11988,-2.61017 0.12801,-0.2831 0.24519,-1.13242 0.2604,-1.88737 0.0157,-0.77793 0.13959,-1.63506 0.28599,-1.97836 0.36985,-0.8671 1.20433,-1.63319 2.11821,-1.94457 0.43463,-0.14804 1.05646,-0.50301 1.38184,-0.78868 1.15058,-1.01024 2.81363,-1.54561 3.49432,-1.12492 0.21826,0.13482 0.8223,-0.17895 1.42309,-0.7394 0.38512,-0.35926 0.6861,-0.45638 1.59324,-0.51415 1.01996,-0.0649 1.14037,-0.11367 1.36776,-0.55342 0.316,-0.61107 0.72723,-0.73964 2.24728,-0.70262 1.21153,0.0296 1.22392,0.0253 1.43907,-0.49415 0.32341,-0.78081 0.74047,-0.93654 1.81667,-0.67836 1.23721,0.29681 2.16353,0.13235 3.85032,-0.6833 2.05886,-0.99564 3.09876,-0.92607 4.23964,0.28361 0.52503,0.55669 0.70215,0.63145 1.72964,0.73004 1.43367,0.13763 1.776,0.32685 2.16949,1.19943 0.30051,0.66638 0.34818,0.69674 1.09438,0.69674 0.71446,0 0.84807,0.0722 1.58564,0.85789 0.5598,0.59626 0.93937,0.85789 1.24462,0.85789 0.75966,0 1.26551,0.35573 1.73655,1.22117 0.25079,0.46078 0.54767,0.83854 0.65975,0.83947 0.11202,8.4e-4 0.60853,0.19012 1.10328,0.42046 1.16657,0.54312 1.5767,1.28439 1.27247,2.29987 l -0.20223,0.67495 -0.8133,-0.2708 c -0.90256,-0.30049 -5.14264,-0.39853 -6.60846,-0.15281 -0.75486,0.12654 -0.84772,0.19766 -1.17942,0.90334 -0.65208,1.38723 -2.17467,2.26035 -3.15937,1.81168 -0.33159,-0.15101 -0.45642,-0.13416 -0.63029,0.0854 -0.11924,0.15051 -0.47054,0.54503 -0.78066,0.87651 -0.53922,0.57641 -0.60358,0.59863 -1.47423,0.50876 -0.79795,-0.0822 -1.05404,-0.0217 -2.0734,0.49137 -1.17231,0.59002 -1.87004,0.72979 -2.06537,0.41376 -0.2146,-0.34726 -0.67723,-0.15299 -1.3786,0.57907 l -0.71926,0.75065 -1.82519,-0.0378 c -2.03775,-0.0424 -2.27191,-0.15101 -2.87607,-1.33472 -0.25122,-0.49225 -0.43232,-0.64342 -0.77081,-0.64342 -0.75582,0 -1.5329,-0.49081 -1.94888,-1.23096 l -0.39557,-0.70379 -2.3265,0.12061 c -1.27957,0.0664 -2.39719,0.16439 -2.4836,0.21775 -0.0941,0.0582 -0.10643,2.3595 -0.0308,5.73671 l 0.12629,5.63962 -0.49234,-8.4e-4 c -0.27079,-3.4e-4 -0.74848,-0.15679 -1.06153,-0.34765 z m 0.4834,-5.64542 c 0,-0.16225 -0.199,-0.48184 -0.44221,-0.71032 -0.35304,-0.33167 -0.42115,-0.51933 -0.33779,-0.9307 0.2123,-1.0476 0.19095,-1.19995 -0.17546,-1.25234 -0.44635,-0.0638 -0.76034,0.56983 -0.76034,1.53441 0,0.56226 0.11184,0.80724 0.58425,1.27964 0.60654,0.60654 1.13155,0.64334 1.13155,0.0793 z m 14.16306,-5.75164 c 0.47816,-0.47819 0.54177,-0.98096 0.16378,-1.29466 -0.20534,-0.1704 -0.30941,-0.1704 -0.51474,0 -0.14156,0.11748 -0.25737,0.3117 -0.25737,0.4316 0,0.42515 -0.97445,0.57072 -1.52381,0.22764 -0.33872,-0.21153 -0.87829,-0.097 -0.87829,0.1866 0,0.0937 0.16899,0.32771 0.37551,0.52012 0.57309,0.53392 2.07021,0.49338 2.63492,-0.0714 z m -12.82126,-0.4854 c 0.21187,-0.25528 0.0714,-0.5303 -0.35011,-0.68574 -0.38267,-0.14109 -0.58699,-0.95223 -0.32955,-1.30823 0.3554,-0.49146 0.41583,-0.72279 0.2358,-0.90281 -0.30021,-0.30022 -0.85046,0.0115 -1.15526,0.65323 -0.27217,0.57355 -0.27233,0.65943 -0.003,1.36558 0.38407,1.00566 1.1482,1.4245 1.60178,0.87797 z m 16.48995,-1.43292 c 0.56908,-0.72345 0.46016,-2.29317 -0.15912,-2.29317 -0.34808,0 -0.55216,0.38917 -0.40506,0.77248 0.0544,0.14176 0.0491,0.45626 -0.0118,0.69888 -0.0987,0.39289 -0.18975,0.43803 -0.8335,0.41267 -1.08181,-0.0426 -1.15173,-0.0233 -1.15173,0.31789 0,0.47822 0.14586,0.54334 1.21719,0.54334 0.86345,0 1.03339,-0.0572 1.34404,-0.45209 z m 4.31513,-0.73576 c 0.42091,-0.42092 0.50154,-0.6398 0.50154,-1.36147 0,-1.11828 -0.25149,-1.78392 -0.64392,-1.70432 -0.25147,0.051 -0.29241,0.22582 -0.25414,1.08485 0.0631,1.41523 -0.0535,1.5388 -1.45258,1.5388 -0.9407,0 -1.17042,0.0535 -1.21546,0.28288 -0.0714,0.36361 0.64088,0.62935 1.73482,0.64724 0.69637,0.0115 0.90803,-0.0662 1.32974,-0.48798 z m -15.36951,-0.0921 c 0,-0.24545 -0.15974,-0.3688 -0.59215,-0.45724 -1.16732,-0.23874 -1.38562,-1.23085 -0.43733,-1.98748 1.02341,-0.8166 0.56147,-1.5117 -0.52954,-0.79685 -0.89081,0.58368 -1.18828,1.88456 -0.64231,2.8088 0.3611,0.6113 0.83543,0.84964 1.60079,0.80438 0.46988,-0.0277 0.60054,-0.10871 0.60054,-0.37161 z m 23.29183,-0.74602 c 0.31953,-0.27442 0.42466,-1.4802 0.14418,-1.65354 -0.33422,-0.20657 -0.7018,0.12307 -0.7018,0.62931 0,0.45694 -0.0445,0.50247 -0.38605,0.39555 -0.76653,-0.23995 -1.07238,-0.19244 -1.07238,0.16662 0,0.21792 0.2103,0.44815 0.57627,0.63088 0.60297,0.30105 0.93848,0.26172 1.43978,-0.16882 z m -4.02738,-0.81496 c 0.75941,-0.53191 0.25857,-2.55955 -0.55509,-2.24733 -0.22292,0.0856 -0.2716,0.21849 -0.18325,0.50045 0.23283,0.74314 0.18606,1.05768 -0.16716,1.1245 -0.477,0.0902 -0.66429,0.30429 -0.54291,0.62059 0.13349,0.34789 0.95283,0.3489 1.44841,0.002 z m -14.84961,-1.91038 c 0.51159,-1.05746 1.07513,-1.44332 2.30066,-1.57525 0.79442,-0.0856 1.01419,-0.17447 1.06325,-0.43039 0.091,-0.4743 -0.29275,-0.6295 -1.25876,-0.50918 -1.57649,0.19637 -2.586,0.94205 -3.0085,2.22221 -0.42132,1.27658 0.31236,1.51425 0.90335,0.29261 z"
       id="path3657"
       inkscape:connector-curvature="0" />
    <path
       style="display:inline;opacity:1;fill:#ffffff;fill-opacity:0.67281105;stroke:none;stroke-width:0.29700315;stroke-linecap:round;stroke-linejoin:round;stroke-miterlimit:4;stroke-dasharray:none;stroke-opacity:1;paint-order:normal"
       d="m 142.80207,238.1913 c 4.5e-4,-0.37747 0.05,-1.31531 0.11004,-2.08409 l 0.10888,-1.39777 1.90622,-0.0742 c 2.45971,-0.0958 3.58911,-0.50653 4.84422,-1.76164 2.23184,-2.23183 3.03339,-5.47387 3.05457,-12.35488 0.0132,-4.50694 -0.16525,-5.88217 -1.05896,-8.12986 -0.56653,-1.42489 -2.15235,-3.09815 -3.23773,-3.4163 -1.49209,-0.43734 -2.98525,-0.15315 -4.36785,0.83135 l -0.50226,0.35764 v -2.99429 c 0,-2.95846 0.005,-2.99561 0.38605,-3.10357 0.79632,-0.22538 5.02507,-0.314 6.01966,-0.12606 3.32903,0.62875 5.30343,2.82057 6.20386,6.88696 0.60119,2.71501 0.50974,10.3842 -0.19029,15.95685 -0.78925,6.28302 -2.75808,10.2305 -5.64042,11.30892 -1.0399,0.38907 -3.27101,0.66627 -5.96399,0.74098 l -1.67304,0.0464 8.4e-4,-0.68631 z m 6.2886,-2.48531 c 2.07552,-0.90871 3.57522,-3.89266 4.25405,-8.46441 0.34785,-2.34261 0.35188,-3.54869 0.0115,-3.54869 -0.29559,0 -0.33447,0.16831 -0.59457,2.57368 -0.34782,3.21643 -1.23398,6.04782 -2.35135,7.51277 -0.66152,0.86729 -1.83186,1.54178 -2.90863,1.67632 -0.8652,0.10806 -1.13131,0.32848 -0.7985,0.6613 0.18668,0.18668 1.56341,-0.0503 2.38712,-0.41097 z"
       id="path3659"
       inkscape:connector-curvature="0" />
    <g
       transform="matrix(1.9657168,0,0,1.9657168,-729.26995,-237.45975)"
       id="layer1-8"
       inkscape:label="Layer 1">
      <g
         transform="matrix(0.26458333,0,0,0.26458333,-622.87038,-463.70361)"
         id="g2343">
        <path
           sodipodi:nodetypes="cccscccccsccsccccccccc"
           inkscape:connector-curvature="0"
           id="path2813"
           d="m 4087.389,2703.9091 c -16.9665,-0.4495 -30.6109,-1.5806 -42.0108,-3.4827 -24.0596,-4.0143 -37.6028,-11.2708 -41.2165,-22.0842 -0.2852,-0.8538 -0.5187,-1.698 -0.5187,-1.8761 0,-0.1781 0.7366,-1.5784 1.6369,-3.1119 1.4527,-2.4742 1.6404,-2.8871 1.6676,-3.6672 0.064,-1.8239 2.2042,-4.3929 5.0454,-6.0552 0.9056,-0.53 4.3802,-2.9248 7.7212,-5.3219 16.678,-11.9659 26.9622,-18.0084 38.5549,-22.6526 4.3343,-1.7364 10.5604,-3.7367 10.8207,-3.4764 0.059,0.059 0.7769,7.6751 1.5943,16.9237 0.8174,9.2486 1.5168,16.8463 1.5543,16.8837 0.038,0.037 9.0745,-6.0838 20.0822,-13.6027 11.0078,-7.519 20.112,-13.7118 20.2316,-13.7619 0.5,-0.2094 5.3588,3.9513 8.3643,7.1625 9.104,9.7267 16.5823,23.9299 22.3144,42.3804 1.4042,4.5198 1.4485,4.9982 0.8371,9.0371 -0.3169,2.094 -0.4388,3.462 -0.3875,4.35 l 0.075,1.2953 -1.6254,0.1066 c -2.245,0.1471 -13.0183,0.5716 -19.8679,0.7827 -7.7726,0.2396 -28.4522,0.3408 -34.8729,0.1708 z"
           style="opacity:1;fill:#f2f2f2;fill-opacity:1;stroke:none;stroke-width:0;stroke-linecap:round;stroke-linejoin:round;stroke-miterlimit:4;stroke-dasharray:none;stroke-opacity:1;paint-order:normal" />
        <path
           sodipodi:nodetypes="csccccccccccccccccsccccccsscccsscccsscscccscccccsccccccccccccccccccsccccccscscccccccccsccc"
           inkscape:connector-curvature="0"
           id="path2789"
           d="m 4064.9443,2716.7178 c -6.8709,-0.259 -16.3984,-0.8803 -22.4619,-1.9129 -22.0361,-3.7527 -35.2702,-12.2637 -39.6172,-25.6054 -1.0714,-3.2883 -0.8711,-5.3151 -0.5546,-7.402 l 0.28,-1.8466 1.1278,1.9996 c 0.6274,1.1125 2.0018,2.9511 3.0982,4.1445 4.3955,4.7842 9.9562,8.1073 18.6798,11.1632 l 6.1278,1.958 c -0.081,-1.2864 -1.2727,-0.4571 0,0 0.3922,0.1409 2.3111,0.6239 4.2641,1.0733 l 3.551,0.817 -1.226,1.4172 -1.226,1.4172 h -1.9144 c -2.5611,-0.053 -2.0186,0.3532 -0.6635,1.5635 l 1.2508,1.1103 -0.8883,1.1169 c -0.4885,0.6142 -0.8882,1.1893 -0.8882,1.2779 0,0.089 0.6798,0.1637 1.5107,0.1667 l 1.5107,0.01 0.7252,1.1147 c 0.3988,0.6131 0.8013,1.1149 0.8944,1.1152 0.093,0 0.5784,-0.5038 1.0784,-1.1202 l 0.9093,-1.1206 h 1.8826 c 1.0353,0 1.8825,-0.063 1.8825,-0.1395 0,-0.077 -0.3793,-0.6512 -0.8429,-1.2768 l -0.8429,-1.1372 0.9857,-1.2129 c 0.542,-0.6671 1.0845,-1.2759 1.2054,-1.3529 0.1209,-0.077 0.2198,-0.2573 0.2198,-0.4007 0,-0.1673 -0.6913,-0.2283 -1.931,-0.1704 l -1.9311,0.09 -0.3652,-1.1045 c -0.2009,-0.6075 -0.3653,-1.1233 -0.3653,-1.1462 0,-0.023 0.7886,0.1128 1.7525,0.3019 13.9403,2.7338 35.4709,4.3072 58.9184,4.3058 12.0301,0 35.5082,-0.6449 41.1439,-1.1288 l 1.6232,-0.1394 -1.1223,1.9816 -3.3666,5.7475 c -0.3298,1.0294 -0.8342,0.8279 -9.8765,1.6309 -24.2354,2.1523 -38.6251,2.905 -53.9028,2.8197 -4.786,-0.027 -9.572,-0.081 -10.6355,-0.1214 z m 0.272,-3.4332 c 0.4149,-1.356 0.4284,-1.3694 2.067,-2.0317 0.9071,-0.3667 1.6493,-0.6954 1.6493,-0.7305 0,-0.035 -0.5536,-0.4147 -1.2302,-0.8437 -0.6766,-0.4289 -1.1819,-0.9148 -1.123,-1.0797 0.5024,-1.4045 0.932,-2.9678 0.8414,-3.0612 -0.061,-0.063 -0.8265,0.2169 -1.7014,0.6213 l -1.5908,0.7354 -1.0039,-1.1222 c -0.5522,-0.6172 -1.0368,-1.0857 -1.0769,-1.041 -0.04,0.045 -0.3762,0.9659 -0.747,2.0473 l -0.6741,1.9661 -1.5374,0.7182 c -0.8455,0.3951 -1.4772,0.8185 -1.4037,0.941 0.074,0.1226 0.7035,0.4147 1.3999,0.6491 0.6964,0.2344 1.3045,0.4598 1.3512,0.501 0.047,0.041 -0.1003,0.6497 -0.3268,1.3523 -0.2265,0.7026 -0.3621,1.3287 -0.3014,1.3912 0.061,0.062 0.7139,-0.1242 1.4516,-0.415 l 1.3411,-0.5288 0.9255,0.6479 c 0.509,0.3564 1.0035,0.6479 1.0988,0.6479 0.095,0 0.3611,-0.6142 0.5908,-1.3649 z m -15.1282,-0.017 c 0.1706,-0.2119 0.6232,-0.6148 1.0058,-0.8956 0.6412,-0.4703 0.8202,-0.4879 2.2857,-0.225 0.8745,0.1569 1.6449,0.2288 1.7119,0.1597 0.067,-0.069 -0.1632,-0.627 -0.5117,-1.2397 -0.3485,-0.6127 -0.6336,-1.1644 -0.6336,-1.2262 0,-0.062 0.5982,-0.5876 1.3294,-1.1688 0.7312,-0.5812 1.3294,-1.1408 1.3294,-1.2434 0,-0.1026 -0.6599,-0.2634 -1.4666,-0.3575 -2.0151,-0.2349 -2.102,-0.2909 -2.2796,-1.4694 -0.3094,-2.0531 -0.2378,-2.0346 -2.0637,-0.5335 l -1.6696,1.3725 -1.7593,-0.2222 c -0.9676,-0.1222 -1.7901,-0.1953 -1.8279,-0.1626 -0.038,0.033 0.3886,0.6556 0.9476,1.3841 l 1.0162,1.3245 -1.0081,0.8944 c -0.5544,0.4919 -1.0079,0.9649 -1.0079,1.0511 0,0.086 0.5219,0.2305 1.1597,0.3209 1.4636,0.2074 1.565,0.2795 2.1967,1.5634 0.566,1.1502 0.7718,1.2614 1.2456,0.6733 z"
           style="opacity:1;fill:#660080;fill-opacity:1;stroke:none;stroke-width:0;stroke-linecap:round;stroke-linejoin:round;stroke-miterlimit:4;stroke-dasharray:none;stroke-opacity:1;paint-order:normal" />
        <g
           style="display:none"
           id="Layer_5"
           class="st0">
          <image
             style="display:inline;overflow:visible"
             width="2176"
             height="3306"
             transform="translate(110.554,189.8549)"
             id="image1719"
             xlink:href="file:///tmp/mozilla_tperale0/Downloads/45409148_350496415519204_7253999918115717120_n.jpg"
             sodipodi:absref="/tmp/mozilla_tperale0/Downloads/45409148_350496415519204_7253999918115717120_n.jpg" />
        </g>
        <g
           transform="matrix(0.47515461,0,0,0.47515461,3521.5817,2411.4987)"
           id="Layer_2">
          <path
             style="fill:none;stroke:#000000;stroke-width:5;stroke-linecap:round;stroke-linejoin:round"
             id="path881"
             inkscape:connector-curvature="0"
             sodipodi:nodetypes="ccc"
             class="st5"
             d="m 1009.3,573.4 2.7,-17.4 6.9,-11.80001" />
          <path
             style="fill:none;stroke:#000000;stroke-width:4;stroke-linecap:round;stroke-linejoin:round"
             id="path883"
             inkscape:connector-curvature="0"
             sodipodi:nodetypes="cscc"
             class="st6"
             d="m 1009.3,573.4 c -73.9,141.1 49.8,126.7 160.8,111 47.8,-6.8 151.2,-44.3 129.3,-47.6 -146.9,14 -279.1,17.8 -290.1,-63.4 z" />
          <path
             style="fill:none;stroke:#000000;stroke-width:4"
             id="path2085"
             inkscape:connector-curvature="0"
             sodipodi:nodetypes="cc"
             class="st2"
             d="m 1012,556 c 9.1,57.1 131,67.8 299.9,59.3" />
          <path
             sodipodi:nodetypes="ccc"
             style="fill:none;stroke:#000000;stroke-width:3"
             id="path2089"
             inkscape:connector-curvature="0"
             class="st3"
             d="M 1153.9214,461.86786 1160.2,532.9 l 86,-58.7" />
          <path
             style="fill:none;stroke:#000000;stroke-width:3"
             id="path2091"
             inkscape:connector-curvature="0"
             class="st3"
             d="m 1198.7,498.2 26.8,-19.3 -15.6,-2.3 -15.3,19.6" />
          <path
             style="fill:none;stroke:#000000;stroke-width:3"
             id="path2093"
             inkscape:connector-curvature="0"
             class="st3"
             d="m 1186.9,473.1 16.7,2.3 -24.5,32.6" />
          <path
             style="fill:none;stroke:#000000;stroke-width:3"
             id="path2095"
             inkscape:connector-curvature="0"
             class="st3"
             d="m 1180,473.1 -19.3,-0.6 3.2,34.4 7.2,-2.3 z" />
          <path
             style="fill:none;stroke:#000000;stroke-width:3;stroke-linecap:square;stroke-linejoin:round"
             id="path2097"
             inkscape:connector-curvature="0"
             class="st13"
             d="m 1161.8,485.2 c 2,0.6 12.1,5.5 12.1,5.5" />
          <path
             style="fill:none;stroke:#000000;stroke-width:3"
             id="path2099"
             inkscape:connector-curvature="0"
             sodipodi:nodetypes="ccccccccccccc"
             class="st3"
             d="m 1063.1,610.7 6,-3.3 v 4.6 l 5.2,1.6 -4.6,2.6 1.3,3.9 -4.6,-1.6 -4,2.5 -1.2,-3.9 -3.5,-1.4 3.7,-2 -2.4,-4.3 z" />
          <path
             style="fill:none;stroke:#000000;stroke-width:3.54487491"
             id="path2099-0"
             inkscape:connector-curvature="0"
             sodipodi:nodetypes="ccccccccccccc"
             class="st3"
             d="m 1084.4609,616.67122 6.0263,-6.49894 1.8906,5.6718 6.9716,-0.11816 -4.6083,5.08099 3.1903,4.25385 -6.3808,-0.11816 -3.8993,4.72649 -3.0722,-4.25385 -4.8447,-0.23633 3.6631,-4.01751 -4.7266,-4.37202 z" />
          <path
             style="fill:none;stroke:#000000;stroke-width:3.29927468"
             id="path2099-2"
             inkscape:connector-curvature="0"
             sodipodi:nodetypes="ccccccccccccc"
             class="st3"
             d="m 1110.6386,622.45324 5.9387,-4.61899 0.7698,5.05889 5.9387,0.87981 -4.6189,3.6292 2.0895,4.0691 -5.2788,-0.98978 -3.9592,3.40925 -1.9795,-3.95913 -4.0691,-0.8798 3.6292,-2.85937 -3.2993,-4.28906 z" />
          <path
             style="fill:none;stroke:#000000;stroke-width:3.37547135"
             id="path2099-8"
             inkscape:connector-curvature="0"
             sodipodi:nodetypes="ccccccccccccc"
             class="st3"
             d="m 1135.4726,626.70739 2.5879,-7.201 3.488,3.93804 5.6257,-2.47534 -1.9128,5.62579 4.0506,2.36283 -5.1757,2.02528 -1.5752,5.0632 -3.8256,-2.36283 -4.0505,1.46272 1.5752,-4.50064 -5.1757,-1.91277 z" />
          <path
             sodipodi:nodetypes="csscc"
             inkscape:connector-curvature="0"
             id="path2777"
             d="m 1018.9,544.19999 c -0.6739,0.50996 1.7343,-9.74681 11.5644,-14.978 27.1153,-14.42959 209.7142,-185.81921 281.719,58.63421 2.8856,9.79635 -2.7756,16.34231 -0.2834,27.44379 l -12.5,21.5"
             style="fill:none;stroke:#000000;stroke-width:3.77952766;stroke-linecap:butt;stroke-linejoin:miter;stroke-miterlimit:4;stroke-dasharray:none;stroke-opacity:1" />
          <path
             style="fill:none;stroke:#000000;stroke-width:3"
             id="path2087"
             inkscape:connector-curvature="0"
             sodipodi:nodetypes="cccc"
             class="st3"
             d="m 1103.5,549.1 c -8.4,29.5 -5.7,50.3 12.9,58.4 13.7,-0.9 26.5,3 49.3,-44.7 -16,-14.4 -51.8,-16.8 -62.2,-13.7 z" />
        </g>
        <path
           inkscape:connector-curvature="0"
           id="path2793"
           d="m 4023.0478,2740.0796 c -2.1534,-0.111 -6.5504,-0.6027 -8.841,-0.9886 -4.3943,-0.7403 -7.7192,-1.7271 -10.9064,-3.2369 -13.7151,-6.4971 -15.3688,-20.4653 -5.1361,-43.3817 0.6365,-1.4254 1.4629,-3.1961 1.8365,-3.935 l 0.6793,-1.3435 0.3825,1.4283 c 0.8666,3.2354 2.5712,6.8496 4.5554,9.6586 1.4661,2.0756 4.8952,5.5302 7.139,7.1922 4.9578,3.6724 10.9633,6.4465 18.539,8.5637 20.621,5.7631 50.7393,6.2812 100.5283,1.7291 3.92,-0.3584 7.1533,-0.6267 7.1852,-0.5962 0.2953,0.2828 -5.1958,3.2158 -9.2216,4.9254 -12.2572,5.2053 -31.9618,11.428 -45.0548,14.2281 -3.8238,0.8178 -6.8093,1.3024 -14.1698,2.3002 -14.6885,1.991 -23.3243,2.8859 -32.8366,3.4024 -2.8233,0.1532 -12.0914,0.1873 -14.6789,0.054 z"
           style="opacity:1;fill:#333333;fill-opacity:1;stroke:#010000;stroke-width:0.64137858;stroke-linecap:round;stroke-linejoin:round;stroke-miterlimit:4;stroke-dasharray:none;stroke-opacity:1;paint-order:normal" />
        <path
           inkscape:connector-curvature="0"
           id="path2805"
           d="m 4037.6925,2708.8465 c -0.326,-0.4756 -0.751,-0.807 -1.035,-0.807 -0.4768,0 -0.4764,-0.01 0.03,-0.5453 0.6541,-0.6963 0.6447,-0.8221 -0.1209,-1.6213 -0.6275,-0.655 -0.6284,-0.6609 -0.1026,-0.6609 0.3375,0 0.9463,-0.4497 1.6742,-1.2369 0.8391,-0.9075 1.1784,-1.1429 1.2738,-0.8836 0.072,0.1945 0.2365,0.645 0.3667,1.0014 0.2114,0.5786 0.3528,0.6479 1.3201,0.6479 h 1.0832 l -0.7121,0.8639 -0.7121,0.8639 0.4754,0.6676 0.4754,0.6677 h -0.9401 c -0.8024,0 -1.0563,0.1356 -1.7319,0.9248 l -0.7916,0.9249 z"
           style="opacity:1;fill:#ffff00;fill-opacity:1;stroke:none;stroke-width:0;stroke-linecap:round;stroke-linejoin:round;stroke-miterlimit:4;stroke-dasharray:none;stroke-opacity:1;paint-order:normal" />
        <path
           transform="translate(2354.1558,1128.9585)"
           inkscape:connector-curvature="0"
           id="path2807"
           d=""
           style="opacity:1;fill:#ffff00;fill-opacity:1;stroke:none;stroke-width:0;stroke-linecap:round;stroke-linejoin:round;stroke-miterlimit:4;stroke-dasharray:none;stroke-opacity:1;paint-order:normal" />
        <path
           inkscape:connector-curvature="0"
           id="path2809"
           d="m 4049.4841,2711.179 c -0.078,-0.2465 -0.3076,-0.6134 -0.5096,-0.8155 -0.3399,-0.3399 -0.3326,-0.3954 0.099,-0.7451 0.465,-0.3764 0.4651,-0.38 0.026,-0.9823 -0.2878,-0.3952 -0.3436,-0.6045 -0.1611,-0.6045 0.1536,0 0.8148,-0.4043 1.4693,-0.8984 l 1.1901,-0.8986 0.1549,0.8423 c 0.1792,0.9744 0.3997,1.1712 1.3175,1.1759 h 0.6657 l -0.7538,0.6293 c -0.6672,0.557 -0.7234,0.6862 -0.4893,1.1237 0.2462,0.4599 0.2161,0.4943 -0.4325,0.4943 -0.3973,0 -1.0137,0.2415 -1.4335,0.5617 -0.8889,0.678 -0.9618,0.6853 -1.1432,0.1137 z"
           style="opacity:1;fill:#ffff00;fill-opacity:1;stroke:none;stroke-width:0;stroke-linecap:round;stroke-linejoin:round;stroke-miterlimit:4;stroke-dasharray:none;stroke-opacity:1;paint-order:normal" />
        <path
           inkscape:connector-curvature="0"
           id="path2811"
           d="m 4063.3116,2712.3577 c -0.3498,-0.2575 -0.7888,-0.4096 -0.9755,-0.338 -0.4022,0.1544 -0.4074,0.1237 -0.1109,-0.656 0.2079,-0.5468 0.1657,-0.623 -0.4665,-0.8433 -0.4861,-0.1695 -0.6289,-0.3219 -0.4752,-0.507 0.1208,-0.1456 0.4448,-0.8664 0.72,-1.6018 l 0.5001,-1.337 0.6378,0.7639 0.6378,0.7639 0.8586,-0.4093 c 0.7713,-0.3679 0.8439,-0.3713 0.7145,-0.034 -0.454,1.183 -0.4236,1.4666 0.1866,1.7446 l 0.6051,0.2757 -0.6982,0.2935 c -0.4066,0.171 -0.7948,0.5615 -0.9296,0.9352 -0.5387,1.4935 -0.5034,1.4657 -1.2046,0.9496 z"
           style="opacity:1;fill:#ffff00;fill-opacity:1;stroke:none;stroke-width:0;stroke-linecap:round;stroke-linejoin:round;stroke-miterlimit:4;stroke-dasharray:none;stroke-opacity:1;paint-order:normal" />
        <path
           inkscape:connector-curvature="0"
           id="path2817"
           d="m 4073.5459,2663.1564 c -0.057,-0.2773 -2.8138,-31.4674 -2.7848,-31.5046 0.094,-0.12 4.1251,-0.8984 6.2818,-1.2131 9.0811,-1.325 17.7983,-0.4696 25.3644,2.4887 2.2217,0.8688 5.9749,2.7387 7.6974,3.8352 l 1.164,0.741 -1.5883,1.1013 c -2.0888,1.4484 -35.0509,23.9256 -35.6551,24.3137 -0.2567,0.1648 -0.4724,0.2719 -0.4794,0.2378 z m 2.8463,-10.5275 2.2615,-0.7079 0.2436,-0.8205 c 0.9604,-3.2338 4.3552,-15.4478 4.3071,-15.4959 -0.073,-0.073 -10.8666,-0.4492 -10.9347,-0.3811 -0.027,0.026 0.063,1.1921 0.1998,2.5899 0.1365,1.3978 0.2815,3.076 0.3224,3.7293 0.041,0.6534 0.3038,3.4789 0.5844,6.2789 0.2806,2.8 0.5128,5.1864 0.5159,5.303 0.01,0.2902 -0.042,0.3001 2.5,-0.4957 z m 12.1738,-7.3655 c 3.3306,-4.4405 6.0974,-8.1823 6.1484,-8.3153 0.053,-0.1383 -0.01,-0.2417 -0.145,-0.2417 -0.1307,0 -2.1763,-0.2685 -4.5458,-0.5967 -4.6895,-0.6495 -4.5786,-0.6587 -4.5835,0.3813 0,0.6521 -0.2473,0.5791 3.6784,1.1005 l 2.9173,0.3876 -5.4193,7.2122 -5.4193,7.2121 0.544,0.4667 c 0.2992,0.2567 0.5947,0.4667 0.6566,0.4667 0.062,0 2.8376,-3.6331 6.1682,-8.0734 z m 14.3982,-4.5571 c 2.2084,-1.5876 2.7799,-2.0736 2.5454,-2.1653 -0.1663,-0.065 -2.2114,-0.3914 -4.5448,-0.7255 -2.3333,-0.3341 -4.3732,-0.636 -4.533,-0.671 -0.2109,-0.046 -1.3059,1.2369 -3.988,4.6727 -2.0335,2.605 -3.7188,4.8337 -3.7452,4.9526 -0.057,0.259 0.9235,1.0227 1.141,0.8883 0.084,-0.052 1.6901,-2.0665 3.5695,-4.4771 l 3.4172,-4.3829 2.239,0.3236 c 1.2314,0.178 2.3434,0.3575 2.4711,0.3989 0.1276,0.041 -2.0488,1.7149 -4.8364,3.7189 -2.7877,2.0039 -5.2934,3.8213 -5.5681,4.0386 l -0.4995,0.3951 0.4699,0.616 0.4698,0.6161 4.2721,-3.076 c 2.3497,-1.6918 5.5537,-3.9971 7.12,-5.123 z"
           style="opacity:1;fill:#f2f2f2;fill-opacity:1;stroke:none;stroke-width:0;stroke-linecap:round;stroke-linejoin:round;stroke-miterlimit:4;stroke-dasharray:none;stroke-opacity:1;paint-order:normal" />
        <path
           inkscape:connector-curvature="0"
           id="path2819"
           d="m 4076.8358,2642.5894 c -1.2309,-0.5756 -2.2831,-1.0934 -2.3383,-1.1506 -0.055,-0.057 -0.1993,-1.1185 -0.3203,-2.3586 l -0.22,-2.2547 3.5699,0.1177 c 1.9634,0.065 3.5924,0.1402 3.6199,0.1677 0.1069,0.1069 -1.7659,6.4499 -1.9151,6.4864 -0.087,0.021 -1.1652,-0.4322 -2.3961,-1.0079 z"
           style="opacity:1;fill:#f2f2f2;fill-opacity:1;stroke:none;stroke-width:0;stroke-linecap:round;stroke-linejoin:round;stroke-miterlimit:4;stroke-dasharray:none;stroke-opacity:1;paint-order:normal" />
        <path
           inkscape:connector-curvature="0"
           id="path2821"
           d="m 4075.2552,2650.9367 c -3e-4,-0.22 -0.1554,-1.9948 -0.3448,-3.9441 -0.1895,-1.9493 -0.316,-3.5725 -0.2814,-3.6071 0.057,-0.057 4.0102,1.7488 4.177,1.9086 0.039,0.038 -0.2597,1.2499 -0.6646,2.6938 l -0.7361,2.6252 -0.8627,0.2835 c -0.4746,0.1559 -0.9582,0.3188 -1.0749,0.3618 -0.1318,0.049 -0.2123,-0.073 -0.2125,-0.3217 z"
           style="opacity:1;fill:#f2f2f2;fill-opacity:1;stroke:none;stroke-width:0;stroke-linecap:round;stroke-linejoin:round;stroke-miterlimit:4;stroke-dasharray:none;stroke-opacity:1;paint-order:normal" />
        <path
           transform="translate(2354.1558,1128.9585)"
           inkscape:connector-curvature="0"
           id="path2928"
           d=""
           style="opacity:1;fill:#668000;fill-opacity:1;stroke:none;stroke-width:0;stroke-linecap:round;stroke-linejoin:round;stroke-miterlimit:4;stroke-dasharray:none;stroke-opacity:1;paint-order:normal" />
        <flowRoot
           style="font-style:normal;font-weight:normal;font-size:40px;line-height:1.25;font-family:sans-serif;letter-spacing:0px;word-spacing:0px;fill:#000000;fill-opacity:1;stroke:none"
           id="flowRoot1076"
           xml:space="preserve"><flowRegion
             id="flowRegion1078"><rect
               y="453.14645"
               x="840.4469"
               height="242.43661"
               width="1341.4825"
               id="rect1080" /></flowRegion><flowPara
             id="flowPara1082" /></flowRoot>        <path
           inkscape:connector-curvature="0"
           id="path2803"
           d="m 4025.8158,2704.7166 c -0.082,-0.3013 -0.2552,-0.6105 -0.3856,-0.6871 -0.1497,-0.088 -0.1593,-0.1666 -0.026,-0.2134 0.7219,-0.2541 0.8183,-0.3832 0.5877,-0.7879 -0.2181,-0.3827 -0.1626,-0.4343 0.9605,-0.8934 0.6556,-0.2679 1.2631,-0.514 1.35,-0.5469 0.087,-0.033 0.1581,0.244 0.1581,0.6154 0,0.6267 0.055,0.6897 0.7642,0.8769 l 0.7644,0.2017 -0.6579,0.3331 c -0.5405,0.2736 -0.6341,0.4086 -0.5248,0.7568 0.1257,0.4009 0.097,0.4175 -0.5286,0.3076 -0.4884,-0.086 -0.847,-0.025 -1.3708,0.2344 -0.3902,0.1928 -0.7619,0.3506 -0.8259,0.3506 -0.064,0 -0.1834,-0.2465 -0.2651,-0.5478 z"
           style="opacity:1;fill:#ffff00;fill-opacity:1;stroke:none;stroke-width:0;stroke-linecap:round;stroke-linejoin:round;stroke-miterlimit:4;stroke-dasharray:none;stroke-opacity:1;paint-order:normal" />
        <path
           inkscape:connector-curvature="0"
           id="path1102"
           d="m 4051.2614,2698.8864 c -5.0746,-2.7355 -7.3208,-8.228 -6.5904,-16.1151 0.2066,-2.231 0.7119,-5.1255 1.3306,-7.6213 l 0.5247,-2.1167 0.9833,-0.1794 c 1.4769,-0.2694 6.7854,-0.2264 9.2743,0.075 6.9398,0.8408 12.4155,2.5792 16.3279,5.1838 0.7529,0.5012 1.3689,0.94 1.3689,0.9752 0,0.1486 -2.1916,4.4232 -3.0959,6.0384 -3.8608,6.8961 -7.462,11.0832 -11.0471,12.8445 -1.4712,0.7229 -2.9204,1.073 -5.1429,1.2425 -2.772,0.2115 -2.964,0.1955 -3.9334,-0.327 z"
           style="opacity:1;fill:#b3b3b3;fill-opacity:1;stroke:none;stroke-width:0.2775757;stroke-linecap:round;stroke-linejoin:round;stroke-miterlimit:4;stroke-dasharray:none;stroke-opacity:1;paint-order:normal" />
      </g>
    </g>
  </g>
  <style
     type="text/css"
     id="style1717">
	.st0{display:none;}
	.st1{fill:none;stroke:#000000;stroke-width:6;}
	.st2{fill:none;stroke:#000000;stroke-width:4;}
	.st3{fill:none;stroke:#000000;stroke-width:3;}
	.st4{stroke:#000000;stroke-miterlimit:10;}
	.st5{fill:none;stroke:#000000;stroke-width:5;stroke-linecap:round;stroke-linejoin:round;}
	.st6{fill:none;stroke:#000000;stroke-width:4;stroke-linecap:round;stroke-linejoin:round;}
	.st7{fill:none;stroke:#000000;stroke-width:5;}
	.st8{stroke:#000000;stroke-width:5;}
	.st9{fill:none;stroke:#000000;stroke-width:3;stroke-linecap:round;}
	.st10{fill:none;stroke:#000000;stroke-width:5;stroke-linecap:round;}
	.st11{fill:none;stroke:#000000;stroke-width:5;stroke-linejoin:round;}
	.st12{fill:none;stroke:#000000;stroke-width:3;stroke-linecap:round;stroke-linejoin:round;}
	.st13{fill:none;stroke:#000000;stroke-width:3;stroke-linecap:square;stroke-linejoin:round;}
</style>
</svg>
