<?xml version="1.0" encoding="UTF-8" standalone="no"?>
<!-- Created with Inkscape (http://www.inkscape.org/) -->

<svg
   xmlns:dc="http://purl.org/dc/elements/1.1/"
   xmlns:cc="http://creativecommons.org/ns#"
   xmlns:rdf="http://www.w3.org/1999/02/22-rdf-syntax-ns#"
   xmlns:svg="http://www.w3.org/2000/svg"
   xmlns="http://www.w3.org/2000/svg"
   xmlns:xlink="http://www.w3.org/1999/xlink"
   xmlns:sodipodi="http://sodipodi.sourceforge.net/DTD/sodipodi-0.dtd"
   xmlns:inkscape="http://www.inkscape.org/namespaces/inkscape"
   width="120mm"
   height="120mm"
   viewBox="0 0 120 120"
   version="1.1"
   id="svg3667"
   inkscape:version="0.92.4 5da689c313, 2019-01-14"
   sodipodi:docname="cantux.svg">
  <defs
     id="defs3661">
    <linearGradient
       inkscape:collect="always"
       id="linearGradient914">
      <stop
         style="stop-color:#ffffff;stop-opacity:1;"
         offset="0"
         id="stop910" />
      <stop
         style="stop-color:#ffffff;stop-opacity:0;"
         offset="1"
         id="stop912" />
    </linearGradient>
    <linearGradient
       gradientTransform="matrix(0.0990718,0,0,0.0990718,91.111839,137.58301)"
       inkscape:collect="always"
       xlink:href="#linearGradient2644"
       id="linearGradient2646"
       x1="352.8569"
       y1="440.32959"
       x2="901.96259"
       y2="411.32812"
       gradientUnits="userSpaceOnUse" />
    <linearGradient
       inkscape:collect="always"
       id="linearGradient2644">
      <stop
         style="stop-color:#808080;stop-opacity:0.6082949"
         offset="0"
         id="stop2640" />
      <stop
         style="stop-color:#808080;stop-opacity:0;"
         offset="1"
         id="stop2642" />
    </linearGradient>
    <radialGradient
       inkscape:collect="always"
       xlink:href="#linearGradient914"
       id="radialGradient916"
       cx="148.53503"
       cy="132.16151"
       fx="148.53503"
       fy="132.16151"
       r="18.508415"
       gradientTransform="matrix(0.47046871,0,0,0.50104066,18.23523,128.76067)"
       gradientUnits="userSpaceOnUse" />
  </defs>
  <sodipodi:namedview
     id="base"
     pagecolor="#ffffff"
     bordercolor="#666666"
     borderopacity="1.0"
     inkscape:pageopacity="0.0"
     inkscape:pageshadow="2"
     inkscape:zoom="0.49497475"
     inkscape:cx="-316.71934"
     inkscape:cy="546.27189"
     inkscape:document-units="mm"
     inkscape:current-layer="layer1"
     showgrid="false"
     inkscape:window-width="1916"
     inkscape:window-height="1076"
     inkscape:window-x="1920"
     inkscape:window-y="0"
     inkscape:window-maximized="0" />
  <metadata
     id="metadata3664">
    <rdf:RDF>
      <cc:Work
         rdf:about="">
        <dc:format>image/svg+xml</dc:format>
        <dc:type
           rdf:resource="http://purl.org/dc/dcmitype/StillImage" />
        <dc:title></dc:title>
      </cc:Work>
    </rdf:RDF>
  </metadata>
  <g
     inkscape:label="Layer 1"
     inkscape:groupmode="layer"
     id="layer1"
     transform="translate(0,-177)">
    <ellipse
       style="opacity:1;fill:url(#radialGradient916);fill-opacity:1;stroke:none;stroke-width:0.23523435;stroke-linecap:round;stroke-linejoin:round;stroke-miterlimit:4;stroke-dasharray:none;stroke-opacity:0.97235024;paint-order:normal"
       id="path908"
       cx="88.11631"
       cy="194.97896"
       rx="8.7076302"
       ry="9.273468" />
    <path
       style="fill:#ff0900;fill-opacity:0.37327193;stroke:none;stroke-width:0.04452614px;stroke-linecap:butt;stroke-linejoin:miter;stroke-opacity:1"
       d="m 88.584928,193.38453 c -0.68289,2.38819 -1.135335,2.84141 -1.903384,4.57369 -0.621789,1.32778 -0.201138,2.06594 1.508613,3.15674 1.377241,-0.61693 2.302571,-0.57927 1.917461,-2.79803 -0.33153,-1.94272 -1.51555,-2.64868 -1.52269,-4.9324 z"
       id="path876-9-7"
       inkscape:connector-curvature="0"
       sodipodi:nodetypes="ccccc" />
    <path
       inkscape:connector-curvature="0"
       style="display:inline;fill:#b3b3b3;fill-opacity:0.50230414;stroke:none;stroke-width:0.05750114px;stroke-linecap:round;stroke-linejoin:round;stroke-opacity:1"
       d="m 107.4163,257.34968 -0.24057,0.47289 c -1.11481,0.0419 -1.61592,0.17406 -2.05891,0.31461 -1.87242,0.22003 -2.9759,0.48119 -2.1954,0.84335 -1.09456,0.39031 -1.41519,0.77061 -1.4156,1.14671 -0.40099,0.18306 -0.90195,0.37314 -0.64446,0.50983 -0.43403,0.26208 -1.114852,0.61754 -0.28078,0.6957 l -2.674652,2.60227 c -0.0466,0.0502 -0.0559,0.096 -0.0348,0.13784 l -0.0198,3.3e-4 c -1.40383,0.32031 -0.94517,0.50919 -0.77146,0.70475 -7.46424,6.69674 -8.11131,4.63621 -10.03894,6.5592 l -5.015015,5.00091 -0.04885,10e-4 c 0.01388,0.002 0.02796,0.004 0.04198,0.006 l -2.089793,2.08398 c -0.894164,1.55885 11.425618,1.62807 13.114278,0.0375 0.90006,-0.88064 1.65493,-1.62803 2.3268,-2.29918 0.006,-0.001 0.009,-0.001 0.0147,-0.002 l -0.0126,-1.3e-4 c 1.89019,-1.88823 3.08954,-3.14197 4.755042,-4.82179 2.105,-2.12309 -3.066572,0.69547 3.29559,-6.67556 1.35231,-0.25997 0.72826,-0.51431 0.61074,-0.72133 l -0.005,2e-4 c 0.15956,-0.0608 0.28189,-0.12736 0.35654,-0.19983 l 5.19548,-5.27025 c 1.74154,-0.74878 0.0144,-0.58777 -0.83158,-0.65783 -0.50855,-0.012 -0.93603,-0.0121 -1.30587,-0.004 0.0257,-0.16177 -0.0265,-0.30846 -0.028,-0.46496 z"
       id="path906" />
    <path
       style="fill:#ff7f2a;fill-opacity:0.37327193;stroke:none;stroke-width:0.03826179px;stroke-linecap:butt;stroke-linejoin:miter;stroke-opacity:1"
       d="m 88.529228,194.47284 c -0.586804,2.0522 -0.975609,2.44166 -1.63559,3.93022 -0.534318,1.14097 -0.172847,1.77529 1.296361,2.71262 1.183479,-0.53013 1.978619,-0.49777 1.647689,-2.40437 -0.28488,-1.66941 -1.30233,-2.27605 -1.30846,-4.23847 z"
       id="path876-9"
       inkscape:connector-curvature="0"
       sodipodi:nodetypes="ccccc" />
    <path
       style="color:#000000;font-style:normal;font-variant:normal;font-weight:normal;font-stretch:normal;font-size:medium;line-height:normal;font-family:sans-serif;font-variant-ligatures:normal;font-variant-position:normal;font-variant-caps:normal;font-variant-numeric:normal;font-variant-alternates:normal;font-feature-settings:normal;text-indent:0;text-align:start;text-decoration:none;text-decoration-line:none;text-decoration-style:solid;text-decoration-color:#000000;letter-spacing:normal;word-spacing:normal;text-transform:none;writing-mode:lr-tb;direction:ltr;text-orientation:mixed;dominant-baseline:auto;baseline-shift:baseline;text-anchor:start;white-space:normal;shape-padding:0;clip-rule:nonzero;display:inline;overflow:visible;visibility:visible;opacity:1;isolation:auto;mix-blend-mode:normal;color-interpolation:sRGB;color-interpolation-filters:linearRGB;solid-color:#000000;solid-opacity:1;vector-effect:none;fill:#000000;fill-opacity:1;fill-rule:nonzero;stroke:#040000;stroke-width:0.29223311;stroke-linecap:round;stroke-linejoin:round;stroke-miterlimit:4;stroke-dasharray:none;stroke-dashoffset:0;stroke-opacity:0.97235024;color-rendering:auto;image-rendering:auto;shape-rendering:auto;text-rendering:auto;enable-background:accumulate"
       d="m 88.034958,200.4362 c -0.06735,10e-4 -0.114374,0.0671 -0.0934,0.13115 0.168814,0.54184 0.37604,1.04424 0.524,1.58509 -0.456181,0.023 -0.811613,0.0925 -1.094001,0.19719 -0.537874,0.19945 -0.812587,0.52553 -1.043751,0.85701 -0.91233,0.35117 -1.608081,0.74595 -1.923665,1.24005 -0.158604,0.24837 -0.217804,0.52443 -0.152945,0.8201 0.06261,0.28575 0.244346,0.5895 0.545562,0.91504 -0.7641,1.34518 -0.700813,2.69578 -0.29212,4.03427 -0.118846,0.31166 -0.263017,0.63191 -0.325695,0.94327 -0.06156,0.30629 -0.03615,0.60956 0.174753,0.86988 -0.09489,0.4533 -0.229788,0.98599 -0.217418,1.4566 0.0059,0.23894 0.05082,0.463 0.162953,0.65024 0.105467,0.17613 0.277771,0.31232 0.516426,0.39772 l -0.08388,9.17076 c -2e-5,6.5e-4 -2e-5,0.002 0,0.003 0.0033,0.16643 0.03772,0.32151 0.09697,0.46552 -0.594907,0.5429 -0.725626,1.00959 -0.642457,1.42278 0.08284,0.41178 0.36316,0.76345 0.563997,1.10867 -0.430167,11.81483 -1.393912,15.86854 -2.245562,17.80975 -0.426054,0.9711 -0.826136,1.41759 -1.125347,2.05705 -0.299199,0.63945 -0.489296,1.46275 -0.4913,3.16793 l -0.02312,17.69949 -0.01997,0.0444 c 0.0059,0.003 0.01323,0.006 0.01984,0.008 l -0.0092,7.34471 5.83e-4,0.003 c 0.186318,1.40866 1.196526,2.51393 2.597032,3.28843 1.400513,0.77451 3.194388,1.22267 4.969095,1.32097 1.7747,0.0982 3.53042,-0.15301 4.85549,-0.78586 1.32508,-0.63287 2.22204,-1.65626 2.25022,-3.08456 v -4.4e-4 -4.3e-4 c 0.0872,-11.88677 -0.0145,-17.14943 -0.0327,-25.20893 -0.005,-1.88163 -0.17079,-2.68384 -0.4404,-3.23484 -0.26962,-0.55098 -0.62937,-0.83406 -1.0224,-1.69644 -0.78555,-1.72363 -1.7156,-5.78432 -2.26868,-18.82639 0.29057,-0.21537 0.46304,-0.43877 0.5382,-0.66628 0.0777,-0.23519 0.0564,-0.47074 -0.0142,-0.6967 -0.13876,-0.4439 -0.46393,-0.86087 -0.64137,-1.22095 0.10432,-0.21002 0.1638,-0.44153 0.16629,-0.69515 0,-2e-4 0,-3.9e-4 0,-5.9e-4 l -0.0749,-18.64404 c 0.19058,-0.45331 0.29759,-0.81542 0.33616,-1.1074 0.0165,-0.1249 0.0204,-0.23696 0.0131,-0.33784 -0.0248,-0.33932 -0.18484,-0.55329 -0.40925,-0.67937 -0.22441,-0.12609 -0.50821,-0.17203 -0.79788,-0.20721 -0.28967,-0.0351 -0.58613,-0.0589 -0.83145,-0.12916 -0.003,-10e-4 -0.006,-0.002 -0.009,-0.003 -0.3277,-0.0379 -0.62414,-0.0618 -0.893,-0.0729 -0.17032,-0.007 -0.32731,-0.008 -0.47642,-0.006 -0.15193,-0.5728 -0.36782,-1.09419 -0.537103,-1.63755 -0.01277,-0.043 -0.05265,-0.0723 -0.09754,-0.0716 z m 0.81967,1.82139 c 0.0918,5.8e-4 0.18744,0.003 0.28701,0.007 0.26472,0.0115 0.55748,0.0341 0.88167,0.0716 0.26036,0.0735 0.55848,0.097 0.84256,0.13139 0.28636,0.0348 0.55746,0.0818 0.75586,0.19318 0.19838,0.11144 0.3289,0.27965 0.35147,0.58845 0.022,0.30192 -0.0688,0.74061 -0.32813,1.36411 -0.13703,-0.0263 -0.26891,-0.0446 -0.39394,-0.0523 -0.41871,-0.0258 -0.77136,0.0502 -1.06508,0.21098 -0.39166,0.21439 -0.67508,0.57647 -0.87747,1.03219 -0.40477,0.91143 -0.49355,2.20274 -0.48198,3.51518 0.0115,1.31243 0.12544,2.64625 0.13652,3.63189 0.006,0.49282 -0.0156,0.89924 -0.0842,1.1658 -0.0343,0.13327 -0.0808,0.23039 -0.13449,0.28611 -0.0537,0.0557 -0.1103,0.0762 -0.19498,0.0624 l -5.8e-4,-2.3e-4 h -4.4e-4 c -0.24726,-0.0344 -0.374538,-0.17556 -0.448388,-0.42417 -0.07388,-0.24861 -0.08065,-0.60179 -0.05848,-1.02041 0.04388,-0.82991 0.196442,-1.91689 0.107189,-3.0043 0.197989,-0.17087 0.268889,-0.39082 0.247889,-0.62536 -0.0219,-0.24389 -0.133974,-0.50543 -0.28301,-0.77654 -0.01002,-0.0189 -0.0298,-0.0305 -0.05115,-0.0302 -0.04322,6.6e-4 -0.06984,0.0476 -0.04839,0.0851 0.145604,0.26489 0.24986,0.51576 0.26921,0.73184 0.0188,0.20927 -0.03615,0.38322 -0.212079,0.53222 -0.0864,-0.006 -0.149809,-0.0432 -0.205205,-0.11538 -0.05972,-0.0778 -0.105932,-0.19652 -0.138493,-0.34348 -0.06516,-0.29391 -0.07697,-0.69762 -0.07939,-1.10933 -0.0026,-0.4117 0.0046,-0.83169 -0.02999,-1.16735 -0.0169,-0.16784 -0.04348,-0.31468 -0.08893,-0.43149 -0.04551,-0.11685 -0.113169,-0.20843 -0.214543,-0.24411 -0.07232,-0.0266 -0.110884,0.083 -0.03779,0.10742 0.05848,0.0206 0.10719,0.0777 0.146273,0.17807 0.0391,0.10029 0.0655,0.23912 0.0818,0.40149 0.03274,0.32474 0.02691,0.74342 0.02947,1.15668 0.0026,0.41328 0.01277,0.82102 0.08204,1.13336 0.03458,0.15616 0.08364,0.28913 0.15941,0.38792 0.06411,0.0835 0.155028,0.13202 0.259212,0.1485 0.08616,1.06728 -0.06274,2.14306 -0.106961,2.97897 -0.02227,0.42295 -0.0184,0.78447 0.0632,1.05887 0.08147,0.27407 0.254045,0.46394 0.540656,0.5042 0.11478,0.0184 0.21922,-0.0177 0.29457,-0.0958 0.0755,-0.0782 0.12588,-0.19271 0.16296,-0.33657 0.0742,-0.28775 0.0934,-0.69898 0.0878,-1.19558 -0.0115,-0.99324 -0.12497,-2.32514 -0.1365,-3.63168 -0.0115,-1.30651 0.0812,-2.58747 0.4722,-3.46783 0.19548,-0.44018 0.46348,-0.77878 0.82811,-0.97838 0.35522,-0.19445 0.80637,-0.25808 1.38321,-0.14695 l 0.0747,18.60541 c -0.007,0.66722 -0.42424,1.17074 -1.06309,1.52217 -0.63909,0.35153 -1.49674,0.54273 -2.355381,0.57088 -0.858637,0.0282 -1.718277,-0.10685 -2.360498,-0.39837 -0.642215,-0.29152 -1.061111,-0.73063 -1.073992,-1.32165 l 0.08388,-9.19498 c 1.9e-4,-0.003 1.9e-4,-0.005 0,-0.008 0,-2e-4 0,-3.9e-4 0,-5.9e-4 l -0.03995,-3.13392 c 0.345715,-0.32025 0.49424,-0.69571 0.534875,-1.0902 0.04054,-0.3945 -0.02083,-0.80829 -0.08203,-1.21826 0.372296,-0.31632 0.496539,-0.86716 0.590002,-1.39368 0.04787,-0.26988 0.08813,-0.53361 0.146731,-0.75541 0.05861,-0.2218 0.136404,-0.39933 0.248322,-0.50109 0.03903,-0.0344 0.01532,-0.0987 -0.03667,-0.0996 -0.0148,-2.5e-4 -0.02914,0.005 -0.03995,0.0155 -0.140084,0.12739 -0.220679,0.3254 -0.281654,0.55622 -0.06097,0.23082 -0.101447,0.49669 -0.148958,0.76475 -0.09513,0.53612 -0.222617,1.07504 -0.572667,1.35143 l -0.026,0.0204 0.0059,0.0327 c 0.06247,0.41848 0.124124,0.83278 0.08467,1.21538 -0.03942,0.38261 -0.176253,0.73264 -0.516643,1.03819 l -0.01912,0.0171 0.03962,3.10012 c -0.198466,-0.0777 -0.330069,-0.19465 -0.417718,-0.34103 -0.09834,-0.16421 -0.140987,-0.36812 -0.14694,-0.59468 -0.01198,-0.4531 0.12383,-0.9911 0.219638,-1.45279 0.0039,-0.0174 -0.0013,-0.0356 -0.0127,-0.049 -0.205191,-0.23614 -0.226396,-0.50189 -0.166508,-0.79943 0.05985,-0.29754 0.204903,-0.61968 0.326572,-0.94081 0.0046,-0.0119 0.0046,-0.0249 5.83e-4,-0.0369 -0.41278,-1.33982 -0.476885,-2.66704 0.294569,-4.00004 0.01257,-0.0218 0.0093,-0.0493 -0.008,-0.0675 -0.311608,-0.32893 -0.483709,-0.6266 -0.542418,-0.89421 -0.05868,-0.26761 -0.0071,-0.5068 0.137831,-0.7343 0.290567,-0.45496 0.971531,-0.85177 1.882087,-1.20091 0.01067,-0.004 0.01984,-0.0113 0.02639,-0.0207 0.22956,-0.33133 0.482269,-0.63717 1.002605,-0.83012 0.273554,-0.10134 0.625005,-0.16975 1.083552,-0.19096 0.0231,0.0906 0.0446,0.18234 0.0635,0.27567 -0.3409,0.0519 -0.65651,0.12873 -0.926593,0.25076 -0.357436,0.16151 -0.634389,0.40792 -0.774525,0.7732 -0.810864,0.25795 -1.314253,0.52245 -1.567073,0.78075 -0.127923,0.1307 -0.19455,0.26321 -0.195192,0.39304 -5.83e-4,0.12984 0.06662,0.24843 0.179193,0.34549 0.02816,0.0244 0.0594,0.0477 0.09318,0.0699 0.0096,0.0136 0.02475,0.0223 0.04132,0.0238 0.237405,0.14182 0.592039,0.23861 1.035074,0.28345 0.535346,0.054 1.196964,0.03 1.921446,-0.10042 0.007,-0.001 0.0133,-0.003 0.0192,-0.007 0.52755,-0.3193 0.81898,-0.6545 1.19137,-0.93927 0.37241,-0.28476 0.82785,-0.52547 1.7018,-0.6687 0.0136,-0.002 0.0259,-0.009 0.0347,-0.02 0.0853,-0.1026 0.14289,-0.20449 0.16452,-0.30791 0.0216,-0.1035 0.005,-0.20809 -0.0547,-0.30167 -0.11787,-0.18716 -0.38407,-0.33443 -0.82654,-0.46152 -0.0731,-0.0211 -0.10471,0.0885 -0.0316,0.1096 0.43103,0.1238 0.67212,0.27049 0.76164,0.41261 0.0448,0.071 0.0559,0.13977 0.0396,0.21764 -0.0155,0.0735 -0.0628,0.15676 -0.13295,0.24431 -0.63055,0.10616 -1.05355,0.2668 -1.38387,0.45751 -0.007,-0.006 -0.0148,-0.01 -0.0234,-0.012 -0.34018,-0.0818 -0.66922,-0.14155 -0.98661,-0.17808 0.0391,-0.46917 0.008,-0.88832 -0.0614,-1.27807 0.0557,-0.007 0.10972,-0.0151 0.16652,-0.0209 0.0746,-0.006 0.0677,-0.11723 -0.007,-0.11386 -0.001,8e-5 -0.003,2.2e-4 -0.005,4.2e-4 -0.0597,0.006 -0.11704,0.0145 -0.17563,0.0219 -0.0173,-0.0867 -0.0366,-0.17218 -0.0573,-0.25634 0.0515,-5.8e-4 0.10167,-0.003 0.15583,-0.003 z m -0.27501,0.39594 c 0.068,0.37675 0.0977,0.78011 0.0599,1.23338 -0.26958,-0.0229 -0.530683,-0.0286 -0.781401,-0.0138 -0.20083,0.0118 -0.395216,0.0363 -0.583126,0.0741 -0.734257,0.14717 -1.366426,0.49967 -1.867863,1.09444 -0.02056,-0.0144 -0.04126,-0.0288 -0.05842,-0.0436 -0.09558,-0.0824 -0.140077,-0.16748 -0.139625,-0.25855 4.39e-4,-0.0911 0.04787,-0.19653 0.162742,-0.31389 0.229769,-0.23475 0.724323,-0.50309 1.543727,-0.7612 0.01696,-0.005 0.03039,-0.0183 0.03641,-0.0351 0.125016,-0.34887 0.379362,-0.57666 0.726733,-0.73362 0.257025,-0.11613 0.564796,-0.19089 0.901033,-0.24208 z m -0.415722,1.3252 c 0.150552,3.4e-4 0.305782,0.009 0.463302,0.0226 -0.0176,0.1654 -0.0422,0.33591 -0.0789,0.51554 -0.0259,0.13021 0.16889,0.16996 0.19608,0.04 0.0382,-0.18687 0.0637,-0.36455 0.0818,-0.5371 0.28646,0.0329 0.58385,0.0863 0.8908,0.15715 -0.0735,0.0477 -0.14424,0.0964 -0.21031,0.14697 -0.38118,0.29149 -0.66595,0.61755 -1.1729,0.92636 -0.710374,0.12689 -1.358811,0.1504 -1.878531,0.0979 -0.407325,-0.0413 -0.734323,-0.13124 -0.949934,-0.24676 0.483349,-0.56757 1.084936,-0.90096 1.791826,-1.04263 0.273528,-0.0549 0.562942,-0.0808 0.866784,-0.08 z m 3.418692,20.1638 c 0.18869,0.35898 0.47816,0.74679 0.60025,1.13734 0.0661,0.21136 0.0838,0.42055 0.0147,0.62958 -0.069,0.20904 -0.22593,0.42152 -0.52176,0.63403 l -0.0242,0.0172 5.9e-4,0.0295 c 0.5531,13.06745 1.48014,17.13766 2.27957,18.89176 0.39971,0.87704 0.76454,1.17009 1.02351,1.69934 0.25898,0.52924 0.42509,1.31157 0.42929,3.18681 0.005,2.01632 0.0142,3.8576 0.025,5.67115 -2.60524,1.84962 -5.06888,2.46541 -7.451406,2.32249 -2.385756,-0.14311 -4.691618,-1.04852 -6.969216,-2.24623 l 0.008,-6.37765 c 0.0026,-1.6971 0.189376,-2.49848 0.48086,-3.12146 0.291497,-0.62298 0.695253,-1.07665 1.126455,-2.05949 0.862409,-1.96569 1.825538,-6.03254 2.255561,-17.866 l 4.32e-4,-0.0159 -0.007,-0.0135 c -0.207327,-0.35988 -0.482982,-0.70819 -0.559544,-1.08868 -0.0748,-0.37142 0.02816,-0.78049 0.583565,-1.29649 0.187883,0.36293 0.544514,0.64827 0.99506,0.85277 0.664861,0.30179 1.538455,0.43701 2.411403,0.40838 0.87296,-0.0285 1.74517,-0.2211 2.40652,-0.58489 0.38252,-0.21041 0.69482,-0.48124 0.89214,-0.81011 z m -0.53598,2.57636 c -0.008,1e-5 -0.0153,0.001 -0.0223,0.005 -2.07802,0.75572 -3.898209,0.63228 -5.578883,2.4e-4 -0.0071,-0.003 -0.0146,-0.005 -0.02227,-0.005 -0.0632,0.001 -0.07733,0.0893 -0.01781,0.11052 1.701518,0.63991 3.555903,0.76462 5.657803,2.3e-4 0.0609,-0.02 0.0473,-0.10985 -0.0168,-0.11098 z m 4.36419,29.44773 c 0.0207,3.48371 0.0443,6.89342 0.0411,11.24581 -2.96137,1.75845 -5.52442,2.23181 -7.882696,2.02837 -2.337512,-0.20167 -4.47534,-1.06977 -6.594406,-2.01682 l 0.0146,-11.19 c 2.268384,1.18848 4.57198,2.08945 6.962995,2.23289 2.386407,0.14315 4.858637,-0.47208 7.458307,-2.30025 z m 0.0413,11.36741 c -0.003,2.35032 -0.0117,4.96902 -0.0343,8.04209 -0.0276,1.38332 -0.88679,2.36583 -2.18775,2.98719 -1.30118,0.62145 -3.04177,0.87271 -4.80214,0.7752 -1.76037,-0.0976 -3.540532,-0.54345 -4.921955,-1.30742 -1.380663,-0.76351 -2.359693,-1.84053 -2.541007,-3.20438 l 0.0092,-7.28757 c 2.107422,0.94069 4.243547,1.80475 6.585513,2.00681 2.364339,0.20397 4.937449,-0.27026 7.892049,-2.01192 z"
       id="path906-9"
       inkscape:connector-curvature="0"
       sodipodi:nodetypes="cccccccccccccccccccccccccccccccccccccccccccscccccccccccccccccccccccccccccccccccccccccccccccccccccccccccccccccccccccccccccccccccccccccccccccccccccccccccccccccccccccccccccccccccccccccccccccccccccccccccccccccccccccccccccccccccccccccccccccccccccccccccccccc" />
    <path
       style="display:inline;opacity:1;fill:#c83737;fill-opacity:0.99078339;stroke:#040000;stroke-width:0.29223311;stroke-linecap:round;stroke-linejoin:round;stroke-miterlimit:4;stroke-dasharray:none;stroke-opacity:0.60784314;paint-order:normal"
       d="m 87.318579,269.37599 c -1.687223,-0.25113 -3.07063,-0.64934 -5.005775,-1.44091 l -1.297782,-0.53085 v -5.54392 -5.5439 l 1.085904,0.51834 c 4.052024,1.93417 7.580692,2.18303 10.846892,0.765 0.51655,-0.22425 1.25424,-0.60063 1.63933,-0.83638 l 0.70014,-0.42866 0.0675,1.01728 c 0.0371,0.5595 0.0677,3.04614 0.0679,5.52589 l 4.4e-4,4.50863 -0.82106,0.4316 c -1.94826,1.02417 -3.69975,1.51061 -5.64142,1.56684 -0.728347,0.021 -1.467293,0.017 -1.642092,-0.009 z"
       id="path2620"
       inkscape:connector-curvature="0" />
    <path
       style="display:inline;opacity:1;fill:#a05a2c;fill-opacity:0.99078339;stroke:#040000;stroke-width:0.29223311;stroke-linecap:round;stroke-linejoin:round;stroke-miterlimit:4;stroke-dasharray:none;stroke-opacity:0.60784314;paint-order:normal"
       d="m 86.57698,258.14734 c -1.145059,-0.21447 -3.039968,-0.86182 -4.423094,-1.511 l -1.138864,-0.53455 5.83e-4,-3.42178 c 4.19e-4,-1.88198 0.04708,-3.85082 0.103509,-4.37524 0.09536,-0.88657 0.157713,-1.06127 0.887943,-2.48963 0.431948,-0.84489 0.904917,-1.91756 1.051072,-2.3837 0.869692,-2.77382 1.395634,-7.15322 1.766541,-14.70932 l 0.098,-1.99629 -0.322539,-0.61535 c -0.352335,-0.67212 -0.349912,-1.00548 0.01035,-1.47858 l 0.197956,-0.2597 0.429341,0.38789 c 0.625483,0.5651 1.385379,0.76748 2.874751,0.76565 1.439679,-0.003 2.355019,-0.25663 3.046049,-0.84812 0.46367,-0.3969 0.49065,-0.38904 0.8076,0.23518 0.25727,0.50666 0.21976,1.01833 -0.10272,1.40156 l -0.27485,0.32664 0.11834,2.25058 c 0.54223,10.31316 1.26684,15.19915 2.55926,17.25715 0.60693,0.96643 0.8368,1.49518 0.94973,2.18465 0.0547,0.33388 0.0997,2.21259 0.10006,4.17491 l 5.8e-4,3.56789 -0.62854,0.38181 c -1.04539,0.63503 -2.55053,1.29999 -3.50322,1.54767 -1.17058,0.30434 -3.377827,0.37221 -4.608478,0.14168 z m 3.896408,-31.07786 c 1.02489,-0.32591 0.79426,-0.43647 -0.31512,-0.15109 -1.25815,0.32368 -2.618303,0.32418 -3.872634,5.9e-4 -0.877269,-0.22572 -1.26663,-0.19505 -0.635653,0.0501 1.206847,0.46884 3.512477,0.51642 4.823407,0.0995 z"
       id="path2622"
       inkscape:connector-curvature="0" />
    <path
       style="display:inline;opacity:1;fill:#a05a2b;fill-opacity:0.99215686;stroke:#040000;stroke-width:0.29223311;stroke-linecap:round;stroke-linejoin:round;stroke-miterlimit:4;stroke-dasharray:none;stroke-opacity:0.60784314;paint-order:normal"
       d="m 86.962151,279.12947 c -2.675735,-0.46899 -4.88203,-1.75349 -5.633392,-3.27977 -0.260575,-0.52931 -0.260791,-0.53258 -0.29102,-4.3701 -0.0167,-2.11222 -0.0092,-3.8404 0.0167,-3.8404 0.02574,0 0.349283,0.13559 0.718894,0.30132 4.867118,2.18236 8.596745,2.228 12.733015,0.15585 l 0.9371,-0.46944 -0.0365,4.2703 -0.0365,4.2703 -0.29451,0.5997 c -0.51273,1.04407 -1.59729,1.78919 -3.23935,2.22547 -1.0805,0.28709 -3.611335,0.35809 -4.874167,0.13677 z"
       id="path2624"
       inkscape:connector-curvature="0" />
    <path
       style="display:inline;opacity:1;fill:#ffeeaa;fill-opacity:0.99078339;stroke:#040000;stroke-width:0.29223311;stroke-linecap:round;stroke-linejoin:round;stroke-miterlimit:4;stroke-dasharray:none;stroke-opacity:0.94470047;paint-order:normal"
       d="m 86.654334,225.21061 c -0.758861,-0.21319 -1.1139,-0.41019 -1.441979,-0.80009 l -0.27747,-0.32976 v -6.30304 -6.30305 l 0.272113,-0.46434 c 0.23011,-0.39266 0.268492,-0.57626 0.248597,-1.18962 -0.01729,-0.53407 0.02377,-0.79754 0.156056,-0.99936 0.09881,-0.15075 0.255119,-0.64888 0.347469,-1.107 0.09238,-0.45811 0.234596,-0.96403 0.316134,-1.12425 0.129318,-0.25415 0.128002,-0.29134 -0.01035,-0.29134 -0.154249,0 -0.255748,0.28753 -0.579694,1.64209 -0.06972,0.29135 -0.204301,0.64877 -0.299166,0.79428 -0.121027,0.18563 -0.17455,0.51755 -0.179363,1.11239 -0.0059,0.70268 -0.04767,0.90504 -0.245257,1.182 -0.219121,0.3072 -0.238374,0.45048 -0.238374,1.77454 0,0.79219 -0.03995,1.44034 -0.08893,1.44034 -0.14235,0 -0.335046,-0.50979 -0.33223,-0.87899 5.83e-4,-0.18664 0.05043,-0.54681 0.108912,-0.80038 0.07583,-0.32902 0.07077,-0.55929 -0.01781,-0.80416 -0.102134,-0.28243 -0.09042,-0.45033 0.06677,-0.94947 0.161813,-0.51445 0.172153,-0.6868 0.06811,-1.13735 -0.189939,-0.82291 -0.147582,-1.96387 0.09777,-2.6337 0.117379,-0.32049 0.238622,-0.65866 0.269408,-0.75153 0.03091,-0.0928 -0.06677,-0.34982 -0.216894,-0.571 -0.150097,-0.22117 -0.272892,-0.53684 -0.272892,-0.70148 0,-0.43628 0.51528,-0.95998 1.347598,-1.36963 0.395046,-0.19441 0.805914,-0.46483 0.913025,-0.60089 0.252336,-0.32055 0.695528,-0.54568 1.294443,-0.65756 0.631198,-0.11792 0.578378,0.0805 -0.07193,0.27013 -0.303547,0.0885 -0.614795,0.287 -0.851905,0.54325 -0.20808,0.22489 -0.570035,0.46864 -0.816981,0.55012 -0.243862,0.0805 -0.616315,0.29582 -0.827662,0.47852 -0.313953,0.27138 -0.371955,0.38129 -0.316939,0.60051 0.127733,0.50888 1.218916,0.7958 2.551518,0.67092 0.758767,-0.0711 0.814147,-0.0958 1.563697,-0.69697 0.56326,-0.45176 0.98112,-0.68906 1.51867,-0.86242 0.69788,-0.22506 0.74351,-0.25912 0.77438,-0.57809 0.0292,-0.30188 -0.0137,-0.36268 -0.39306,-0.55619 -0.45321,-0.2312 -0.64618,-0.27056 -0.64618,-0.13171 0,0.0471 0.19339,0.17088 0.42979,0.27518 0.59665,0.26324 0.54964,0.57613 -0.11202,0.74524 -0.26221,0.067 -0.56434,0.17161 -0.67142,0.23244 -0.13151,0.0747 -0.3636,0.0772 -0.71511,0.007 l -0.52044,-0.10295 v -0.54744 c 0,-0.30111 0.0572,-0.60468 0.12714,-0.6746 0.0989,-0.0989 0.0872,-0.12714 -0.053,-0.12714 -0.099,0 -0.18011,-0.0537 -0.18011,-0.11958 0,-0.12305 0.20248,-0.10903 1.92527,0.13321 1.06591,0.1499 1.30204,0.35118 1.22042,1.04037 -0.032,0.27063 -0.11247,0.61101 -0.1787,0.75637 -0.1018,0.22334 -0.17769,0.25763 -0.48991,0.22118 -0.49255,-0.0575 -1.24459,0.24181 -1.56533,0.62298 -0.72948,0.86694 -0.98466,2.64808 -0.83616,5.8363 0.13907,2.98625 0.0167,3.78469 -0.50116,3.26694 -0.231696,-0.23169 -0.233844,-0.26184 -0.157898,-2.2089 0.04244,-1.0857 0.119438,-2.05429 0.171328,-2.15243 0.14269,-0.26995 0.11351,-0.69554 -0.07239,-1.05502 -0.21844,-0.4224 -0.312578,-0.31524 -0.151597,0.17255 0.06959,0.21094 0.09547,0.50762 0.0573,0.65929 -0.06424,0.25589 -0.0818,0.26321 -0.243436,0.10144 -0.137098,-0.13711 -0.186941,-0.47355 -0.233915,-1.57916 -0.06182,-1.45352 -0.11271,-1.66983 -0.393317,-1.66983 -0.1414,0 -0.144576,0.0253 -0.02161,0.17351 0.09674,0.11651 0.163764,0.62074 0.204189,1.53516 0.05298,1.19758 0.08939,1.4011 0.302257,1.68906 0.238662,0.3228 0.240987,0.35478 0.16584,2.26984 l -0.07628,1.94242 0.273777,0.27377 c 0.344476,0.34449 0.548956,0.34612 0.771706,0.006 0.15076,-0.23011 0.16967,-0.53087 0.13486,-2.14533 -0.0644,-2.98626 -0.0276,-4.68948 0.11599,-5.37379 0.30136,-1.43606 0.85996,-2.07871 1.82898,-2.10419 l 0.55717,-0.0145 0.027,9.49178 0.027,9.4918 -0.24143,0.35829 c -0.52584,0.78029 -1.48211,1.15736 -3.096863,1.22113 -0.728507,0.0288 -1.233807,-0.007 -1.61772,-0.115 z"
       id="path2626"
       inkscape:connector-curvature="0" />
    <path
       style="display:inline;opacity:1;fill:#ffe680;fill-opacity:0.99078339;stroke:#040000;stroke-width:0.29223311;stroke-linecap:round;stroke-linejoin:round;stroke-miterlimit:4;stroke-dasharray:none;stroke-opacity:0.96313363;paint-order:normal"
       d="m 85.313363,204.93975 c -0.145415,-0.15692 -0.119803,-0.30521 0.08846,-0.51215 0.229566,-0.22807 0.63693,-0.44355 1.228968,-0.65006 l 0.310541,-0.10834 0.08112,-0.16237 c 0.108682,-0.2175 0.361843,-0.45276 0.621697,-0.57774 0.189488,-0.0911 0.746199,-0.25091 0.874279,-0.25091 0.0785,0 0.0873,0.056 0.10937,0.69095 l 0.0171,0.4923 -0.473726,4.3e-4 c -0.730407,5.9e-4 -1.212381,0.10179 -1.745009,0.36605 -0.334667,0.16603 -0.586498,0.34658 -0.839646,0.60192 -0.09766,0.0985 -0.184609,0.17905 -0.193279,0.17905 -0.008,0 -0.04473,-0.0312 -0.07985,-0.0692 z"
       id="path2628"
       inkscape:connector-curvature="0" />
    <path
       style="display:inline;opacity:1;fill:#ffcc00;fill-opacity:0.99078339;stroke:#040000;stroke-width:0.29223311;stroke-linecap:round;stroke-linejoin:round;stroke-miterlimit:4;stroke-dasharray:none;stroke-opacity:0.60784314;paint-order:normal"
       d="m 86.349582,205.3246 c -0.341674,-0.0466 -0.810655,-0.18193 -0.810655,-0.23379 0,-0.0115 0.08042,-0.0977 0.178761,-0.19233 0.475595,-0.45778 1.015977,-0.72649 1.697707,-0.84414 0.371458,-0.0641 1.195843,-0.0757 1.195843,-0.0168 0,0.0192 -0.0189,0.14498 -0.0419,0.27932 -0.046,0.26831 -0.0322,0.32127 0.084,0.32127 0.084,0 0.10536,-0.0504 0.1452,-0.34431 0.0187,-0.13839 0.0361,-0.25474 0.0385,-0.25857 0.008,-0.0124 0.78887,0.12549 0.8049,0.1421 0.008,0.009 -0.0257,0.0475 -0.0763,0.0862 -0.0504,0.0385 -0.19738,0.15945 -0.32646,0.26869 -0.80031,0.67728 -0.8311,0.69648 -1.210667,0.75493 -0.352361,0.0542 -1.387179,0.0774 -1.678971,0.0375 z"
       id="path2630"
       inkscape:connector-curvature="0" />
    <path
       style="display:inline;fill:#cccccc;fill-opacity:0.67281105;stroke:none;stroke-width:0.30994573;stroke-linecap:round;stroke-linejoin:round;stroke-miterlimit:4;stroke-dasharray:none;stroke-opacity:1"
       d="m 26.029905,259.57598 c -0.56625,-0.003 -1.130017,0.0798 -1.691473,0.26095 -0.09116,0.0329 -0.877446,0.244 -1.886632,0.1017 -1.481723,-0.20888 -1.37818,0.32549 -1.37818,0.32549 -1.537681,-0.10943 -2.225983,-0.0126 -2.089318,0.28482 -1.978661,-0.0466 -1.48202,0.22351 -2.140292,0.34582 -1.135261,-0.16787 -1.927561,0.0552 -2.588833,0.4272 -1.617127,0.15595 -1.86214,0.65767 -0.897589,1.46448 -0.268684,0.36696 0.14767,0.71795 1.032759,1.05783 -0.307477,0.35773 0.33876,0.67225 1.221115,0.97624 1.042428,0.74582 2.140781,1.39721 3.70673,1.26125 l 0.232414,-0.0428 8.498915,9.10751 c -0.60046,0.59053 -0.852448,1.49407 1.311273,1.65653 8.017643,0.52247 13.235865,0.63041 20.399533,0.0407 2.511021,-0.26872 0.876594,-1.10715 -0.485942,-1.72586 l -1.244555,-1.53469 c 3.818018,-0.25624 9.690426,0.82617 5.522601,-4.63338 -3.243798,-4.88798 -8.06981,-4.78902 -12.948559,-4.52443 l -1.103619,-1.3608 c -0.173312,-0.21376 -0.540283,-0.38172 -1.286374,-0.46022 0.413461,-0.59708 -0.585261,-0.94921 -2.515998,-1.13986 -0.543604,-0.30079 -1.155302,-0.55579 -2.214468,-0.50858 -0.793818,-0.31336 -1.584984,-0.53796 -2.368324,-0.44754 -1.043351,-0.6116 -1.947279,-0.45091 -2.890448,-0.50857 -0.734919,-0.27034 -1.466707,-0.41903 -2.194736,-0.42369 z"
       id="path3252-9"
       inkscape:connector-curvature="0" />
    <path
       style="color:#000000;font-style:normal;font-variant:normal;font-weight:normal;font-stretch:normal;font-size:medium;line-height:normal;font-family:sans-serif;font-variant-ligatures:normal;font-variant-position:normal;font-variant-caps:normal;font-variant-numeric:normal;font-variant-alternates:normal;font-feature-settings:normal;text-indent:0;text-align:start;text-decoration:none;text-decoration-line:none;text-decoration-style:solid;text-decoration-color:#000000;letter-spacing:normal;word-spacing:normal;text-transform:none;writing-mode:lr-tb;direction:ltr;text-orientation:mixed;dominant-baseline:auto;baseline-shift:baseline;text-anchor:start;white-space:normal;shape-padding:0;clip-rule:nonzero;display:inline;overflow:visible;visibility:visible;opacity:1;isolation:auto;mix-blend-mode:normal;color-interpolation:sRGB;color-interpolation-filters:linearRGB;solid-color:#000000;solid-opacity:1;vector-effect:none;fill:#000000;fill-opacity:1;fill-rule:nonzero;stroke:none;stroke-width:0.49562815;stroke-linecap:round;stroke-linejoin:round;stroke-miterlimit:4;stroke-dasharray:none;stroke-dashoffset:0;stroke-opacity:1;color-rendering:auto;image-rendering:auto;shape-rendering:auto;text-rendering:auto;enable-background:accumulate"
       d="m 40.417882,233.07103 c -0.626629,-0.0108 -1.311993,0.22601 -2.05925,0.70619 a 0.24783885,0.24783885 0 0 0 -0.0084,0.005 c -0.0069,0.005 -0.288583,0.17068 -0.623976,0.26167 -0.335394,0.091 -0.742719,0.12534 -1.115446,-0.0279 -0.725469,-0.29837 -1.291653,-0.0514 -1.594624,0.27677 -0.172579,0.18691 -0.267359,0.3725 -0.327083,0.51663 -0.634756,-0.10463 -1.16597,-0.12224 -1.573936,0.005 -0.379316,0.11884 -0.624776,0.40268 -0.752011,0.75034 -0.862194,-0.0292 -1.354665,0.10138 -1.656129,0.31869 -0.308603,0.22246 -0.41614,0.41746 -0.695548,0.54739 -0.509557,-0.17268 -1.030634,-0.14811 -1.519687,0.0576 -0.527991,0.22207 -1.030181,0.61312 -1.525855,1.08637 -0.876902,0.22034 -1.540046,0.66321 -1.921143,1.33071 -0.384372,0.67324 -0.485046,1.54343 -0.369022,2.56974 -0.552268,0.93898 -0.456689,1.89883 0.07996,2.76486 -0.261838,0.45536 -0.347659,0.91649 -0.253285,1.34078 0.100438,0.45153 0.356035,0.85664 0.656969,1.24348 0.192893,0.94123 0.41705,1.83524 0.835331,2.48922 0.213102,0.3332 0.482805,0.60733 0.827498,0.76881 0.339401,0.15897 0.743576,0.19984 1.197082,0.11014 l 0.493146,22.85693 c -0.554226,0.76094 -1.086736,1.68992 -1.242923,2.55071 -0.08064,0.44438 -0.0611,0.88139 0.146482,1.24854 0.207595,0.36713 0.59972,0.63151 1.153474,0.74531 a 0.24783885,0.24783885 0 0 0 0.0067,0.002 c 7.572054,1.33782 12.746917,1.6154 20.454392,0.10289 a 0.24783885,0.24783885 0 0 0 0.01231,-0.003 c 0.719241,-0.17986 1.227822,-0.46205 1.559398,-0.83141 0.331576,-0.36939 0.471182,-0.8194 0.480284,-1.27425 0.01775,-0.88694 -0.415753,-1.81009 -0.820792,-2.596 l 0.09619,-3.65779 c 1.893737,-0.24777 4.078984,0.21331 5.927273,-0.9164 0.96994,-0.59285 1.815486,-1.62752 2.447832,-3.37878 0.632078,-1.75049 1.061747,-4.22409 1.220003,-7.74832 1.31e-4,-0.001 5.51e-4,-0.002 5.51e-4,-0.005 0.26506,-3.16958 0.150804,-5.53483 -0.261662,-7.29934 -0.412983,-1.76665 -1.132604,-2.93941 -2.070998,-3.67623 -0.938394,-0.73684 -2.065275,-1.02917 -3.281493,-1.09422 -1.071549,-0.0574 -2.212549,0.0636 -3.354746,0.21136 l 0.08385,-3.18924 c 0.0075,-0.30808 -0.05036,-0.61066 -0.22476,-0.86497 -0.126973,-0.18504 -0.312708,-0.33502 -0.549615,-0.44617 0.363317,-0.70167 0.407737,-1.33436 0.114066,-1.84232 -0.312513,-0.54049 -0.956594,-0.88464 -1.798702,-1.13446 -0.13774,-0.36022 -0.30487,-0.7126 -0.59604,-0.97622 -0.28819,-0.26094 -0.708514,-0.38807 -1.224476,-0.36791 -0.249114,-0.37052 -0.519033,-0.70533 -0.854891,-0.92982 -0.315636,-0.21098 -0.703524,-0.28508 -1.117686,-0.22757 -0.279166,-0.68435 -0.697093,-1.0559 -1.152361,-1.17192 -0.476866,-0.12152 -0.936063,-0.0672 -1.320088,-0.11742 -0.4546,-0.58723 -1.005231,-0.98538 -1.661152,-1.07295 -0.08712,-0.0117 -0.1755,-0.0181 -0.265027,-0.0196 z m -0.009,0.49594 c 0.07136,0.001 0.140804,0.007 0.208545,0.0151 0.541927,0.0724 1.001891,0.38745 1.417388,0.96449 a 0.24783885,0.24783885 0 0 0 0.16102,0.10008 c 0.49813,0.0822 0.975009,0.0201 1.345805,0.11462 0.370809,0.0945 0.666596,0.28899 0.902429,1.01704 a 0.24783885,0.24783885 0 0 0 0.299689,0.16271 c 0.368092,-0.0986 0.640637,-0.032 0.915284,0.15152 0.274641,0.18358 0.537815,0.50097 0.78837,0.8879 a 0.24783885,0.24783885 0 0 0 0.235388,0.11125 c 0.499138,-0.0547 0.779594,0.0561 0.998033,0.25385 0.218433,0.19778 0.374496,0.51356 0.509361,0.88453 a 0.24783885,0.24783885 0 0 0 0.167176,0.15432 c 0.851905,0.23543 1.400028,0.56823 1.622024,0.95218 0.202585,0.35041 0.191065,0.7892 -0.148735,1.41122 -0.703027,-0.28218 -1.489635,-0.40079 -2.326511,-0.41989 -0.921073,-0.021 -1.900809,0.0743 -2.888987,0.19122 a 0.24783885,0.24783885 0 0 0 -0.207995,0.175 c -0.209245,0.70124 -0.687296,1.20063 -1.174155,1.45875 -0.486866,0.25815 -0.947746,0.24644 -1.147319,0.0727 a 0.24783885,0.24783885 0 0 0 -0.396421,0.10506 c -0.142468,0.40919 -0.470965,0.70173 -0.834211,0.84763 -0.363245,0.14591 -0.745331,0.12974 -0.96728,-0.0118 a 0.24783885,0.24783885 0 0 0 -0.24322,-0.0129 c -0.522793,0.25963 -0.962311,0.53196 -1.33071,0.66145 -0.368406,0.12946 -0.627618,0.14117 -0.951629,-0.09 a 0.24783885,0.24783885 0 0 0 -0.346658,0.0593 c -0.380979,0.54137 -0.718435,0.81917 -0.987412,0.92031 -0.268976,0.10117 -0.481901,0.0603 -0.734126,-0.10343 a 0.24783885,0.24783885 0 0 0 -0.180594,-0.0358 c -0.47646,0.0896 -0.916456,0.16347 -1.259145,0.0632 -0.342696,-0.10031 -0.641822,-0.35014 -0.886771,-1.0752 a 0.24783885,0.24783885 0 0 0 -0.228097,-0.16833 c -0.901224,-0.0248 -1.349459,-0.39905 -1.613622,-1.09084 a 0.24783885,0.24783885 0 0 0 -0.237627,-0.15935 l -2.794496,0.0738 a 0.24783885,0.24783885 0 0 0 -0.24098,0.25271 l 0.155991,7.23785 a 0.24783885,0.24783885 0 0 0 -0.06878,0.007 c -0.380501,0.0784 -0.667264,0.0415 -0.907452,-0.071 -0.240181,-0.11251 -0.442367,-0.30868 -0.620067,-0.58652 -0.3554,-0.55569 -0.587179,-1.42738 -0.779411,-2.37292 a 0.24783885,0.24783885 0 0 0 -0.04859,-0.10452 c -0.2969,-0.37481 -0.519643,-0.74297 -0.59826,-1.09643 -0.07863,-0.35346 -0.03399,-0.69557 0.24489,-1.10594 a 0.24783885,0.24783885 0 0 0 5.5e-4,-0.2779 c -0.550316,-0.81489 -0.645162,-1.5671 -0.09952,-2.4333 a 0.24783885,0.24783885 0 0 0 0.03635,-0.1627 c -0.123993,-0.99805 -0.01539,-1.77762 0.306953,-2.34217 0.322322,-0.56454 0.857936,-0.94074 1.685762,-1.12887 a 0.24783885,0.24783885 0 0 0 0.116842,-0.0632 c 0.482027,-0.46396 0.957439,-0.82495 1.406191,-1.01369 0.448752,-0.18874 0.857072,-0.21616 1.286545,-0.0297 a 0.24783885,0.24783885 0 0 0 0.192893,0.002 c 0.451011,-0.18416 0.611645,-0.47275 0.83309,-0.63237 0.221452,-0.15962 0.560965,-0.29154 1.501246,-0.23372 a 0.24783885,0.24783885 0 0 0 0.259991,-0.20686 c 0.04971,-0.30349 0.183253,-0.45651 0.505444,-0.55745 0.322205,-0.10094 0.843392,-0.10322 1.542627,0.0324 a 0.24783885,0.24783885 0 0 0 0.286271,-0.17893 c 0,0 0.0836,-0.29083 0.287948,-0.51216 0.204354,-0.22132 0.469361,-0.39048 1.042205,-0.15487 0.511542,0.21039 1.032173,0.15699 1.43359,0.048 0.393822,-0.1068 0.653872,-0.24862 0.770472,-0.32878 0.693701,-0.44574 1.282976,-0.6353 1.782487,-0.62733 z m -4.147013,2.75816 c -0.603525,0.0154 -1.100194,0.15307 -1.483917,0.4227 -0.438523,0.30814 -0.707702,0.78382 -0.817996,1.36034 a 0.24793925,0.24793925 0 1 0 0.487003,0.0934 c 0.09259,-0.48404 0.29153,-0.82008 0.615588,-1.04778 0.324064,-0.22772 0.794676,-0.35213 1.449248,-0.33213 a 0.24783885,0.24783885 0 1 0 0.01513,-0.49538 c -0.09056,-0.003 -0.1788,-0.003 -0.265014,-0.001 z m 7.822687,1.43191 a 0.24783885,0.24783885 0 0 0 -0.207431,0.37182 c 0.169042,0.30115 0.196809,0.51285 0.173882,0.58036 -0.01146,0.0337 -0.02331,0.053 -0.08275,0.0839 -0.05946,0.0308 -0.168695,0.0609 -0.329879,0.0699 a 0.24783885,0.24783885 0 1 0 0.02744,0.49482 c 0.206495,-0.0115 0.381634,-0.0475 0.531161,-0.12523 0.149541,-0.0777 0.270457,-0.20875 0.32318,-0.364 0.105448,-0.3105 -0.01329,-0.63056 -0.21079,-0.98237 a 0.24783885,0.24783885 0 0 0 -0.224766,-0.12916 z m -12.942573,0.18563 a 0.24783885,0.24783885 0 0 0 -0.066,0.0129 c -0.765849,0.24541 -1.069638,0.9497 -0.952749,1.53872 0.05841,0.2945 0.213835,0.5686 0.458483,0.75536 0.244641,0.18677 0.580807,0.27558 0.946594,0.20744 a 0.24783885,0.24783885 0 1 0 -0.09113,-0.487 c -0.24284,0.0452 -0.417017,-0.009 -0.554651,-0.11406 -0.137635,-0.10506 -0.236397,-0.2714 -0.27341,-0.45792 -0.07403,-0.37304 0.06509,-0.79333 0.618384,-0.97064 a 0.24783885,0.24783885 0 0 0 -0.06097,-0.48475 0.24783885,0.24783885 0 0 0 -0.02462,0 z m 10.567982,0.36511 a 0.24783885,0.24783885 0 0 0 -0.02462,5.5e-4 0.24783885,0.24783885 0 0 0 -0.22197,0.3131 c 0.09407,0.36293 0.128552,0.65934 0.11294,0.87783 -0.01559,0.21848 -0.07521,0.34981 -0.159907,0.43388 -0.0847,0.0841 -0.211694,0.14015 -0.426611,0.14985 -0.21491,0.01 -0.508437,-0.0341 -0.869443,-0.14314 a 0.24783885,0.24783885 0 1 0 -0.143129,0.47414 c 0.39538,0.11944 0.736314,0.17729 1.034936,0.16381 0.298622,-0.0134 0.564684,-0.10537 0.753701,-0.29298 0.189022,-0.18762 0.28339,-0.45172 0.304725,-0.75034 0.02135,-0.2986 -0.02475,-0.64129 -0.127484,-1.03772 a 0.24783885,0.24783885 0 0 0 -0.233155,-0.18899 z m 5.17356,0.3679 a 0.24783885,0.24783885 0 0 0 -0.24434,0.25105 c 0,0.18469 -0.02155,0.32293 -0.05036,0.40536 -0.02881,0.0824 -0.05376,0.10041 -0.06988,0.10847 -0.01611,0.008 -0.05233,0.0185 -0.142579,-0.008 -0.09021,-0.0257 -0.221865,-0.0898 -0.379637,-0.1968 a 0.24783885,0.24783885 0 1 0 -0.277889,0.40984 c 0.185355,0.12577 0.353959,0.21559 0.521102,0.26334 0.167137,0.0477 0.345531,0.0521 0.500972,-0.0257 0.155447,-0.0777 0.258983,-0.22538 0.315904,-0.38804 0.05691,-0.16266 0.07828,-0.34945 0.07828,-0.56919 a 0.24783885,0.24783885 0 0 0 -0.251596,-0.25104 z m -8.054165,0.6251 a 0.24783885,0.24783885 0 0 0 -0.235951,0.30192 c 0.06866,0.32678 0.0667,0.55005 0.03464,0.68047 -0.03202,0.1304 -0.07384,0.17114 -0.148159,0.20966 -0.14865,0.077 -0.518889,0.0576 -0.928146,-0.009 a 0.24783885,0.24783885 0 1 0 -0.0794,0.48923 c 0.418169,0.068 0.856234,0.15637 1.235661,-0.0402 0.18971,-0.0983 0.342053,-0.28994 0.40145,-0.53172 0.0594,-0.24177 0.04637,-0.53053 -0.0313,-0.90018 a 0.24783885,0.24783885 0 0 0 -0.248806,-0.20017 z m -11.168482,0.44227 a 0.24783885,0.24783885 0 0 0 -0.133627,0.0402 c -0.257574,0.1618 -0.415766,0.39402 -0.474691,0.63293 -0.05887,0.23891 -0.02691,0.47692 0.04748,0.68269 0.07444,0.20577 0.19009,0.38298 0.333796,0.51327 0.143705,0.13029 0.345596,0.23954 0.568626,0.15712 a 0.24783885,0.24783885 0 1 0 -0.172166,-0.46464 c 0.03536,-0.013 0.0069,0.005 -0.06372,-0.0599 -0.07062,-0.0641 -0.153037,-0.18295 -0.200732,-0.31478 -0.04767,-0.13184 -0.06188,-0.27314 -0.03189,-0.39475 0.02999,-0.12161 0.09595,-0.23138 0.257188,-0.33267 a 0.24783885,0.24783885 0 0 0 -0.130274,-0.45959 z m 19.828176,1.08693 c 0.85886,0.0198 1.64235,0.14215 2.30023,0.43499 a 0.24783885,0.24783885 0 0 0 0.117969,0.0459 c 0.272715,0.0877 0.431745,0.20721 0.527821,0.34723 0.100942,0.14717 0.14438,0.33252 0.1381,0.57086 l -0.231472,8.83023 c -0.0033,0.008 -0.0075,0.0151 -0.0098,0.023 l 0.0087,0.003 -0.575883,21.95283 a 0.24783885,0.24783885 0 0 0 0.02744,0.12078 c 0.405635,0.78298 0.809653,1.69298 0.795062,2.42212 -0.0075,0.36456 -0.106901,0.67817 -0.353926,0.9533 -0.246298,0.27437 -0.65505,0.51632 -1.306113,0.6799 -7.648464,1.49999 -12.718776,1.22712 -20.258132,-0.10452 -0.456375,-0.0939 -0.691435,-0.274 -0.821355,-0.50376 -0.129973,-0.22988 -0.158369,-0.54223 -0.09058,-0.91585 0.135578,-0.74724 0.658921,-1.68857 1.204345,-2.42435 a 0.24783885,0.24783885 0 0 0 0.04859,-0.15265 l -0.656387,-30.41572 2.398082,-0.0632 c 0.325708,0.69212 0.9362,1.15062 1.826088,1.22224 0.277503,0.70111 0.673165,1.11216 1.137254,1.24797 0.480959,0.14074 0.969573,0.0447 1.427447,-0.042 0.322866,0.17354 0.690761,0.24511 1.060096,0.10626 0.371294,-0.13963 0.728501,-0.46994 1.096999,-0.95722 0.391129,0.18563 0.799928,0.20409 1.178628,0.071 0.427167,-0.15013 0.849279,-0.41296 1.313375,-0.64915 0.380003,0.16813 0.828179,0.17308 1.247966,0.005 0.39851,-0.16006 0.737571,-0.48573 0.964491,-0.90354 0.419486,0.1948 0.960386,0.12172 1.46099,-0.1437 0.554128,-0.29379 1.052618,-0.85031 1.326787,-1.58734 0.937177,-0.10857 1.855519,-0.19284 2.697215,-0.17334 z m -11.011365,0.30919 a 0.24783885,0.24783885 0 0 0 -0.212467,0.36903 c 0.02364,0.0434 0.02548,0.0221 -0.02515,0.0771 -0.05056,0.055 -0.176311,0.12986 -0.328766,0.17165 -0.304903,0.0836 -0.668482,0.033 -0.814637,-0.15263 a 0.24787075,0.24787075 0 1 0 -0.389715,0.30639 c 0.328544,0.41722 0.897753,0.44437 1.335746,0.32429 0.219003,-0.0601 0.416977,-0.15697 0.561921,-0.31422 0.144936,-0.15726 0.214248,-0.43085 0.09562,-0.64915 a 0.24783885,0.24783885 0 0 0 -0.222539,-0.1325 z m -9.876907,2.72125 a 0.24783885,0.24783885 0 0 0 -0.198492,0.11742 c -0.216383,0.34129 -0.317548,0.70418 -0.24489,1.05618 0.07266,0.35201 0.309709,0.66345 0.67486,0.93095 a 0.24783885,0.24783885 0 1 0 0.293017,-0.39977 c -0.301301,-0.22074 -0.441149,-0.43079 -0.482524,-0.63126 -0.04139,-0.20045 0.0069,-0.42104 0.177805,-0.69051 a 0.24783885,0.24783885 0 0 0 -0.219723,-0.38301 z m 22.285516,0.77774 c -8.313095,1.9911 -13.602109,1.38778 -18.704333,0.0743 l -0.123568,0.48028 c 5.147377,1.32503 10.561236,1.93488 18.943087,-0.0727 z m 4.970615,1.07073 c 1.324416,0.0122 2.518074,0.25751 3.457614,0.99523 0.835154,0.65577 1.499706,1.70905 1.89487,3.39948 0.395151,1.69042 0.512943,4.01155 0.249369,7.15454 v 0.005 l -5.5e-4,0.005 c -0.156744,3.49668 -0.585542,5.9276 -1.191477,7.60574 -0.605954,1.67813 -1.378017,2.59704 -2.239857,3.12381 -1.620674,0.9906 -3.669643,0.58429 -5.656097,0.8359 l 0.07606,-2.89458 c 1.560989,0.14603 3.12892,0.0783 4.340475,-0.97679 1.312007,-1.14254 2.13422,-3.36713 2.163807,-7.50119 0.142841,-2.57041 -0.106463,-4.43258 -0.594337,-5.74946 -0.488496,-1.31863 -1.226997,-2.09663 -2.041922,-2.43889 -0.407462,-0.17114 -0.82571,-0.23434 -1.232871,-0.20968 -0.863831,0.0523 -1.675245,0.49949 -2.22196,1.1395 l 0.11182,-4.2689 c 0.995997,-0.12859 1.972531,-0.23313 2.885091,-0.22477 z m -22.894935,1.42074 a 0.17702776,0.17702776 0 0 0 -0.171092,0.18282 l 0.147045,8.38237 a 0.17702776,0.17702776 0 1 0 0.353926,-0.007 l -0.147038,-8.38233 A 0.17702776,0.17702776 0 0 0 30.961998,247.1288 Z M 53.3582,249.5618 c 0.256658,0.01 0.514502,0.0625 0.764893,0.16774 0.667676,0.28042 1.314553,0.92687 1.769055,2.15374 0.454509,1.22689 0.705692,3.02909 0.564167,5.55937 l -5.5e-4,0.007 v 0.005 c -0.02881,4.07127 -0.846293,6.13508 -1.993828,7.1344 -1.066671,0.92888 -2.482114,0.99862 -4.002213,0.85377 l 0.374614,-14.27328 c 0.392766,-0.91396 1.44632,-1.64735 2.523882,-1.60747 z m 3.947977,9.30548 a 0.17702776,0.17702776 0 0 0 -0.168302,0.16775 c -0.17641,2.60192 -0.61566,4.54587 -1.301633,5.79643 -0.685974,1.25055 -1.581985,1.81022 -2.774378,1.73383 a 0.17704212,0.17704212 0 1 0 -0.0224,0.35336 c 1.319151,0.0845 2.377846,-0.58784 3.10706,-1.91723 0.729209,-1.32939 1.165852,-3.31311 1.344128,-5.94235 a 0.17702776,0.17702776 0 0 0 -0.18451,-0.19179 z m -25.520054,0.5664 c -0.05566,-10e-4 -0.110379,0.002 -0.16438,0.0117 -0.216023,0.0368 -0.406329,0.15571 -0.56416,0.32541 -0.315656,0.33939 -0.528876,0.88016 -0.689392,1.55437 -0.321052,1.34841 -0.410029,3.24291 -0.344981,5.0869 0.06509,1.84397 0.284025,3.6296 0.601056,4.76148 0.158512,0.56595 0.314182,0.97126 0.589878,1.16968 0.137844,0.0992 0.343926,0.11261 0.494265,0.0174 0.150327,-0.0953 0.26212,-0.25699 0.374608,-0.48869 a 0.17702776,0.17702776 0 1 0 -0.318138,-0.15431 c -0.09787,0.20157 -0.193607,0.31064 -0.246016,0.34386 -0.05239,0.0333 -0.04473,0.0326 -0.09784,-0.005 -0.106201,-0.0764 -0.304602,-0.43847 -0.455694,-0.9779 -0.302178,-1.07886 -0.52386,-2.85447 -0.588188,-4.67817 -0.06437,-1.82372 0.02842,-3.70356 0.335466,-4.99297 0.153502,-0.64471 0.365956,-1.13923 0.603858,-1.39502 0.118952,-0.12789 0.237628,-0.1959 0.364542,-0.21749 0.126928,-0.0215 0.272827,10e-4 0.454011,0.0978 a 0.17702776,0.17702776 0 1 0 0.166056,-0.31255 c -0.174072,-0.0925 -0.347908,-0.14228 -0.514946,-0.14593 z m 10.602651,0.23875 c -0.05573,-0.001 -0.110379,0.002 -0.164393,0.0119 -0.216016,0.0368 -0.406322,0.15571 -0.564147,0.32541 -0.315662,0.33937 -0.528876,0.88015 -0.689405,1.55435 -0.321045,1.34841 -0.410029,3.24292 -0.344974,5.0869 0.06509,1.84399 0.284031,3.62962 0.601056,4.7615 0.158512,0.56593 0.314188,0.97126 0.589877,1.16968 0.137844,0.0992 0.343927,0.11262 0.494266,0.0173 0.150333,-0.0953 0.26212,-0.25699 0.374614,-0.48867 a 0.17705404,0.17705404 0 1 0 -0.318708,-0.15433 c -0.09786,0.20157 -0.193043,0.31122 -0.245453,0.34441 -0.05239,0.0333 -0.04473,0.032 -0.09784,-0.007 -0.106181,-0.0764 -0.304595,-0.43847 -0.45568,-0.9779 -0.302185,-1.07886 -0.523873,-2.85446 -0.588201,-4.67817 -0.06431,-1.82373 0.02849,-3.70355 0.335465,-4.99298 0.153503,-0.6447 0.365963,-1.13866 0.603859,-1.39445 0.118951,-0.12789 0.237634,-0.19645 0.364549,-0.21805 0.126921,-0.0216 0.272826,10e-4 0.454004,0.0978 a 0.17702776,0.17702776 0 1 0 0.166056,-0.31255 c -0.174065,-0.0925 -0.347895,-0.14227 -0.51494,-0.14593 z m -5.257992,0.27117 c -0.05436,-2.8e-4 -0.107583,0.003 -0.159914,0.0113 -0.209304,0.0314 -0.401071,0.12718 -0.560238,0.27733 -0.31834,0.30027 -0.534082,0.78105 -0.695547,1.37599 -0.322938,1.18989 -0.411818,2.85433 -0.346658,4.47467 0.06516,1.62032 0.284346,3.18829 0.603296,4.18726 0.159468,0.4995 0.321569,0.86465 0.596583,1.0383 0.137498,0.0868 0.327411,0.0979 0.476368,0.015 0.148958,-0.0828 0.265172,-0.22861 0.379094,-0.43445 a 0.17702776,0.17702776 0 1 0 -0.309762,-0.17109 c -0.09643,0.17426 -0.187759,0.26644 -0.241537,0.29634 -0.05376,0.0299 -0.06175,0.0281 -0.115186,-0.005 -0.106875,-0.0675 -0.298282,-0.37573 -0.448411,-0.84596 -0.300266,-0.94045 -0.522295,-2.49666 -0.586525,-4.09391 -0.06418,-1.59723 0.02921,-3.24364 0.334359,-4.36785 0.152559,-0.56211 0.361929,-0.98921 0.597146,-1.21107 0.235211,-0.22185 0.469794,-0.27534 0.834761,-0.10505 a 0.17702776,0.17702776 0 1 0 0.149285,-0.32093 c -0.173076,-0.0807 -0.344169,-0.11921 -0.507114,-0.12023 z m 9.364743,0.57981 c -0.162258,10e-4 -0.33261,0.0388 -0.505444,0.11685 a 0.17704962,0.17704962 0 1 0 0.145932,0.32263 c 0.365655,-0.16558 0.60395,-0.1132 0.838683,0.1017 0.23472,0.21495 0.443153,0.62816 0.595464,1.17304 0.304634,1.08974 0.397999,2.68753 0.333795,4.23759 -0.06411,1.55005 -0.286179,3.0604 -0.585954,3.972 -0.149894,0.45579 -0.34003,0.75336 -0.447305,0.81912 -0.0537,0.0329 -0.0649,0.0343 -0.119089,0.005 -0.05416,-0.0291 -0.144327,-0.11824 -0.24043,-0.28683 a 0.17705364,0.17705364 0 1 0 -0.307516,0.17557 c 0.114256,0.20044 0.231125,0.34252 0.379644,0.42269 0.148538,0.0802 0.335157,0.0697 0.472465,-0.0145 0.274601,-0.16833 0.438542,-0.52465 0.598259,-1.01032 0.319435,-0.97137 0.538673,-2.49436 0.603846,-4.06818 0.06529,-1.57384 -0.02331,-3.19078 -0.346644,-4.34774 -0.161714,-0.5785 -0.378969,-1.04657 -0.697787,-1.33854 -0.159423,-0.14599 -0.350161,-0.23908 -0.558562,-0.2695 -0.05213,-0.008 -0.105257,-0.011 -0.159357,-0.0108 z m 2.345528,12.49415 c -6.834522,1.23515 -13.001269,1.08316 -18.761373,0.0733 l -0.06149,0.34889 c 5.796528,1.01629 12.009844,1.16889 18.886061,-0.0738 z"
       id="path3252"
       inkscape:connector-curvature="0" />
    <path
       style="display:inline;opacity:1;fill:#ffcc00;fill-opacity:0.99539173;stroke:none;stroke-width:0.38899899;stroke-linecap:round;stroke-linejoin:round;stroke-miterlimit:4;stroke-dasharray:none;stroke-opacity:1;paint-order:normal"
       d="m 35.292364,277.96943 c -2.434002,-0.2381 -6.834306,-0.99856 -7.112077,-1.22908 -0.469054,-0.38929 -0.362741,-1.26411 0.302047,-2.48554 l 0.605895,-1.11323 -0.273914,-13.63667 c -0.15066,-7.50016 -0.271621,-14.31928 -0.268812,-15.15356 l 0.0052,-1.51691 h 1.088786 c 0.798704,0 1.195786,0.11823 1.490355,0.44371 0.220849,0.24405 0.589058,0.50324 0.818225,0.57598 0.522006,0.16567 1.831269,1.45348 1.473112,1.44896 -0.144989,-0.002 -0.913005,-0.15638 -1.706712,-0.34346 -0.973227,-0.2294 -1.517119,-0.26612 -1.670451,-0.11279 -0.341877,0.34187 -0.163326,0.42401 2.010704,0.92484 2.932641,0.6756 8.807269,0.83643 12.215709,0.33443 3.625805,-0.53401 4.730243,-0.81531 4.730243,-1.20478 0,-0.35623 0.066,-0.36213 -3.370876,0.30221 -2.287238,0.44211 -8.562432,0.66335 -10.449712,0.36841 l -1.348352,-0.21072 1.249793,-0.0274 c 0.912285,-0.02 1.380074,-0.14878 1.732226,-0.47686 0.265335,-0.24719 0.746117,-0.44944 1.068406,-0.44944 0.322296,0 0.80687,-0.12023 1.076842,-0.26719 0.269971,-0.14694 0.878074,-0.28852 1.351338,-0.3146 0.512569,-0.0282 1.0636,-0.23824 1.362837,-0.51936 0.276298,-0.25956 0.789588,-0.47193 1.140659,-0.47193 0.452354,0 0.887413,-0.26187 1.4934,-0.8989 l 0.855108,-0.8989 h 1.930324 c 1.940987,0 3.093662,0.33093 3.297721,0.94676 0.05265,0.15908 -0.09272,7.16582 -0.323043,15.57053 l -0.41889,15.28131 0.487724,1.40569 c 0.445772,1.28479 0.458084,1.45097 0.142978,1.93188 -0.454993,0.6944 -1.166892,0.94943 -3.862817,1.38384 -2.194023,0.35354 -9.107228,0.61006 -11.123891,0.41278 z m 11.739144,-4.18802 c 0.956391,-0.16718 1.80753,-0.37262 1.891439,-0.45653 0.347063,-0.34706 -0.205008,-0.41359 -1.539359,-0.1855 -4.969239,0.84941 -12.650473,0.80598 -16.866634,-0.0953 -0.453336,-0.0969 -0.617998,-0.0443 -0.617998,0.19749 0,0.25074 0.551319,0.39407 2.303439,0.59886 1.266892,0.14807 2.455121,0.30614 2.640522,0.35129 0.804447,0.19584 10.609312,-0.13416 12.188591,-0.41024 z m -4.361032,-1.58586 c 0.06182,-0.32434 -0.01821,-0.38406 -0.366768,-0.27345 -0.743812,0.23608 -1.056128,-1.58725 -1.056128,-6.16569 0,-4.53372 0.242893,-5.52543 1.386086,-5.65918 0.620434,-0.0726 0.624324,-0.0814 0.154825,-0.34884 -0.738854,-0.42094 -1.534277,0.32534 -1.910816,1.7928 -0.610676,2.37989 -0.277751,8.86208 0.54826,10.67498 0.285774,0.62719 1.123645,0.61331 1.244541,-0.0207 z m -10.562081,-0.22472 c 0.06182,-0.32434 -0.01821,-0.38407 -0.366775,-0.27346 -0.749542,0.23791 -1.056115,-1.58452 -1.056115,-6.27805 0,-3.4507 0.05861,-4.15237 0.399034,-4.77541 0.241839,-0.44263 0.573827,-0.73035 0.842718,-0.73035 0.490402,0 0.605319,-0.35762 0.162775,-0.50651 -0.99508,-0.33481 -1.611323,0.59862 -1.989237,3.01308 -0.423212,2.70393 0.0026,8.29198 0.739129,9.69839 0.271498,0.51848 1.161183,0.4149 1.268471,-0.14769 z m 15.166281,-0.47556 c 0.625928,-0.62594 0.939377,-2.61586 0.939377,-5.96358 0,-2.68676 -0.06946,-3.38551 -0.39559,-3.98221 -0.440422,-0.80571 -1.15813,-1.2851 -1.644492,-1.09847 -0.512825,0.19678 -0.368085,0.58617 0.217883,0.58617 0.414725,0 0.617297,0.19965 0.887321,0.87449 0.726798,1.81645 0.675679,6.14333 -0.100621,8.51803 -0.188479,0.57653 -0.307745,0.68612 -0.538378,0.49472 -0.412021,-0.34195 -0.687749,0.13899 -0.328118,0.57231 0.342224,0.41236 0.549111,0.41204 0.962618,-0.001 z m -9.812605,-0.46753 c 0.18288,-0.47657 -0.06912,-0.67193 -0.454345,-0.35222 -0.45494,0.37757 -0.776778,-0.67203 -1.077352,-3.51347 -0.396598,-3.74928 0.290083,-7.03404 1.397016,-6.68271 0.310842,0.0987 0.436944,0.0329 0.436944,-0.2278 0,-0.27807 -0.176148,-0.34949 -0.730347,-0.29604 -0.597481,0.0576 -0.812129,0.23396 -1.179807,0.96932 -0.392741,0.78549 -0.448445,1.33837 -0.441477,4.38214 0.0077,3.3487 0.256809,5.0898 0.828048,5.78666 0.320692,0.39121 1.061243,0.35127 1.22132,-0.0659 z m -6.06942,-16.87859 c -0.07993,-0.94562 -0.145336,-2.91759 -0.145336,-4.38213 0,-1.62538 -0.08756,-2.66281 -0.224727,-2.66281 -0.142133,0 -0.22472,1.61055 -0.22472,4.38215 0,3.91897 0.0391,4.38214 0.370063,4.38214 0.324012,0 0.351981,-0.21392 0.22472,-1.71935 z"
       id="path3653"
       inkscape:connector-curvature="0" />
    <path
       style="display:inline;opacity:1;fill:#ffffff;fill-opacity:0.93548387;stroke:none;stroke-width:0.19449949;stroke-linecap:round;stroke-linejoin:round;stroke-miterlimit:4;stroke-dasharray:none;stroke-opacity:1;paint-order:normal"
       d="m 26.942752,249.48233 c -0.427521,-0.26066 -0.812442,-1.01157 -1.092636,-2.13152 -0.100491,-0.4017 -0.308871,-0.9249 -0.463048,-1.16267 -0.369506,-0.56984 -0.437731,-1.05404 -0.221452,-1.57166 0.166259,-0.39792 0.162428,-0.44528 -0.07234,-0.89356 -0.279284,-0.53328 -0.309814,-1.19779 -0.07851,-1.70933 0.08383,-0.18539 0.160568,-0.74159 0.170529,-1.23599 0.01028,-0.50944 0.09141,-1.07075 0.187287,-1.29557 0.242205,-0.56784 0.788684,-1.06953 1.387159,-1.27345 0.284628,-0.0969 0.691848,-0.32941 0.904931,-0.51648 0.753484,-0.66158 1.842572,-1.01218 2.288338,-0.73669 0.142932,0.0883 0.538502,-0.11718 0.931943,-0.48421 0.252205,-0.23527 0.449309,-0.29887 1.043371,-0.3367 0.667945,-0.0425 0.746798,-0.0744 0.89571,-0.36242 0.20694,-0.40018 0.476244,-0.48437 1.471684,-0.46013 0.793399,0.0194 0.801513,0.0166 0.942409,-0.32361 0.211793,-0.51133 0.484914,-0.61331 1.189689,-0.44424 0.810216,0.19438 1.416839,0.0867 2.521473,-0.44747 1.348293,-0.65202 2.029296,-0.60646 2.776428,0.18573 0.343828,0.36456 0.459819,0.41352 1.132695,0.47808 0.938873,0.0901 1.163055,0.21405 1.420742,0.78548 0.196796,0.43639 0.228013,0.45627 0.71668,0.45627 0.467881,0 0.555379,0.0473 1.038394,0.56181 0.366598,0.39048 0.615168,0.56181 0.815068,0.56181 0.497482,0 0.828749,0.23296 1.137221,0.79971 0.164236,0.30176 0.358655,0.54914 0.432053,0.54975 0.07336,5.5e-4 0.39851,0.12451 0.722509,0.27535 0.763956,0.35567 1.032539,0.84111 0.833307,1.50612 l -0.132435,0.44201 -0.532609,-0.17734 c -0.591063,-0.19678 -3.367779,-0.26099 -4.327706,-0.10007 -0.494337,0.0829 -0.555149,0.12944 -0.77237,0.59157 -0.42703,0.90846 -1.424134,1.48025 -2.068988,1.18642 -0.21715,-0.0989 -0.298898,-0.0878 -0.41276,0.0559 -0.07809,0.0986 -0.308145,0.35693 -0.511234,0.574 -0.353121,0.37748 -0.395269,0.39203 -0.965434,0.33318 -0.522557,-0.0538 -0.690263,-0.0142 -1.357815,0.32178 -0.767715,0.38639 -1.22464,0.47792 -1.352556,0.27096 -0.140536,-0.22741 -0.4435,-0.10019 -0.902809,0.37922 l -0.471024,0.49158 -1.195269,-0.0248 c -1.334468,-0.0278 -1.487813,-0.0989 -1.883462,-0.87408 -0.164517,-0.32236 -0.283115,-0.42135 -0.504783,-0.42135 -0.494966,0 -1.003855,-0.32142 -1.27627,-0.80613 l -0.259048,-0.46089 -1.523563,0.079 c -0.837957,0.0435 -1.569857,0.10766 -1.626444,0.1426 -0.06162,0.0381 -0.0697,1.54518 -0.02017,3.75682 l 0.0827,3.69324 -0.322421,-5.5e-4 c -0.177333,-2.2e-4 -0.490159,-0.10268 -0.695168,-0.22767 z m 0.316566,-3.69703 c 0,-0.10626 -0.13032,-0.31555 -0.289591,-0.46517 -0.231197,-0.2172 -0.2758,-0.3401 -0.22121,-0.60949 0.13903,-0.68605 0.125048,-0.78582 -0.114904,-0.82013 -0.292303,-0.0418 -0.497927,0.37317 -0.497927,1.00485 0,0.36821 0.07324,0.52864 0.38261,0.838 0.397207,0.39721 0.741022,0.42131 0.741022,0.0519 z m 9.275013,-3.7666 c 0.313135,-0.31315 0.354791,-0.6424 0.107255,-0.84784 -0.134471,-0.11159 -0.202624,-0.11159 -0.337089,0 -0.0927,0.0769 -0.168545,0.20413 -0.168545,0.28265 0,0.27841 -0.638141,0.37374 -0.997903,0.14907 -0.221819,-0.13852 -0.575169,-0.0635 -0.575169,0.1222 0,0.0614 0.110667,0.21461 0.245912,0.34061 0.375301,0.34965 1.355726,0.3231 1.725539,-0.0468 z m -8.396303,-0.31788 c 0.138748,-0.16717 0.04676,-0.34727 -0.229278,-0.44907 -0.250601,-0.0924 -0.384404,-0.62359 -0.215814,-0.85672 0.232742,-0.32185 0.272316,-0.47334 0.154419,-0.59123 -0.196599,-0.19661 -0.556943,0.008 -0.756549,0.42778 -0.178237,0.37561 -0.178341,0.43185 -0.002,0.89429 0.251517,0.65858 0.751925,0.93286 1.048963,0.57495 z m 10.798831,-0.93838 c 0.372676,-0.47376 0.301347,-1.50173 -0.104203,-1.50173 -0.227949,0 -0.361595,0.25485 -0.265263,0.50587 0.03562,0.0928 0.03215,0.2988 -0.0077,0.45768 -0.06464,0.2573 -0.124262,0.28686 -0.545837,0.27025 -0.708449,-0.0279 -0.754237,-0.0153 -0.754237,0.20818 0,0.31317 0.09552,0.35582 0.797105,0.35582 0.565451,0 0.67674,-0.0375 0.880176,-0.29607 z m 2.825865,-0.48183 c 0.275642,-0.27565 0.328445,-0.41898 0.328445,-0.89159 0,-0.73233 -0.164694,-1.16824 -0.421686,-1.11611 -0.164681,0.0334 -0.191492,0.14788 -0.16643,0.71044 0.04132,0.9268 -0.03504,1.00772 -0.951256,1.00772 -0.61604,0 -0.766477,0.035 -0.795973,0.18525 -0.04676,0.23812 0.419696,0.41214 1.136088,0.42386 0.456034,0.008 0.594645,-0.0434 0.870812,-0.31957 z m -10.065086,-0.0603 c 0,-0.16074 -0.104609,-0.24152 -0.387783,-0.29943 -0.764447,-0.15635 -0.907406,-0.80606 -0.286396,-1.30155 0.670204,-0.53477 0.367692,-0.98997 -0.346781,-0.52184 -0.583368,0.38224 -0.778174,1.23415 -0.420632,1.83941 0.236475,0.40032 0.547101,0.55641 1.048315,0.52677 0.307712,-0.0181 0.393277,-0.0712 0.393277,-0.24336 z m 15.253203,-0.48855 c 0.209252,-0.17971 0.278099,-0.96934 0.09442,-1.08286 -0.218872,-0.13528 -0.45959,0.0806 -0.45959,0.41212 0,0.29924 -0.02914,0.32905 -0.252814,0.25904 -0.501981,-0.15714 -0.702274,-0.12603 -0.702274,0.10911 0,0.14271 0.13772,0.29348 0.377384,0.41315 0.394869,0.19715 0.614586,0.17139 0.942874,-0.11056 z m -2.637424,-0.53369 c 0.497317,-0.34834 0.16933,-1.67619 -0.363514,-1.47172 -0.145985,0.0561 -0.177864,0.14308 -0.120006,0.32773 0.152474,0.48666 0.121846,0.69265 -0.109468,0.73641 -0.312375,0.0591 -0.435026,0.19927 -0.355538,0.4064 0.08742,0.22783 0.623983,0.22849 0.948526,0.001 z M 34.5888,237.94701 c 0.335027,-0.6925 0.704074,-0.94519 1.506642,-1.03159 0.520244,-0.0561 0.664166,-0.11426 0.696294,-0.28185 0.05959,-0.31061 -0.191714,-0.41225 -0.824329,-0.33345 -1.032401,0.1286 -1.693503,0.61692 -1.970187,1.45527 -0.275911,0.83599 0.204557,0.99164 0.59158,0.19162 z"
       id="path3657"
       inkscape:connector-curvature="0" />
    <path
       style="display:inline;opacity:1;fill:#ffffff;fill-opacity:0.67281105;stroke:none;stroke-width:0.19449949;stroke-linecap:round;stroke-linejoin:round;stroke-miterlimit:4;stroke-dasharray:none;stroke-opacity:1;paint-order:normal"
       d="m 50.406569,268.30642 c 2.95e-4,-0.2472 0.03274,-0.86136 0.07206,-1.36482 l 0.0713,-0.91536 1.248333,-0.0486 c 1.610799,-0.0627 2.350413,-0.33172 3.172352,-1.15365 1.461573,-1.46157 1.986486,-3.5847 2.000357,-8.09089 0.0086,-2.95147 -0.108218,-3.85207 -0.693485,-5.32403 -0.371006,-0.93312 -1.409517,-2.02889 -2.120304,-2.23724 -0.97713,-0.2864 -1.954961,-0.1003 -2.860389,0.54443 l -0.328917,0.23421 v -1.96089 c 0,-1.93741 0.0033,-1.96174 0.252814,-2.03244 0.521489,-0.1476 3.290785,-0.20563 3.942116,-0.0825 2.180094,0.41175 3.473076,1.84711 4.062744,4.51008 0.393703,1.77799 0.333815,6.80034 -0.124616,10.44972 -0.516859,4.11459 -1.806194,6.69969 -3.693762,7.40591 -0.681003,0.2548 -2.142098,0.43633 -3.905659,0.48525 l -1.09563,0.0304 5.5e-4,-0.44945 z m 4.118238,-1.62757 c 1.359203,-0.59509 2.341317,-2.5492 2.785865,-5.54311 0.227797,-1.53412 0.230437,-2.32395 0.0075,-2.32395 -0.193574,0 -0.219036,0.11022 -0.389368,1.68544 -0.227779,2.10635 -0.808101,3.96055 -1.539837,4.91991 -0.433212,0.56797 -1.199637,1.00967 -1.904785,1.09778 -0.566597,0.0708 -0.740865,0.21511 -0.522917,0.43307 0.122252,0.12225 1.023836,-0.0329 1.563262,-0.26914 z"
       id="path3659"
       inkscape:connector-curvature="0" />
    <g
       transform="matrix(1.2872959,0,0,1.2872959,-520.6903,-43.184865)"
       id="layer1-8"
       inkscape:label="Layer 1">
      <g
         transform="matrix(0.26458333,0,0,0.26458333,-622.87038,-463.70361)"
         id="g2343">
        <path
           sodipodi:nodetypes="cccscccccsccsccccccccc"
           inkscape:connector-curvature="0"
           id="path2813"
           d="m 4087.389,2703.9091 c -16.9665,-0.4495 -30.6109,-1.5806 -42.0108,-3.4827 -24.0596,-4.0143 -37.6028,-11.2708 -41.2165,-22.0842 -0.2852,-0.8538 -0.5187,-1.698 -0.5187,-1.8761 0,-0.1781 0.7366,-1.5784 1.6369,-3.1119 1.4527,-2.4742 1.6404,-2.8871 1.6676,-3.6672 0.064,-1.8239 2.2042,-4.3929 5.0454,-6.0552 0.9056,-0.53 4.3802,-2.9248 7.7212,-5.3219 16.678,-11.9659 26.9622,-18.0084 38.5549,-22.6526 4.3343,-1.7364 10.5604,-3.7367 10.8207,-3.4764 0.059,0.059 0.7769,7.6751 1.5943,16.9237 0.8174,9.2486 1.5168,16.8463 1.5543,16.8837 0.038,0.037 9.0745,-6.0838 20.0822,-13.6027 11.0078,-7.519 20.112,-13.7118 20.2316,-13.7619 0.5,-0.2094 5.3588,3.9513 8.3643,7.1625 9.104,9.7267 16.5823,23.9299 22.3144,42.3804 1.4042,4.5198 1.4485,4.9982 0.8371,9.0371 -0.3169,2.094 -0.4388,3.462 -0.3875,4.35 l 0.075,1.2953 -1.6254,0.1066 c -2.245,0.1471 -13.0183,0.5716 -19.8679,0.7827 -7.7726,0.2396 -28.4522,0.3408 -34.8729,0.1708 z"
           style="opacity:1;fill:#f2f2f2;fill-opacity:1;stroke:none;stroke-width:0;stroke-linecap:round;stroke-linejoin:round;stroke-miterlimit:4;stroke-dasharray:none;stroke-opacity:1;paint-order:normal" />
        <path
           sodipodi:nodetypes="csccccccccccccccccsccccccsscccsscccsscscccscccccsccccccccccccccccccsccccccscscccccccccsccc"
           inkscape:connector-curvature="0"
           id="path2789"
           d="m 4064.9443,2716.7178 c -6.8709,-0.259 -16.3984,-0.8803 -22.4619,-1.9129 -22.0361,-3.7527 -35.2702,-12.2637 -39.6172,-25.6054 -1.0714,-3.2883 -0.8711,-5.3151 -0.5546,-7.402 l 0.28,-1.8466 1.1278,1.9996 c 0.6274,1.1125 2.0018,2.9511 3.0982,4.1445 4.3955,4.7842 9.9562,8.1073 18.6798,11.1632 l 6.1278,1.958 c -0.081,-1.2864 -1.2727,-0.4571 0,0 0.3922,0.1409 2.3111,0.6239 4.2641,1.0733 l 3.551,0.817 -1.226,1.4172 -1.226,1.4172 h -1.9144 c -2.5611,-0.053 -2.0186,0.3532 -0.6635,1.5635 l 1.2508,1.1103 -0.8883,1.1169 c -0.4885,0.6142 -0.8882,1.1893 -0.8882,1.2779 0,0.089 0.6798,0.1637 1.5107,0.1667 l 1.5107,0.01 0.7252,1.1147 c 0.3988,0.6131 0.8013,1.1149 0.8944,1.1152 0.093,0 0.5784,-0.5038 1.0784,-1.1202 l 0.9093,-1.1206 h 1.8826 c 1.0353,0 1.8825,-0.063 1.8825,-0.1395 0,-0.077 -0.3793,-0.6512 -0.8429,-1.2768 l -0.8429,-1.1372 0.9857,-1.2129 c 0.542,-0.6671 1.0845,-1.2759 1.2054,-1.3529 0.1209,-0.077 0.2198,-0.2573 0.2198,-0.4007 0,-0.1673 -0.6913,-0.2283 -1.931,-0.1704 l -1.9311,0.09 -0.3652,-1.1045 c -0.2009,-0.6075 -0.3653,-1.1233 -0.3653,-1.1462 0,-0.023 0.7886,0.1128 1.7525,0.3019 13.9403,2.7338 35.4709,4.3072 58.9184,4.3058 12.0301,0 35.5082,-0.6449 41.1439,-1.1288 l 1.6232,-0.1394 -1.1223,1.9816 -3.3666,5.7475 c -0.3298,1.0294 -0.8342,0.8279 -9.8765,1.6309 -24.2354,2.1523 -38.6251,2.905 -53.9028,2.8197 -4.786,-0.027 -9.572,-0.081 -10.6355,-0.1214 z m 0.272,-3.4332 c 0.4149,-1.356 0.4284,-1.3694 2.067,-2.0317 0.9071,-0.3667 1.6493,-0.6954 1.6493,-0.7305 0,-0.035 -0.5536,-0.4147 -1.2302,-0.8437 -0.6766,-0.4289 -1.1819,-0.9148 -1.123,-1.0797 0.5024,-1.4045 0.932,-2.9678 0.8414,-3.0612 -0.061,-0.063 -0.8265,0.2169 -1.7014,0.6213 l -1.5908,0.7354 -1.0039,-1.1222 c -0.5522,-0.6172 -1.0368,-1.0857 -1.0769,-1.041 -0.04,0.045 -0.3762,0.9659 -0.747,2.0473 l -0.6741,1.9661 -1.5374,0.7182 c -0.8455,0.3951 -1.4772,0.8185 -1.4037,0.941 0.074,0.1226 0.7035,0.4147 1.3999,0.6491 0.6964,0.2344 1.3045,0.4598 1.3512,0.501 0.047,0.041 -0.1003,0.6497 -0.3268,1.3523 -0.2265,0.7026 -0.3621,1.3287 -0.3014,1.3912 0.061,0.062 0.7139,-0.1242 1.4516,-0.415 l 1.3411,-0.5288 0.9255,0.6479 c 0.509,0.3564 1.0035,0.6479 1.0988,0.6479 0.095,0 0.3611,-0.6142 0.5908,-1.3649 z m -15.1282,-0.017 c 0.1706,-0.2119 0.6232,-0.6148 1.0058,-0.8956 0.6412,-0.4703 0.8202,-0.4879 2.2857,-0.225 0.8745,0.1569 1.6449,0.2288 1.7119,0.1597 0.067,-0.069 -0.1632,-0.627 -0.5117,-1.2397 -0.3485,-0.6127 -0.6336,-1.1644 -0.6336,-1.2262 0,-0.062 0.5982,-0.5876 1.3294,-1.1688 0.7312,-0.5812 1.3294,-1.1408 1.3294,-1.2434 0,-0.1026 -0.6599,-0.2634 -1.4666,-0.3575 -2.0151,-0.2349 -2.102,-0.2909 -2.2796,-1.4694 -0.3094,-2.0531 -0.2378,-2.0346 -2.0637,-0.5335 l -1.6696,1.3725 -1.7593,-0.2222 c -0.9676,-0.1222 -1.7901,-0.1953 -1.8279,-0.1626 -0.038,0.033 0.3886,0.6556 0.9476,1.3841 l 1.0162,1.3245 -1.0081,0.8944 c -0.5544,0.4919 -1.0079,0.9649 -1.0079,1.0511 0,0.086 0.5219,0.2305 1.1597,0.3209 1.4636,0.2074 1.565,0.2795 2.1967,1.5634 0.566,1.1502 0.7718,1.2614 1.2456,0.6733 z"
           style="opacity:1;fill:#660080;fill-opacity:1;stroke:none;stroke-width:0;stroke-linecap:round;stroke-linejoin:round;stroke-miterlimit:4;stroke-dasharray:none;stroke-opacity:1;paint-order:normal" />
        <g
           style="display:none"
           id="Layer_5"
           class="st0">
          <image
             style="display:inline;overflow:visible"
             width="2176"
             height="3306"
             transform="translate(110.554,189.8549)"
             id="image1719"
             xlink:href="file:///tmp/mozilla_tperale0/Downloads/45409148_350496415519204_7253999918115717120_n.jpg"
             sodipodi:absref="/tmp/mozilla_tperale0/Downloads/45409148_350496415519204_7253999918115717120_n.jpg" />
        </g>
        <g
           transform="matrix(0.47515461,0,0,0.47515461,3521.5817,2411.4987)"
           id="Layer_2">
          <path
             style="fill:none;stroke:#000000;stroke-width:5;stroke-linecap:round;stroke-linejoin:round"
             id="path881"
             inkscape:connector-curvature="0"
             sodipodi:nodetypes="ccc"
             class="st5"
             d="m 1009.3,573.4 2.7,-17.4 6.9,-11.80001" />
          <path
             style="fill:none;stroke:#000000;stroke-width:4;stroke-linecap:round;stroke-linejoin:round"
             id="path883"
             inkscape:connector-curvature="0"
             sodipodi:nodetypes="cscc"
             class="st6"
             d="m 1009.3,573.4 c -73.9,141.1 49.8,126.7 160.8,111 47.8,-6.8 151.2,-44.3 129.3,-47.6 -146.9,14 -279.1,17.8 -290.1,-63.4 z" />
          <path
             style="fill:none;stroke:#000000;stroke-width:4"
             id="path2085"
             inkscape:connector-curvature="0"
             sodipodi:nodetypes="cc"
             class="st2"
             d="m 1012,556 c 9.1,57.1 131,67.8 299.9,59.3" />
          <path
             sodipodi:nodetypes="ccc"
             style="fill:none;stroke:#000000;stroke-width:3"
             id="path2089"
             inkscape:connector-curvature="0"
             class="st3"
             d="M 1153.9214,461.86786 1160.2,532.9 l 86,-58.7" />
          <path
             style="fill:none;stroke:#000000;stroke-width:3"
             id="path2091"
             inkscape:connector-curvature="0"
             class="st3"
             d="m 1198.7,498.2 26.8,-19.3 -15.6,-2.3 -15.3,19.6" />
          <path
             style="fill:none;stroke:#000000;stroke-width:3"
             id="path2093"
             inkscape:connector-curvature="0"
             class="st3"
             d="m 1186.9,473.1 16.7,2.3 -24.5,32.6" />
          <path
             style="fill:none;stroke:#000000;stroke-width:3"
             id="path2095"
             inkscape:connector-curvature="0"
             class="st3"
             d="m 1180,473.1 -19.3,-0.6 3.2,34.4 7.2,-2.3 z" />
          <path
             style="fill:none;stroke:#000000;stroke-width:3;stroke-linecap:square;stroke-linejoin:round"
             id="path2097"
             inkscape:connector-curvature="0"
             class="st13"
             d="m 1161.8,485.2 c 2,0.6 12.1,5.5 12.1,5.5" />
          <path
             style="fill:none;stroke:#000000;stroke-width:3"
             id="path2099"
             inkscape:connector-curvature="0"
             sodipodi:nodetypes="ccccccccccccc"
             class="st3"
             d="m 1063.1,610.7 6,-3.3 v 4.6 l 5.2,1.6 -4.6,2.6 1.3,3.9 -4.6,-1.6 -4,2.5 -1.2,-3.9 -3.5,-1.4 3.7,-2 -2.4,-4.3 z" />
          <path
             style="fill:none;stroke:#000000;stroke-width:3.54487491"
             id="path2099-0"
             inkscape:connector-curvature="0"
             sodipodi:nodetypes="ccccccccccccc"
             class="st3"
             d="m 1084.4609,616.67122 6.0263,-6.49894 1.8906,5.6718 6.9716,-0.11816 -4.6083,5.08099 3.1903,4.25385 -6.3808,-0.11816 -3.8993,4.72649 -3.0722,-4.25385 -4.8447,-0.23633 3.6631,-4.01751 -4.7266,-4.37202 z" />
          <path
             style="fill:none;stroke:#000000;stroke-width:3.29927468"
             id="path2099-2"
             inkscape:connector-curvature="0"
             sodipodi:nodetypes="ccccccccccccc"
             class="st3"
             d="m 1110.6386,622.45324 5.9387,-4.61899 0.7698,5.05889 5.9387,0.87981 -4.6189,3.6292 2.0895,4.0691 -5.2788,-0.98978 -3.9592,3.40925 -1.9795,-3.95913 -4.0691,-0.8798 3.6292,-2.85937 -3.2993,-4.28906 z" />
          <path
             style="fill:none;stroke:#000000;stroke-width:3.37547135"
             id="path2099-8"
             inkscape:connector-curvature="0"
             sodipodi:nodetypes="ccccccccccccc"
             class="st3"
             d="m 1135.4726,626.70739 2.5879,-7.201 3.488,3.93804 5.6257,-2.47534 -1.9128,5.62579 4.0506,2.36283 -5.1757,2.02528 -1.5752,5.0632 -3.8256,-2.36283 -4.0505,1.46272 1.5752,-4.50064 -5.1757,-1.91277 z" />
          <path
             sodipodi:nodetypes="csscc"
             inkscape:connector-curvature="0"
             id="path2777"
             d="m 1018.9,544.19999 c -0.6739,0.50996 1.7343,-9.74681 11.5644,-14.978 27.1153,-14.42959 209.7142,-185.81921 281.719,58.63421 2.8856,9.79635 -2.7756,16.34231 -0.2834,27.44379 l -12.5,21.5"
             style="fill:none;stroke:#000000;stroke-width:3.77952766;stroke-linecap:butt;stroke-linejoin:miter;stroke-miterlimit:4;stroke-dasharray:none;stroke-opacity:1" />
          <path
             style="fill:none;stroke:#000000;stroke-width:3"
             id="path2087"
             inkscape:connector-curvature="0"
             sodipodi:nodetypes="cccc"
             class="st3"
             d="m 1103.5,549.1 c -8.4,29.5 -5.7,50.3 12.9,58.4 13.7,-0.9 26.5,3 49.3,-44.7 -16,-14.4 -51.8,-16.8 -62.2,-13.7 z" />
        </g>
        <path
           inkscape:connector-curvature="0"
           id="path2793"
           d="m 4023.0478,2740.0796 c -2.1534,-0.111 -6.5504,-0.6027 -8.841,-0.9886 -4.3943,-0.7403 -7.7192,-1.7271 -10.9064,-3.2369 -13.7151,-6.4971 -15.3688,-20.4653 -5.1361,-43.3817 0.6365,-1.4254 1.4629,-3.1961 1.8365,-3.935 l 0.6793,-1.3435 0.3825,1.4283 c 0.8666,3.2354 2.5712,6.8496 4.5554,9.6586 1.4661,2.0756 4.8952,5.5302 7.139,7.1922 4.9578,3.6724 10.9633,6.4465 18.539,8.5637 20.621,5.7631 50.7393,6.2812 100.5283,1.7291 3.92,-0.3584 7.1533,-0.6267 7.1852,-0.5962 0.2953,0.2828 -5.1958,3.2158 -9.2216,4.9254 -12.2572,5.2053 -31.9618,11.428 -45.0548,14.2281 -3.8238,0.8178 -6.8093,1.3024 -14.1698,2.3002 -14.6885,1.991 -23.3243,2.8859 -32.8366,3.4024 -2.8233,0.1532 -12.0914,0.1873 -14.6789,0.054 z"
           style="opacity:1;fill:#333333;fill-opacity:1;stroke:#010000;stroke-width:0.64137858;stroke-linecap:round;stroke-linejoin:round;stroke-miterlimit:4;stroke-dasharray:none;stroke-opacity:1;paint-order:normal" />
        <path
           inkscape:connector-curvature="0"
           id="path2805"
           d="m 4037.6925,2708.8465 c -0.326,-0.4756 -0.751,-0.807 -1.035,-0.807 -0.4768,0 -0.4764,-0.01 0.03,-0.5453 0.6541,-0.6963 0.6447,-0.8221 -0.1209,-1.6213 -0.6275,-0.655 -0.6284,-0.6609 -0.1026,-0.6609 0.3375,0 0.9463,-0.4497 1.6742,-1.2369 0.8391,-0.9075 1.1784,-1.1429 1.2738,-0.8836 0.072,0.1945 0.2365,0.645 0.3667,1.0014 0.2114,0.5786 0.3528,0.6479 1.3201,0.6479 h 1.0832 l -0.7121,0.8639 -0.7121,0.8639 0.4754,0.6676 0.4754,0.6677 h -0.9401 c -0.8024,0 -1.0563,0.1356 -1.7319,0.9248 l -0.7916,0.9249 z"
           style="opacity:1;fill:#ffff00;fill-opacity:1;stroke:none;stroke-width:0;stroke-linecap:round;stroke-linejoin:round;stroke-miterlimit:4;stroke-dasharray:none;stroke-opacity:1;paint-order:normal" />
        <path
           transform="translate(2354.1558,1128.9585)"
           inkscape:connector-curvature="0"
           id="path2807"
           d=""
           style="opacity:1;fill:#ffff00;fill-opacity:1;stroke:none;stroke-width:0;stroke-linecap:round;stroke-linejoin:round;stroke-miterlimit:4;stroke-dasharray:none;stroke-opacity:1;paint-order:normal" />
        <path
           inkscape:connector-curvature="0"
           id="path2809"
           d="m 4049.4841,2711.179 c -0.078,-0.2465 -0.3076,-0.6134 -0.5096,-0.8155 -0.3399,-0.3399 -0.3326,-0.3954 0.099,-0.7451 0.465,-0.3764 0.4651,-0.38 0.026,-0.9823 -0.2878,-0.3952 -0.3436,-0.6045 -0.1611,-0.6045 0.1536,0 0.8148,-0.4043 1.4693,-0.8984 l 1.1901,-0.8986 0.1549,0.8423 c 0.1792,0.9744 0.3997,1.1712 1.3175,1.1759 h 0.6657 l -0.7538,0.6293 c -0.6672,0.557 -0.7234,0.6862 -0.4893,1.1237 0.2462,0.4599 0.2161,0.4943 -0.4325,0.4943 -0.3973,0 -1.0137,0.2415 -1.4335,0.5617 -0.8889,0.678 -0.9618,0.6853 -1.1432,0.1137 z"
           style="opacity:1;fill:#ffff00;fill-opacity:1;stroke:none;stroke-width:0;stroke-linecap:round;stroke-linejoin:round;stroke-miterlimit:4;stroke-dasharray:none;stroke-opacity:1;paint-order:normal" />
        <path
           inkscape:connector-curvature="0"
           id="path2811"
           d="m 4063.3116,2712.3577 c -0.3498,-0.2575 -0.7888,-0.4096 -0.9755,-0.338 -0.4022,0.1544 -0.4074,0.1237 -0.1109,-0.656 0.2079,-0.5468 0.1657,-0.623 -0.4665,-0.8433 -0.4861,-0.1695 -0.6289,-0.3219 -0.4752,-0.507 0.1208,-0.1456 0.4448,-0.8664 0.72,-1.6018 l 0.5001,-1.337 0.6378,0.7639 0.6378,0.7639 0.8586,-0.4093 c 0.7713,-0.3679 0.8439,-0.3713 0.7145,-0.034 -0.454,1.183 -0.4236,1.4666 0.1866,1.7446 l 0.6051,0.2757 -0.6982,0.2935 c -0.4066,0.171 -0.7948,0.5615 -0.9296,0.9352 -0.5387,1.4935 -0.5034,1.4657 -1.2046,0.9496 z"
           style="opacity:1;fill:#ffff00;fill-opacity:1;stroke:none;stroke-width:0;stroke-linecap:round;stroke-linejoin:round;stroke-miterlimit:4;stroke-dasharray:none;stroke-opacity:1;paint-order:normal" />
        <path
           inkscape:connector-curvature="0"
           id="path2817"
           d="m 4073.5459,2663.1564 c -0.057,-0.2773 -2.8138,-31.4674 -2.7848,-31.5046 0.094,-0.12 4.1251,-0.8984 6.2818,-1.2131 9.0811,-1.325 17.7983,-0.4696 25.3644,2.4887 2.2217,0.8688 5.9749,2.7387 7.6974,3.8352 l 1.164,0.741 -1.5883,1.1013 c -2.0888,1.4484 -35.0509,23.9256 -35.6551,24.3137 -0.2567,0.1648 -0.4724,0.2719 -0.4794,0.2378 z m 2.8463,-10.5275 2.2615,-0.7079 0.2436,-0.8205 c 0.9604,-3.2338 4.3552,-15.4478 4.3071,-15.4959 -0.073,-0.073 -10.8666,-0.4492 -10.9347,-0.3811 -0.027,0.026 0.063,1.1921 0.1998,2.5899 0.1365,1.3978 0.2815,3.076 0.3224,3.7293 0.041,0.6534 0.3038,3.4789 0.5844,6.2789 0.2806,2.8 0.5128,5.1864 0.5159,5.303 0.01,0.2902 -0.042,0.3001 2.5,-0.4957 z m 12.1738,-7.3655 c 3.3306,-4.4405 6.0974,-8.1823 6.1484,-8.3153 0.053,-0.1383 -0.01,-0.2417 -0.145,-0.2417 -0.1307,0 -2.1763,-0.2685 -4.5458,-0.5967 -4.6895,-0.6495 -4.5786,-0.6587 -4.5835,0.3813 0,0.6521 -0.2473,0.5791 3.6784,1.1005 l 2.9173,0.3876 -5.4193,7.2122 -5.4193,7.2121 0.544,0.4667 c 0.2992,0.2567 0.5947,0.4667 0.6566,0.4667 0.062,0 2.8376,-3.6331 6.1682,-8.0734 z m 14.3982,-4.5571 c 2.2084,-1.5876 2.7799,-2.0736 2.5454,-2.1653 -0.1663,-0.065 -2.2114,-0.3914 -4.5448,-0.7255 -2.3333,-0.3341 -4.3732,-0.636 -4.533,-0.671 -0.2109,-0.046 -1.3059,1.2369 -3.988,4.6727 -2.0335,2.605 -3.7188,4.8337 -3.7452,4.9526 -0.057,0.259 0.9235,1.0227 1.141,0.8883 0.084,-0.052 1.6901,-2.0665 3.5695,-4.4771 l 3.4172,-4.3829 2.239,0.3236 c 1.2314,0.178 2.3434,0.3575 2.4711,0.3989 0.1276,0.041 -2.0488,1.7149 -4.8364,3.7189 -2.7877,2.0039 -5.2934,3.8213 -5.5681,4.0386 l -0.4995,0.3951 0.4699,0.616 0.4698,0.6161 4.2721,-3.076 c 2.3497,-1.6918 5.5537,-3.9971 7.12,-5.123 z"
           style="opacity:1;fill:#f2f2f2;fill-opacity:1;stroke:none;stroke-width:0;stroke-linecap:round;stroke-linejoin:round;stroke-miterlimit:4;stroke-dasharray:none;stroke-opacity:1;paint-order:normal" />
        <path
           inkscape:connector-curvature="0"
           id="path2819"
           d="m 4076.8358,2642.5894 c -1.2309,-0.5756 -2.2831,-1.0934 -2.3383,-1.1506 -0.055,-0.057 -0.1993,-1.1185 -0.3203,-2.3586 l -0.22,-2.2547 3.5699,0.1177 c 1.9634,0.065 3.5924,0.1402 3.6199,0.1677 0.1069,0.1069 -1.7659,6.4499 -1.9151,6.4864 -0.087,0.021 -1.1652,-0.4322 -2.3961,-1.0079 z"
           style="opacity:1;fill:#f2f2f2;fill-opacity:1;stroke:none;stroke-width:0;stroke-linecap:round;stroke-linejoin:round;stroke-miterlimit:4;stroke-dasharray:none;stroke-opacity:1;paint-order:normal" />
        <path
           inkscape:connector-curvature="0"
           id="path2821"
           d="m 4075.2552,2650.9367 c -3e-4,-0.22 -0.1554,-1.9948 -0.3448,-3.9441 -0.1895,-1.9493 -0.316,-3.5725 -0.2814,-3.6071 0.057,-0.057 4.0102,1.7488 4.177,1.9086 0.039,0.038 -0.2597,1.2499 -0.6646,2.6938 l -0.7361,2.6252 -0.8627,0.2835 c -0.4746,0.1559 -0.9582,0.3188 -1.0749,0.3618 -0.1318,0.049 -0.2123,-0.073 -0.2125,-0.3217 z"
           style="opacity:1;fill:#f2f2f2;fill-opacity:1;stroke:none;stroke-width:0;stroke-linecap:round;stroke-linejoin:round;stroke-miterlimit:4;stroke-dasharray:none;stroke-opacity:1;paint-order:normal" />
        <path
           transform="translate(2354.1558,1128.9585)"
           inkscape:connector-curvature="0"
           id="path2928"
           d=""
           style="opacity:1;fill:#668000;fill-opacity:1;stroke:none;stroke-width:0;stroke-linecap:round;stroke-linejoin:round;stroke-miterlimit:4;stroke-dasharray:none;stroke-opacity:1;paint-order:normal" />
        <flowRoot
           style="font-style:normal;font-weight:normal;font-size:40px;line-height:1.25;font-family:sans-serif;letter-spacing:0px;word-spacing:0px;fill:#000000;fill-opacity:1;stroke:none"
           id="flowRoot1076"
           xml:space="preserve"><flowRegion
             id="flowRegion1078"><rect
               y="453.14645"
               x="840.4469"
               height="242.43661"
               width="1341.4825"
               id="rect1080" /></flowRegion><flowPara
             id="flowPara1082" /></flowRoot>        <path
           inkscape:connector-curvature="0"
           id="path2803"
           d="m 4025.8158,2704.7166 c -0.082,-0.3013 -0.2552,-0.6105 -0.3856,-0.6871 -0.1497,-0.088 -0.1593,-0.1666 -0.026,-0.2134 0.7219,-0.2541 0.8183,-0.3832 0.5877,-0.7879 -0.2181,-0.3827 -0.1626,-0.4343 0.9605,-0.8934 0.6556,-0.2679 1.2631,-0.514 1.35,-0.5469 0.087,-0.033 0.1581,0.244 0.1581,0.6154 0,0.6267 0.055,0.6897 0.7642,0.8769 l 0.7644,0.2017 -0.6579,0.3331 c -0.5405,0.2736 -0.6341,0.4086 -0.5248,0.7568 0.1257,0.4009 0.097,0.4175 -0.5286,0.3076 -0.4884,-0.086 -0.847,-0.025 -1.3708,0.2344 -0.3902,0.1928 -0.7619,0.3506 -0.8259,0.3506 -0.064,0 -0.1834,-0.2465 -0.2651,-0.5478 z"
           style="opacity:1;fill:#ffff00;fill-opacity:1;stroke:none;stroke-width:0;stroke-linecap:round;stroke-linejoin:round;stroke-miterlimit:4;stroke-dasharray:none;stroke-opacity:1;paint-order:normal" />
        <path
           inkscape:connector-curvature="0"
           id="path1102"
           d="m 4051.2614,2698.8864 c -5.0746,-2.7355 -7.3208,-8.228 -6.5904,-16.1151 0.2066,-2.231 0.7119,-5.1255 1.3306,-7.6213 l 0.5247,-2.1167 0.9833,-0.1794 c 1.4769,-0.2694 6.7854,-0.2264 9.2743,0.075 6.9398,0.8408 12.4155,2.5792 16.3279,5.1838 0.7529,0.5012 1.3689,0.94 1.3689,0.9752 0,0.1486 -2.1916,4.4232 -3.0959,6.0384 -3.8608,6.8961 -7.462,11.0832 -11.0471,12.8445 -1.4712,0.7229 -2.9204,1.073 -5.1429,1.2425 -2.772,0.2115 -2.964,0.1955 -3.9334,-0.327 z"
           style="opacity:1;fill:#b3b3b3;fill-opacity:1;stroke:none;stroke-width:0.2775757;stroke-linecap:round;stroke-linejoin:round;stroke-miterlimit:4;stroke-dasharray:none;stroke-opacity:1;paint-order:normal" />
      </g>
    </g>
    <path
       style="fill:#ffeeaa;fill-opacity:0.37327193;stroke:none;stroke-width:0.03050595px;stroke-linecap:butt;stroke-linejoin:miter;stroke-opacity:1"
       d="m 88.460628,195.81865 c -0.467863,1.63621 -0.777854,1.94673 -1.304058,3.13355 -0.426009,0.90969 -0.137805,1.41543 1.033587,2.16276 0.943581,-0.42268 1.577541,-0.39687 1.313691,-1.917 -0.22713,-1.331 -1.03834,-1.81468 -1.04322,-3.37931 z"
       id="path876"
       inkscape:connector-curvature="0"
       sodipodi:nodetypes="ccccc" />
  </g>
  <style
     type="text/css"
     id="style1717">
	.st0{display:none;}
	.st1{fill:none;stroke:#000000;stroke-width:6;}
	.st2{fill:none;stroke:#000000;stroke-width:4;}
	.st3{fill:none;stroke:#000000;stroke-width:3;}
	.st4{stroke:#000000;stroke-miterlimit:10;}
	.st5{fill:none;stroke:#000000;stroke-width:5;stroke-linecap:round;stroke-linejoin:round;}
	.st6{fill:none;stroke:#000000;stroke-width:4;stroke-linecap:round;stroke-linejoin:round;}
	.st7{fill:none;stroke:#000000;stroke-width:5;}
	.st8{stroke:#000000;stroke-width:5;}
	.st9{fill:none;stroke:#000000;stroke-width:3;stroke-linecap:round;}
	.st10{fill:none;stroke:#000000;stroke-width:5;stroke-linecap:round;}
	.st11{fill:none;stroke:#000000;stroke-width:5;stroke-linejoin:round;}
	.st12{fill:none;stroke:#000000;stroke-width:3;stroke-linecap:round;stroke-linejoin:round;}
	.st13{fill:none;stroke:#000000;stroke-width:3;stroke-linecap:square;stroke-linejoin:round;}
</style>
</svg>
