<?xml version="1.0" encoding="UTF-8" standalone="no"?>
<!-- Created with Inkscape (http://www.inkscape.org/) -->

<svg
   xmlns:dc="http://purl.org/dc/elements/1.1/"
   xmlns:cc="http://creativecommons.org/ns#"
   xmlns:rdf="http://www.w3.org/1999/02/22-rdf-syntax-ns#"
   xmlns:svg="http://www.w3.org/2000/svg"
   xmlns="http://www.w3.org/2000/svg"
   xmlns:sodipodi="http://sodipodi.sourceforge.net/DTD/sodipodi-0.dtd"
   xmlns:inkscape="http://www.inkscape.org/namespaces/inkscape"
   version="1.1"
   id="svg2699"
   width="192"
   height="262"
   viewBox="0 0 192 262"
   sodipodi:docname="beer.svg"
   inkscape:version="0.92.4 5da689c313, 2019-01-14">
  <metadata
     id="metadata2705">
    <rdf:RDF>
      <cc:Work
         rdf:about="">
        <dc:format>image/svg+xml</dc:format>
        <dc:type
           rdf:resource="http://purl.org/dc/dcmitype/StillImage" />
        <dc:title></dc:title>
      </cc:Work>
    </rdf:RDF>
  </metadata>
  <defs
     id="defs2703" />
  <sodipodi:namedview
     pagecolor="#ffffff"
     bordercolor="#666666"
     borderopacity="1"
     objecttolerance="10"
     gridtolerance="10"
     guidetolerance="10"
     inkscape:pageopacity="0"
     inkscape:pageshadow="2"
     inkscape:window-width="1916"
     inkscape:window-height="996"
     id="namedview2701"
     showgrid="false"
     inkscape:zoom="2.5477435"
     inkscape:cx="46.475498"
     inkscape:cy="126.66542"
     inkscape:window-x="0"
     inkscape:window-y="54"
     inkscape:window-maximized="0"
     inkscape:current-layer="layer4">
    <inkscape:grid
       type="xygrid"
       id="grid3409" />
  </sodipodi:namedview>
  <g
     inkscape:groupmode="layer"
     id="layer5"
     inkscape:label="shadow"
     style="display:inline">
    <path
       style="fill:#cccccc;fill-opacity:0.67281105;stroke:none;stroke-width:1.08270097;stroke-linecap:round;stroke-linejoin:round;stroke-miterlimit:4;stroke-dasharray:none;stroke-opacity:1"
       d="m 49.280985,142.82127 c -1.978009,-0.0127 -3.947374,0.27889 -5.908633,0.91158 -0.318436,0.11481 -3.065089,0.85234 -6.590387,0.35531 -5.175937,-0.72975 -4.81424,1.13698 -4.81424,1.13698 -5.37142,-0.3823 -7.775792,-0.044 -7.298397,0.99487 -6.911848,-0.16286 -5.176983,0.78078 -7.476458,1.20805 -3.965685,-0.58638 -6.733344,0.19285 -9.043299,1.4923 -5.648942,0.54477 -6.504817,2.29735 -3.135453,5.11568 -0.938566,1.28191 0.515841,2.50797 3.607629,3.69522 -1.074075,1.24968 1.183356,2.34835 4.265592,3.41019 3.641405,2.60533 7.478168,4.88076 12.948335,4.40583 l 0.811869,-0.14976 29.68836,31.81427 c -2.097525,2.06282 -2.977768,5.21906 4.580529,5.78657 28.0072,1.82512 46.235468,2.20216 71.259548,0.14212 8.77147,-0.93871 3.06214,-3.8675 -1.6975,-6.02879 l -4.34746,-5.36096 c 13.33704,-0.89508 33.85048,2.88596 19.2915,-16.18527 -11.33118,-17.07468 -28.18941,-16.729 -45.23183,-15.80475 l -3.855138,-4.75349 c -0.60542,-0.74673 -1.88733,-1.33349 -4.49355,-1.60768 1.44429,-2.08569 -2.04445,-3.31578 -8.78889,-3.98175 -1.89892,-1.0507 -4.03568,-1.94149 -7.735566,-1.77655 -2.772943,-1.09463 -5.536658,-1.87923 -8.272998,-1.56335 -3.644636,-2.13642 -6.802236,-1.57514 -10.096892,-1.77655 -2.567238,-0.94436 -5.123514,-1.46375 -7.666671,-1.48007 z"
       id="path3252-9"
       inkscape:connector-curvature="0" />
  </g>
  <g
     inkscape:groupmode="layer"
     id="layer4"
     inkscape:label="beer"
     style="display:inline">
    <path
       style="color:#000000;font-style:normal;font-variant:normal;font-weight:normal;font-stretch:normal;font-size:medium;line-height:normal;font-family:sans-serif;font-variant-ligatures:normal;font-variant-position:normal;font-variant-caps:normal;font-variant-numeric:normal;font-variant-alternates:normal;font-feature-settings:normal;text-indent:0;text-align:start;text-decoration:none;text-decoration-line:none;text-decoration-style:solid;text-decoration-color:#000000;letter-spacing:normal;word-spacing:normal;text-transform:none;writing-mode:lr-tb;direction:ltr;text-orientation:mixed;dominant-baseline:auto;baseline-shift:baseline;text-anchor:start;white-space:normal;shape-padding:0;clip-rule:nonzero;display:inline;overflow:visible;visibility:visible;opacity:1;isolation:auto;mix-blend-mode:normal;color-interpolation:sRGB;color-interpolation-filters:linearRGB;solid-color:#000000;solid-opacity:1;vector-effect:none;fill:#000000;fill-opacity:1;fill-rule:nonzero;stroke:none;stroke-width:1.73132586;stroke-linecap:round;stroke-linejoin:round;stroke-miterlimit:4;stroke-dasharray:none;stroke-dashoffset:0;stroke-opacity:1;color-rendering:auto;image-rendering:auto;shape-rendering:auto;text-rendering:auto;enable-background:accumulate"
       d="m 99.541016,50.234375 c -2.188922,-0.03717 -4.583075,0.789485 -7.19336,2.466797 a 0.8657495,0.8657495 0 0 0 -0.0293,0.01953 c -0.02404,0.01683 -1.008086,0.596194 -2.179687,0.914063 -1.171601,0.317868 -2.594462,0.437858 -3.896484,-0.09766 -2.534177,-1.042287 -4.511976,-0.179412 -5.570313,0.966797 -0.602865,0.652921 -0.933958,1.301195 -1.142578,1.804688 -2.217329,-0.365679 -4.072936,-0.426965 -5.498047,0.01953 -1.325026,0.415139 -2.182488,1.406645 -2.626953,2.621094 -3.011769,-0.101946 -4.732088,0.354195 -5.785156,1.113281 -1.078008,0.777063 -1.453662,1.458253 -2.429688,1.912109 -1.779986,-0.603213 -3.600219,-0.517348 -5.308594,0.201172 -1.844344,0.775708 -3.598598,2.141753 -5.330078,3.794922 -3.063204,0.769671 -5.379676,2.316697 -6.710937,4.648438 -1.342684,2.351747 -1.694362,5.391461 -1.289063,8.976562 -1.929159,3.280091 -1.595294,6.632991 0.279297,9.658203 -0.91464,1.590649 -1.214432,3.201496 -0.884766,4.683594 0.350851,1.577326 1.243715,2.99244 2.294922,4.34375 0.673812,3.287895 1.456846,6.410785 2.917969,8.695315 0.744409,1.16392 1.686539,2.12153 2.890625,2.68555 1.185592,0.55536 2.597457,0.69814 4.181641,0.38477 l 1.722656,79.84374 c -1.936021,2.65811 -3.7962,5.90319 -4.341797,8.91016 -0.281645,1.55224 -0.213447,3.07884 0.511719,4.36133 0.725166,1.28249 2.094932,2.20606 4.029297,2.60351 a 0.8657495,0.8657495 0 0 0 0.02344,0.006 c 26.450642,4.67329 44.527449,5.64289 71.451169,0.35938 a 0.8657495,0.8657495 0 0 0 0.043,-0.01 c 2.51247,-0.62825 4.28899,-1.61401 5.44727,-2.90429 1.15827,-1.29029 1.64593,-2.86233 1.67773,-4.45118 0.062,-3.09823 -1.45232,-6.32303 -2.86719,-9.06835 l 0.33594,-12.77736 c 6.61519,-0.86553 14.24868,0.74512 20.70508,-3.20117 3.3882,-2.07093 6.34185,-5.68524 8.55078,-11.80272 2.20797,-6.11484 3.70888,-14.75559 4.26172,-27.06641 4.4e-4,-0.005 0.002,-0.008 0.002,-0.0137 0.92591,-11.07199 0.5268,-19.33423 -0.91406,-25.49805 -1.44259,-6.17125 -3.9564,-10.267937 -7.23437,-12.841801 -3.27798,-2.573865 -7.2144,-3.595049 -11.46289,-3.822266 -3.74313,-0.200188 -7.72887,0.222307 -11.71876,0.738281 l 0.29297,-11.140625 c 0.0283,-1.076152 -0.1756,-2.133143 -0.78515,-3.021484 -0.44352,-0.646357 -1.09235,-1.170282 -1.91992,-1.558594 1.26918,-2.451026 1.42434,-4.661175 0.39843,-6.435547 -1.09163,-1.888048 -3.34154,-3.090224 -6.2832,-3.96289 -0.4811,-1.258326 -1.06494,-2.48927 -2.08203,-3.410157 -1.00672,-0.911495 -2.47502,-1.355602 -4.27734,-1.285156 -0.87022,-1.294297 -1.8131,-2.463849 -2.98633,-3.248047 -1.10259,-0.736978 -2.45754,-0.995862 -3.9043,-0.794921 -0.97516,-2.390592 -2.43507,-3.688472 -4.02539,-4.09375 -1.66581,-0.424518 -3.26989,-0.23477 -4.61133,-0.410157 -1.58801,-2.051359 -3.51148,-3.442157 -5.80273,-3.748047 -0.30435,-0.04063 -0.613081,-0.06305 -0.925784,-0.06836 z m -0.03125,1.732422 c 0.249268,0.004 0.491884,0.02114 0.728514,0.05273 1.89304,0.252728 3.49977,1.35343 4.95117,3.369141 a 0.8657495,0.8657495 0 0 0 0.5625,0.349609 c 1.74005,0.287323 3.4059,0.0703 4.70117,0.400391 1.29529,0.330091 2.32854,1.00948 3.15235,3.552734 a 0.8657495,0.8657495 0 0 0 1.04687,0.56836 c 1.28581,-0.344494 2.23789,-0.11196 3.19727,0.529296 0.95938,0.641259 1.87868,1.750001 2.75391,3.101563 a 0.8657495,0.8657495 0 0 0 0.82226,0.388672 c 1.74359,-0.191209 2.72327,0.195837 3.48633,0.886719 0.76305,0.690882 1.30816,1.793952 1.7793,3.089843 a 0.8657495,0.8657495 0 0 0 0.58398,0.539063 c 2.97588,0.822413 4.89054,1.984941 5.66602,3.326172 0.7077,1.224025 0.66743,2.756842 -0.51953,4.929687 -2.45583,-0.985763 -5.20358,-1.400079 -8.12696,-1.466797 -3.2175,-0.07343 -6.6399,0.259483 -10.0918,0.667969 a 0.8657495,0.8657495 0 0 0 -0.72656,0.611328 c -0.73093,2.449547 -2.40085,4.193996 -4.10156,5.095703 -1.70071,0.901707 -3.31066,0.860849 -4.00781,0.253907 a 0.8657495,0.8657495 0 0 0 -1.38477,0.367187 c -0.49768,1.429366 -1.64518,2.451265 -2.91406,2.960938 -1.268878,0.509673 -2.603606,0.453181 -3.378907,-0.04102 a 0.8657495,0.8657495 0 0 0 -0.849609,-0.04492 c -1.826208,0.906938 -3.361539,1.858271 -4.648438,2.310547 -1.286898,0.452276 -2.192371,0.493211 -3.324218,-0.314453 a 0.8657495,0.8657495 0 0 0 -1.210938,0.207031 c -1.330849,1.891125 -2.509634,2.861521 -3.449219,3.214844 -0.939585,0.353322 -1.68337,0.2106 -2.564453,-0.361328 a 0.8657495,0.8657495 0 0 0 -0.630859,-0.125 c -1.664363,0.312947 -3.201347,0.571021 -4.398438,0.220703 -1.197091,-0.350318 -2.241987,-1.223118 -3.097656,-3.75586 a 0.8657495,0.8657495 0 0 0 -0.796875,-0.58789 c -3.148172,-0.0866 -4.713914,-1.393951 -5.636719,-3.810547 a 0.8657495,0.8657495 0 0 0 -0.830078,-0.556641 l -9.761719,0.257813 a 0.8657495,0.8657495 0 0 0 -0.841796,0.882812 l 0.544921,25.283197 a 0.8657495,0.8657495 0 0 0 -0.240234,0.0215 c -1.329168,0.27408 -2.330921,0.14496 -3.169922,-0.24805 -0.839,-0.39301 -1.545267,-1.07826 -2.166015,-2.04883 -1.241498,-1.94113 -2.051129,-4.98614 -2.722657,-8.289057 A 0.8657495,0.8657495 0 0 0 47.724609,97.390629 C 46.687467,96.081298 45.90941,94.795276 45.634766,93.560551 45.360122,92.325825 45.515822,91.130793 46.490234,89.69727 a 0.8657495,0.8657495 0 0 0 0.002,-0.970704 c -1.922371,-2.846611 -2.253688,-5.474192 -0.347657,-8.5 a 0.8657495,0.8657495 0 0 0 0.126953,-0.568359 c -0.433098,-3.486381 -0.05365,-6.209562 1.072266,-8.181641 1.125919,-1.972076 2.996927,-3.28618 5.888672,-3.943359 A 0.8657495,0.8657495 0 0 0 53.640625,67.3125 c 1.68383,-1.620718 3.344534,-2.881714 4.912109,-3.541016 1.567576,-0.659301 2.993922,-0.755122 4.494141,-0.103515 a 0.8657495,0.8657495 0 0 0 0.673828,0.0078 c 1.575477,-0.643322 2.136602,-1.651382 2.910156,-2.208984 0.773554,-0.557603 1.959576,-1.018401 5.244141,-0.816406 a 0.8657495,0.8657495 0 0 0 0.908203,-0.722657 c 0.173536,-1.060119 0.640125,-1.594639 1.765625,-1.947265 1.1255,-0.352627 2.946099,-0.360713 5.388672,0.113281 a 0.8657495,0.8657495 0 0 0 1,-0.625 c 0,0 0.292023,-1.015956 1.005859,-1.789062 0.713837,-0.773108 1.639573,-1.364034 3.640625,-0.541016 1.786893,0.734935 3.605601,0.548405 5.007813,0.167969 1.375679,-0.373238 2.284097,-0.868465 2.691406,-1.148438 2.423216,-1.557105 4.481682,-2.219272 6.226563,-2.191406 z m -14.486328,9.634765 c -2.108222,0.05355 -3.843206,0.534725 -5.183594,1.476563 -1.531873,1.076386 -2.472147,2.738048 -2.857422,4.751953 a 0.86607943,0.86607943 0 1 0 1.701172,0.326172 c 0.323472,-1.69085 1.018374,-2.864733 2.15039,-3.660156 1.132017,-0.795424 2.775941,-1.230042 5.0625,-1.160156 a 0.8657495,0.8657495 0 1 0 0.05273,-1.730469 c -0.316373,-0.0097 -0.624607,-0.01156 -0.925781,-0.0039 z m 27.326172,5.001954 a 0.8657495,0.8657495 0 0 0 -0.72461,1.298828 c 0.5905,1.051988 0.68752,1.791471 0.60742,2.027344 -0.0401,0.117935 -0.0816,0.185117 -0.28906,0.292968 -0.20749,0.107851 -0.58927,0.212892 -1.15234,0.244141 a 0.8657495,0.8657495 0 1 0 0.0957,1.728515 c 0.72132,-0.04003 1.33312,-0.165982 1.85547,-0.4375 0.52235,-0.271516 0.94473,-0.729155 1.1289,-1.271484 0.36835,-1.084657 -0.0465,-2.202663 -0.73632,-3.43164 a 0.8657495,0.8657495 0 0 0 -0.78516,-0.451172 z m -45.210938,0.648437 a 0.8657495,0.8657495 0 0 0 -0.230469,0.04492 c -2.675232,0.857229 -3.736443,3.317476 -3.328125,5.375 0.204159,1.028762 0.746965,1.986269 1.601563,2.638672 0.854597,0.652403 2.02888,0.962623 3.30664,0.724609 a 0.8657495,0.8657495 0 1 0 -0.318359,-1.701172 c -0.848311,0.158019 -1.456718,-0.03141 -1.9375,-0.398437 -0.480782,-0.367031 -0.825778,-0.948061 -0.955078,-1.599609 -0.258602,-1.303099 0.227262,-2.771265 2.160156,-3.390626 a 0.8657495,0.8657495 0 0 0 -0.212891,-1.693359 0.8657495,0.8657495 0 0 0 -0.08594,0 z m 36.916018,1.275391 a 0.8657495,0.8657495 0 0 0 -0.0859,0.002 0.8657495,0.8657495 0 0 0 -0.77539,1.09375 c 0.32859,1.267739 0.44904,2.303173 0.39453,3.066406 -0.0545,0.763233 -0.26273,1.221941 -0.55859,1.515625 -0.29586,0.293685 -0.73951,0.489569 -1.49024,0.523438 -0.75073,0.03387 -1.77606,-0.119025 -3.037107,-0.5 a 0.8657495,0.8657495 0 1 0 -0.5,1.65625 c 1.381135,0.417255 2.572097,0.619326 3.615237,0.572265 1.04314,-0.04706 1.97252,-0.368006 2.63281,-1.023437 0.66029,-0.655432 0.98995,-1.577998 1.06445,-2.621094 0.0745,-1.043096 -0.0864,-2.240168 -0.44531,-3.625 a 0.8657495,0.8657495 0 0 0 -0.81445,-0.660156 z m 18.07226,1.285156 a 0.8657495,0.8657495 0 0 0 -0.85351,0.876953 c 0,0.645142 -0.075,1.128044 -0.17578,1.416016 -0.10079,0.287971 -0.18782,0.350746 -0.24414,0.378906 -0.0563,0.02816 -0.18292,0.06465 -0.49805,-0.02539 -0.31513,-0.09004 -0.77502,-0.313501 -1.32617,-0.6875 a 0.8657495,0.8657495 0 1 0 -0.97071,1.431641 c 0.6475,0.439374 1.23646,0.753105 1.82032,0.919922 0.58385,0.166817 1.20699,0.181656 1.75,-0.08984 0.543,-0.271504 0.90464,-0.787258 1.10351,-1.355469 0.19888,-0.568211 0.27344,-1.220722 0.27344,-1.988281 A 0.8657495,0.8657495 0 0 0 122.12695,69.8125 Z m -28.134762,2.183594 a 0.8657495,0.8657495 0 0 0 -0.824219,1.054687 c 0.239852,1.141485 0.233018,1.921382 0.121093,2.376953 -0.111924,0.455572 -0.257939,0.597875 -0.517578,0.732422 -0.519277,0.269095 -1.812568,0.201205 -3.242187,-0.03125 a 0.8657495,0.8657495 0 1 0 -0.277344,1.708985 c 1.460742,0.237515 2.990989,0.546218 4.316406,-0.140625 0.662709,-0.343422 1.19485,-1.012849 1.402344,-1.857422 0.207494,-0.844573 0.161958,-1.85323 -0.109375,-3.144532 a 0.8657495,0.8657495 0 0 0 -0.86914,-0.699218 z m -39.013672,1.544922 a 0.8657495,0.8657495 0 0 0 -0.466797,0.140625 c -0.89977,0.565181 -1.452367,1.376383 -1.658203,2.210937 -0.205837,0.834555 -0.09401,1.665981 0.166015,2.384766 0.260023,0.718785 0.664017,1.337852 1.166016,1.792968 0.501999,0.455118 1.207236,0.836757 1.986328,0.548829 a 0.8657495,0.8657495 0 1 0 -0.601563,-1.623047 c 0.12354,-0.04566 0.02402,0.01465 -0.222656,-0.208985 -0.246675,-0.223638 -0.534576,-0.639086 -0.701172,-1.099609 -0.166595,-0.460523 -0.216109,-0.954075 -0.111328,-1.378906 0.104781,-0.424831 0.335176,-0.808303 0.898438,-1.16211 a 0.8657495,0.8657495 0 0 0 -0.455078,-1.605468 z m 69.263674,3.796875 c 3.00019,0.06952 5.73707,0.496567 8.03515,1.519531 a 0.8657495,0.8657495 0 0 0 0.41211,0.160156 c 0.95263,0.306526 1.50815,0.723786 1.84375,1.212891 0.35276,0.514102 0.50433,1.161577 0.48242,1.99414 l -0.80859,30.845701 c -0.0105,0.0272 -0.0249,0.0528 -0.0352,0.0801 l 0.0312,0.0117 -2.01171,76.68555 a 0.8657495,0.8657495 0 0 0 0.0957,0.42187 c 1.41699,2.73511 2.82832,5.91396 2.77734,8.46094 -0.0255,1.27349 -0.37356,2.36899 -1.23633,3.33008 -0.86036,0.95842 -2.2882,1.80358 -4.5625,2.375 -26.71757,5.23981 -44.429167,4.2866 -70.76562,-0.36524 -1.594204,-0.32798 -2.415311,-0.95714 -2.869141,-1.75976 -0.454038,-0.80299 -0.553215,-1.89409 -0.316406,-3.19922 0.473618,-2.61027 2.301738,-5.89852 4.207031,-8.46875 a 0.8657495,0.8657495 0 0 0 0.169922,-0.5332 L 57.398438,83.861328 65.775391,83.640625 c 1.137784,2.417727 3.270356,4.019331 6.378906,4.269531 0.969354,2.449106 2.351469,3.88495 3.972656,4.359375 1.680075,0.491659 3.38689,0.156326 4.986328,-0.146484 1.127826,0.606203 2.412976,0.856243 3.703125,0.371094 1.296994,-0.487723 2.544794,-1.641546 3.832032,-3.34375 1.366309,0.648479 2.794314,0.712964 4.117187,0.248047 1.492184,-0.524423 2.966687,-1.442505 4.587891,-2.267579 1.327402,0.587307 2.892974,0.604633 4.359374,0.01563 1.39205,-0.559147 2.57647,-1.696757 3.36914,-3.15625 1.46535,0.680484 3.35484,0.425181 5.10352,-0.501953 1.93568,-1.026286 3.67701,-2.970294 4.63476,-5.544922 3.27372,-0.379231 6.48168,-0.673597 9.42188,-0.605468 z m -38.464846,1.080078 a 0.8657495,0.8657495 0 0 0 -0.742188,1.289062 c 0.08246,0.151721 0.089,0.0776 -0.08789,0.269531 -0.176895,0.191931 -0.615898,0.45361 -1.148438,0.59961 -1.06508,0.291999 -2.335158,0.11517 -2.845703,-0.533203 a 0.86584954,0.86584954 0 1 0 -1.361328,1.070312 c 1.147636,1.457453 3.136012,1.552274 4.666015,1.132813 0.765003,-0.209731 1.456597,-0.548327 1.962891,-1.097656 0.506295,-0.549331 0.748411,-1.505034 0.333985,-2.267579 a 0.8657495,0.8657495 0 0 0 -0.777344,-0.46289 z m -34.501953,9.505859 a 0.8657495,0.8657495 0 0 0 -0.69336,0.410156 c -0.755887,1.192145 -1.109255,2.459829 -0.855469,3.689454 0.253789,1.229624 1.081885,2.31751 2.357422,3.251953 a 0.8657495,0.8657495 0 1 0 1.023438,-1.396485 c -1.052501,-0.771049 -1.54102,-1.504829 -1.685547,-2.205078 -0.144527,-0.700249 0.02423,-1.470767 0.621094,-2.412109 a 0.8657495,0.8657495 0 0 0 -0.767578,-1.337891 z m 77.847659,2.716797 c -29.03928,6.955253 -47.514824,4.847771 -65.337894,0.259766 l -0.43164,1.677734 c 17.980781,4.628603 36.892454,6.758863 66.171874,-0.253906 z m 17.36328,3.740234 c 4.62646,0.04231 8.79612,0.899532 12.07812,3.476563 2.91734,2.290698 5.23879,5.970008 6.61914,11.874998 1.38036,5.905 1.79184,14.01312 0.8711,24.99219 v 0.0176 l -0.002,0.0176 c -0.54756,12.21462 -2.04541,20.70632 -4.16211,26.56835 -2.11668,5.86205 -4.81364,9.072 -7.82421,10.91211 -5.66136,3.46033 -12.81876,2.04102 -19.75782,2.91993 l 0.26563,-10.11133 c 5.45284,0.51014 10.92991,0.27346 15.16211,-3.41211 4.58307,-3.99112 7.45524,-11.76204 7.55859,-26.20313 0.49894,-8.97896 -0.37206,-15.48389 -2.07617,-20.08398 -1.70639,-4.60624 -4.28613,-7.32395 -7.13281,-8.51953 -1.42334,-0.59779 -2.88435,-0.8186 -4.30664,-0.73242 -3.0175,0.18281 -5.85192,1.74476 -7.76172,3.98046 l 0.39062,-14.912104 c 3.4792,-0.44919 6.89041,-0.814308 10.07813,-0.785157 z M 66.509766,99.34375 a 0.61839255,0.61839255 0 0 0 -0.597657,0.638672 l 0.513672,29.281248 a 0.61839255,0.61839255 0 1 0 1.236328,-0.0215 L 67.148438,99.960938 A 0.61839255,0.61839255 0 0 0 66.509766,99.34375 Z m 78.234374,8.49609 c 0.89654,0.0332 1.79724,0.2186 2.67188,0.58594 2.33234,0.97957 4.59203,3.23772 6.17968,7.52344 1.58765,4.28572 2.4651,10.58118 1.97071,19.41992 l -0.002,0.0215 v 0.0195 c -0.10038,14.22177 -2.95628,21.43106 -6.96484,24.92187 -3.72607,3.24481 -8.67046,3.4884 -13.98047,2.98242 l 1.30859,-49.85937 c 1.37202,-3.19263 5.05226,-5.7545 8.81641,-5.61524 z m 13.79102,32.50586 a 0.61839255,0.61839255 0 0 0 -0.58789,0.58594 c -0.61628,9.08904 -2.15065,15.87959 -4.54688,20.24805 -2.39622,4.36845 -5.52617,6.32348 -9.69141,6.05664 a 0.61841977,0.61841977 0 1 0 -0.0781,1.23437 c 4.60801,0.29521 8.30623,-2.05343 10.85352,-6.69726 2.54726,-4.64384 4.07256,-11.57334 4.69531,-20.75782 a 0.61839255,0.61839255 0 0 0 -0.64453,-0.66992 z m -89.146488,1.97852 c -0.194506,-0.004 -0.385571,0.009 -0.574219,0.041 -0.754592,0.12843 -1.419377,0.54395 -1.970703,1.13672 -1.102652,1.18555 -1.847464,3.07455 -2.408203,5.42969 -1.121478,4.71029 -1.432312,11.32813 -1.205078,17.76953 0.227234,6.4414 0.992164,12.67894 2.099609,16.63281 0.553723,1.97694 1.097494,3.3928 2.060547,4.08594 0.481526,0.34657 1.201415,0.39332 1.726563,0.0606 0.525146,-0.33282 0.915649,-0.8977 1.308593,-1.70703 a 0.61839255,0.61839255 0 1 0 -1.111328,-0.53906 c -0.34187,0.70412 -0.676312,1.08515 -0.859375,1.20117 -0.183062,0.11601 -0.156326,0.11392 -0.341797,-0.0195 -0.370941,-0.26698 -1.06401,-1.53168 -1.591797,-3.41602 -1.055572,-3.76868 -1.829951,-9.9712 -2.054687,-16.3418 -0.224737,-6.37059 0.09946,-12.9372 1.171875,-17.4414 0.536205,-2.2521 1.278341,-3.97954 2.109375,-4.87305 0.415517,-0.44676 0.830092,-0.68431 1.273437,-0.75977 0.443345,-0.0754 0.95304,0.005 1.585938,0.3418 a 0.61839255,0.61839255 0 1 0 0.580078,-1.0918 c -0.608056,-0.32326 -1.215311,-0.497 -1.798828,-0.50976 z m 37.037108,0.83398 c -0.1945,-0.004 -0.38557,0.009 -0.57422,0.041 -0.75459,0.12843 -1.41937,0.54394 -1.9707,1.13672 -1.10265,1.18555 -1.84746,3.07454 -2.4082,5.42968 -1.12148,4.71029 -1.43232,11.32813 -1.20508,17.76954 0.22723,6.4414 0.99216,12.67893 2.09961,16.63281 0.55372,1.97694 1.09749,3.3928 2.06054,4.08594 0.48153,0.34656 1.20142,0.3934 1.72657,0.0605 0.52514,-0.33281 0.91565,-0.8977 1.30859,-1.70703 a 0.61846141,0.61846141 0 1 0 -1.11328,-0.53906 c -0.34187,0.70413 -0.67436,1.08711 -0.85742,1.20312 -0.18307,0.11602 -0.15633,0.11203 -0.3418,-0.0215 -0.37094,-0.26698 -1.06401,-1.53168 -1.5918,-3.41602 -1.05557,-3.76867 -1.82995,-9.9712 -2.05468,-16.34179 -0.22474,-6.3706 0.0995,-12.93721 1.17187,-17.44141 0.53621,-2.2521 1.27834,-3.97758 2.10938,-4.87109 0.41551,-0.44676 0.83009,-0.68627 1.27343,-0.76172 0.44335,-0.0755 0.95304,0.005 1.58594,0.3418 a 0.61839255,0.61839255 0 1 0 0.58008,-1.0918 c -0.60806,-0.32327 -1.21531,-0.49701 -1.79883,-0.50977 z m -18.367186,0.94727 c -0.189735,-0.001 -0.37581,0.0116 -0.558594,0.0391 -0.731138,0.10979 -1.401011,0.4443 -1.957031,0.96875 -1.11204,1.0489 -1.865653,2.7284 -2.429688,4.80664 -1.128069,4.15648 -1.438545,9.97074 -1.210937,15.63086 0.227607,5.66012 0.993283,11.13738 2.107422,14.62695 0.557069,1.74479 1.123324,3.0204 2.083984,3.62696 0.48033,0.30328 1.143721,0.34206 1.664062,0.0527 0.520343,-0.2893 0.926282,-0.79856 1.324219,-1.51758 A 0.61839255,0.61839255 0 1 0 88,181.74219 c -0.336877,0.60869 -0.655884,0.9307 -0.84375,1.03515 -0.187866,0.10445 -0.215677,0.0983 -0.402344,-0.0195 -0.373333,-0.23572 -1.041966,-1.31248 -1.566406,-2.95508 -1.04888,-3.28518 -1.824465,-8.72132 -2.048828,-14.30078 -0.224364,-5.57945 0.102151,-11.3307 1.167969,-15.25781 0.532909,-1.96355 1.264292,-3.45547 2.085937,-4.23047 0.821645,-0.77499 1.641076,-0.96181 2.916016,-0.36719 a 0.61839255,0.61839255 0 1 0 0.521484,-1.12109 c -0.604627,-0.28201 -1.202279,-0.41636 -1.771484,-0.41992 z m 32.712886,2.02539 c -0.56683,0.004 -1.16188,0.13514 -1.76562,0.4082 a 0.61844444,0.61844444 0 1 0 0.50976,1.12696 c 1.27731,-0.57838 2.10973,-0.39542 2.92969,0.35546 0.81996,0.75089 1.54802,2.1943 2.08008,4.09766 1.06413,3.80673 1.39028,9.3881 1.16602,14.80274 -0.22427,5.41462 -0.9997,10.69061 -2.04688,13.875 -0.52359,1.59218 -1.18776,2.6316 -1.5625,2.86132 -0.18737,0.11486 -0.22665,0.11978 -0.41601,0.0176 -0.18937,-0.10222 -0.50415,-0.41305 -0.83985,-1.00195 a 0.61847817,0.61847817 0 1 0 -1.07422,0.61328 c 0.39912,0.70015 0.80735,1.1965 1.32617,1.47656 0.51884,0.28007 1.17077,0.24326 1.6504,-0.0508 0.95925,-0.58803 1.53192,-1.83273 2.08984,-3.5293 1.11583,-3.39313 1.88167,-8.71323 2.10937,-14.21093 0.22771,-5.49771 -0.0812,-11.146 -1.21093,-15.1875 -0.56488,-2.02076 -1.32378,-3.65589 -2.4375,-4.67578 -0.55687,-0.50997 -1.22319,-0.83517 -1.95118,-0.94141 -0.18199,-0.0266 -0.36769,-0.0385 -0.55664,-0.0371 z m 8.19336,43.64453 c -23.87429,4.31462 -45.415936,3.78368 -65.537106,0.25586 L 63.212891,191.25 c 20.248378,3.55012 41.952709,4.08313 65.972659,-0.25781 z"
       id="path3252"
       inkscape:connector-curvature="0" />
    <path
       style="opacity:1;fill:#ffcc00;fill-opacity:0.99539173;stroke:none;stroke-width:1.35884941;stroke-linecap:round;stroke-linejoin:round;stroke-miterlimit:4;stroke-dasharray:none;stroke-opacity:1;paint-order:normal"
       d="m 81.636572,207.07323 c -8.502437,-0.83175 -23.873557,-3.48816 -24.843883,-4.29345 -1.638488,-1.35983 -1.267126,-4.41572 1.055119,-8.68245 l 2.116513,-3.88873 -0.956857,-47.63555 c -0.526271,-26.19956 -0.948821,-50.02002 -0.939,-52.934363 l 0.01786,-5.298807 h 3.803375 c 2.790029,0 4.177104,0.412966 5.206084,1.549977 0.77149,0.852486 2.057694,1.757859 2.858231,2.01194 1.823449,0.57874 6.396955,5.077336 5.145857,5.061572 -0.506481,-0.0064 -3.189323,-0.546302 -5.96187,-1.199822 -3.399702,-0.801348 -5.299588,-0.929625 -5.835229,-0.393984 -1.194233,1.194232 -0.570514,1.481117 7.023772,3.230639 10.244319,2.360019 30.765556,2.921836 42.671886,1.16824 12.66564,-1.865426 16.52365,-2.84805 16.52365,-4.208519 0,-1.244373 0.23035,-1.265023 -11.77512,1.055632 -7.98976,1.544417 -29.910222,2.317249 -36.502889,1.286952 l -4.71005,-0.736084 4.365776,-0.09573 c 3.186792,-0.06987 4.82087,-0.51971 6.05099,-1.665742 0.926869,-0.86351 2.606344,-1.570017 3.732168,-1.570017 1.125824,0 2.81855,-0.419987 3.761613,-0.933305 0.943065,-0.513317 3.067286,-1.007853 4.720494,-1.098967 1.790488,-0.09868 3.715348,-0.832222 4.760638,-1.814225 0.96515,-0.906709 2.75819,-1.648562 3.98454,-1.648562 1.58017,0 3.09991,-0.914747 5.21677,-3.140033 l 2.98704,-3.140034 h 6.743 c 6.78023,0 10.80677,1.156013 11.51959,3.307252 0.18412,0.555662 -0.3237,25.03156 -1.12848,54.39086 l -1.46325,53.38057 1.70372,4.91038 c 1.55718,4.48803 1.60014,5.0685 0.49941,6.74842 -1.58936,2.42567 -4.07617,3.31656 -13.49355,4.83403 -7.66413,1.23495 -31.813297,2.13106 -38.857915,1.44191 z m 41.007118,-14.62957 c 3.34084,-0.58401 6.31406,-1.30165 6.60716,-1.59475 1.21236,-1.21236 -0.71614,-1.44476 -5.37728,-0.64801 -17.35852,2.96716 -44.190553,2.81545 -58.918426,-0.33313 -1.583597,-0.33855 -2.158773,-0.15473 -2.158773,0.68991 0,0.87585 1.925834,1.37652 8.046336,2.09186 4.425485,0.51724 8.576216,1.06944 9.223848,1.2271 2.810109,0.68414 37.060375,-0.46859 42.577135,-1.43298 z m -15.23395,-5.53974 c 0.21605,-1.13295 -0.0638,-1.34158 -1.2812,-0.95519 -2.59825,0.82465 -3.68925,-5.54461 -3.68925,-21.538 0,-15.83717 0.84848,-19.30138 4.84187,-19.7686 2.16729,-0.25357 2.18089,-0.28422 0.54084,-1.21859 -2.58097,-1.47043 -5.35952,1.13652 -6.67486,6.2626 -2.133199,8.31346 -0.97024,30.95698 1.91519,37.28981 0.99826,2.19093 3.92511,2.14244 4.34741,-0.0721 z m -36.895398,-0.785 c 0.216051,-1.13296 -0.06378,-1.34159 -1.281196,-0.9552 -2.618308,0.83102 -3.689246,-5.5351 -3.689246,-21.9305 0,-12.05394 0.204817,-14.50502 1.393924,-16.68143 0.844782,-1.54619 2.004496,-2.55127 2.943781,-2.55127 1.713065,0 2.11451,-1.2492 0.568598,-1.76934 -3.475997,-1.16954 -5.628674,2.09112 -6.948784,10.52532 -1.478366,9.44532 0.0093,28.96549 2.581907,33.87836 0.948413,1.81116 4.05625,1.44929 4.431016,-0.51594 z m 52.978798,-1.66123 c 2.18647,-2.18647 3.28141,-9.1377 3.28141,-20.83196 0,-9.38537 -0.24247,-11.8262 -1.38189,-13.91063 -1.53847,-2.81446 -4.04555,-4.4891 -5.74452,-3.83715 -1.79138,0.68742 -1.28579,2.04761 0.76111,2.04761 1.4487,0 2.15634,0.69741 3.09958,3.0548 2.53884,6.3452 2.36031,21.45982 -0.35147,29.75509 -0.65839,2.01399 -1.07499,2.3968 -1.88067,1.72815 -1.43925,-1.19447 -2.40242,0.48555 -1.14617,1.99923 1.19545,1.44043 1.91815,1.43932 3.36262,-0.005 z m -34.277373,-1.63312 c 0.638835,-1.66477 -0.241443,-2.3472 -1.587111,-1.23039 -1.589187,1.3189 -2.713433,-2.34753 -3.763368,-12.27321 -1.385399,-13.09704 1.01328,-24.57133 4.880035,-23.34407 1.085843,0.34463 1.526341,0.11499 1.526341,-0.79571 0,-0.97139 -0.61534,-1.22082 -2.551277,-1.03416 -2.087108,0.20124 -2.83692,0.81728 -4.121294,3.38602 -1.371936,2.74387 -1.566502,4.67517 -1.542161,15.30767 0.02678,11.69767 0.897099,17.77971 2.892546,20.21396 1.120239,1.36659 3.707123,1.22706 4.266289,-0.23011 z M 68.014114,123.86436 c -0.279231,-3.3033 -0.507693,-10.19175 -0.507693,-15.30766 0,-5.67777 -0.305836,-9.301661 -0.785008,-9.301661 -0.496501,0 -0.785009,5.625891 -0.785009,15.307661 0,13.68971 0.136634,15.30767 1.292702,15.30767 1.13186,0 1.229534,-0.74728 0.785008,-6.00601 z"
       id="path3653"
       inkscape:connector-curvature="0" />
    <path
       style="opacity:1;fill:#ffffff;fill-opacity:0.67281105;stroke:none;stroke-width:0.6794247;stroke-linecap:round;stroke-linejoin:round;stroke-miterlimit:4;stroke-dasharray:none;stroke-opacity:1;paint-order:normal"
       d="m 134.43143,173.74656 c 0,-0.70883 0.11476,-2.90557 0.25502,-4.88163 l 0.25503,-3.59283 3.57189,-0.005 c 7.64763,-0.01 12.0794,-2.54611 15.17899,-8.68635 2.54639,-5.04437 3.89681,-13.72707 3.89681,-25.05498 0,-10.89219 -1.93977,-18.26731 -5.86968,-22.31681 -1.98579,-2.04622 -3.5267,-2.82659 -6.10724,-3.09293 -2.85215,-0.29437 -4.39352,0.065 -6.99344,1.63062 l -2.22486,1.33974 v -6.79441 c 0,-6.710328 0.0109,-6.797505 0.88313,-7.044364 1.82165,-0.515579 11.49532,-0.718295 13.77055,-0.288569 7.57892,1.431439 11.90935,6.190033 14.12137,15.517643 0.7614,3.21064 0.84717,4.66867 0.84517,14.36714 -0.005,22.84441 -2.86127,37.56174 -8.58043,44.20761 -3.27195,3.80211 -7.00611,5.14911 -15.15223,5.46576 -2.91434,0.11329 -5.87284,0.27614 -6.57444,0.36189 -1.21184,0.14812 -1.27564,0.0915 -1.27564,-1.13287 z m 14.81265,-6.36454 c 5.26325,-2.52343 8.98592,-11.49557 9.79178,-23.59953 0.2127,-3.19465 0.16481,-3.63066 -0.39875,-3.63066 -0.72676,0 -0.90492,0.639 -1.2585,4.5138 -1.13234,12.40924 -4.88256,20.30921 -10.42197,21.95424 -1.13854,0.33811 -2.47959,0.61475 -2.9801,0.61475 -0.87847,0 -1.21909,0.73761 -0.61813,1.33857 0.49721,0.49721 3.72787,-0.15662 5.88567,-1.19117 z"
       id="path3655"
       inkscape:connector-curvature="0" />
    <path
       style="opacity:1;fill:#ffffff;fill-opacity:0.93548387;stroke:none;stroke-width:0.6794247;stroke-linecap:round;stroke-linejoin:round;stroke-miterlimit:4;stroke-dasharray:none;stroke-opacity:1;paint-order:normal"
       d="m 52.469744,107.56221 c -1.493397,-0.9105 -2.838028,-3.53361 -3.816784,-7.44581 -0.351054,-1.403201 -1.078935,-3.230842 -1.617513,-4.06142 -1.290755,-1.990569 -1.529084,-3.68196 -0.773594,-5.490101 0.580788,-1.390021 0.567393,-1.555489 -0.252679,-3.121357 -0.975613,-1.862861 -1.082228,-4.184134 -0.274247,-5.971069 0.292833,-0.647632 0.560888,-2.590528 0.595678,-4.317546 0.03585,-1.779575 0.319312,-3.740374 0.654254,-4.525661 0.846043,-1.983591 2.755017,-3.736093 4.845604,-4.448428 0.994275,-0.338784 2.416777,-1.150683 3.161114,-1.80422 2.632051,-2.310971 6.436444,-3.53569 7.993596,-2.573318 0.499288,0.308577 1.881101,-0.409376 3.25546,-1.691449 0.880997,-0.821839 1.569534,-1.044036 3.644691,-1.176172 2.33328,-0.148572 2.608708,-0.260013 3.12892,-1.265991 0.722884,-1.397904 1.663581,-1.692024 5.140866,-1.607351 2.7715,0.06749 2.799838,0.05776 3.291992,-1.130408 0.739851,-1.786157 1.693915,-2.142407 4.155846,-1.551799 2.830214,0.678958 4.949289,0.30289 8.807998,-1.563139 4.70985,-2.277629 7.088714,-2.118495 9.698594,0.648787 1.20105,1.273487 1.60622,1.444497 3.95672,1.670044 3.27965,0.314704 4.0628,0.747682 4.96293,2.743811 0.68743,1.524431 0.79649,1.593866 2.50352,1.593866 1.6344,0 1.94003,0.165357 3.62729,1.96252 1.28059,1.364 2.14892,1.962521 2.84719,1.962521 1.73783,0 2.89501,0.813735 3.97254,2.793514 0.57371,1.054095 1.25287,1.918262 1.50924,1.920371 0.25638,0.0021 1.39212,0.434945 2.52388,0.961859 2.66867,1.242453 3.60686,2.938162 2.91087,5.261178 l -0.46261,1.54404 -1.86049,-0.619465 c -2.06467,-0.687443 -11.76432,-0.911703 -15.11752,-0.349523 -1.72681,0.289508 -1.93924,0.452212 -2.69804,2.066486 -1.4917,3.173454 -4.97478,5.170752 -7.22739,4.144394 -0.75854,-0.345614 -1.04411,-0.306916 -1.44185,0.195385 -0.27279,0.344496 -1.0764,1.2468 -1.78581,2.005119 -1.23353,1.31858 -1.38074,1.369381 -3.372464,1.163816 -1.825388,-0.188396 -2.411248,-0.04955 -4.743107,1.124066 -2.681785,1.349734 -4.277915,1.669487 -4.724742,0.946507 -0.490936,-0.79435 -1.54923,-0.349819 -3.153701,1.3247 l -1.645369,1.717204 -4.175316,-0.08672 c -4.661564,-0.09682 -5.197224,-0.34541 -6.579273,-3.053309 -0.574726,-1.12608 -0.989002,-1.47189 -1.76331,-1.47189 -1.729049,0 -3.506702,-1.1228 -4.458307,-2.815951 l -0.904873,-1.610005 -5.32211,0.276044 c -2.92716,0.151825 -5.483823,0.375989 -5.681472,0.498143 -0.215198,0.133 -0.243472,5.397608 -0.07048,13.123303 l 0.288885,12.901204 -1.126279,-0.002 c -0.619453,-7.9e-4 -1.71221,-0.3587 -2.42835,-0.79531 z m 1.10582,-12.91444 c 0,-0.37103 -0.455214,-1.10225 -1.011586,-1.624932 -0.807628,-0.75873 -0.963427,-1.187996 -0.772723,-2.129067 0.485637,-2.396496 0.436808,-2.744992 -0.4014,-2.864843 -1.02106,-0.145997 -1.739333,1.30353 -1.739333,3.510099 0,1.286268 0.255849,1.84665 1.336497,2.927296 1.387529,1.38753 2.588545,1.471714 2.588545,0.181447 z M 85.974999,81.490294 c 1.09385,-1.09385 1.239351,-2.243996 0.374664,-2.961623 -0.469717,-0.389829 -0.707795,-0.389829 -1.177512,0 -0.323816,0.268743 -0.588756,0.713041 -0.588756,0.987327 0,0.972555 -2.229174,1.305564 -3.485871,0.520745 -0.774862,-0.48391 -2.009188,-0.221684 -2.009188,0.42684 0,0.214243 0.386559,0.749668 0.859019,1.189832 1.311011,1.221392 4.735814,1.128709 6.027644,-0.163121 z M 56.645085,80.379902 c 0.48465,-0.583967 0.16342,-1.213121 -0.800926,-1.568676 -0.875374,-0.32275 -1.342806,-2.17834 -0.753878,-2.992709 0.813028,-1.124254 0.95125,-1.653451 0.539432,-2.065269 -0.68679,-0.686791 -1.945518,0.02494 -2.642788,1.494328 -0.622599,1.31203 -0.622981,1.508525 -0.0061,3.123905 0.878583,2.300538 2.626613,3.258662 3.664221,2.008421 z M 94.367511,77.101974 C 95.66933,75.446978 95.420156,71.8561 94.003495,71.8561 c -0.796289,0 -1.263102,0.890263 -0.926612,1.767146 0.124447,0.324299 0.112291,1.043741 -0.027,1.598759 -0.22558,0.898773 -0.434086,1.002001 -1.906727,0.943983 -2.474758,-0.0975 -2.634716,-0.05335 -2.634716,0.727249 0,1.093977 0.333692,1.24293 2.78446,1.24293 1.975223,0 2.363979,-0.130764 3.074615,-1.034193 z M 104.2388,75.41883 c 0.96286,-0.96286 1.14732,-1.463589 1.14732,-3.114481 0,-2.558183 -0.57531,-4.080905 -1.47304,-3.898815 -0.57523,0.116679 -0.66892,0.516583 -0.58137,2.481711 0.14425,3.23746 -0.12259,3.520132 -3.32291,3.520132 -2.151954,0 -2.67745,0.122304 -2.780479,0.647132 -0.163297,0.831817 1.466062,1.439724 3.968569,1.480654 1.59301,0.02605 2.07722,-0.151643 3.04191,-1.116333 z M 69.079479,75.208476 c 0,-0.561502 -0.365399,-0.843649 -1.354589,-1.04596 -2.670347,-0.546145 -3.169748,-2.815694 -1.000447,-4.546582 2.341157,-1.868013 1.284427,-3.458152 -1.211373,-1.822841 -2.037791,1.335212 -2.718305,4.311099 -1.469341,6.425426 0.826041,1.398376 1.911129,1.943618 3.661985,1.840099 1.074872,-0.06355 1.373765,-0.248519 1.373765,-0.850142 z m 53.282441,-1.706601 c 0.73094,-0.627768 0.97143,-3.386106 0.3298,-3.782657 -0.76454,-0.472512 -1.60544,0.281546 -1.60544,1.439645 0,1.045291 -0.10167,1.149469 -0.88313,0.904848 -1.75351,-0.548906 -2.45315,-0.440202 -2.45315,0.381145 0,0.498535 0.48107,1.025209 1.31826,1.443218 1.37935,0.688715 2.14688,0.598719 3.29366,-0.386199 z m -9.21306,-1.864284 c 1.73723,-1.216801 0.59153,-5.85525 -1.26982,-5.140981 -0.50996,0.195691 -0.62132,0.499795 -0.41922,1.144839 0.53262,1.699967 0.42566,2.419526 -0.38239,2.572357 -1.09116,0.206377 -1.5196,0.696124 -1.24195,1.419659 0.3054,0.795859 2.17969,0.798194 3.31338,0.0041 z M 79.178892,67.267417 c 1.170284,-2.419066 2.459478,-3.301775 5.262985,-3.603561 1.817334,-0.195629 2.320049,-0.399124 2.432294,-0.984572 0.208023,-1.085 -0.669691,-1.440039 -2.879533,-1.164784 -3.606382,0.449205 -5.915768,2.155007 -6.882259,5.083506 -0.963798,2.920335 0.714555,3.464009 2.066513,0.669411 z"
       id="path3657"
       inkscape:connector-curvature="0" />
    <path
       style="opacity:1;fill:#ffffff;fill-opacity:0.67281105;stroke:none;stroke-width:0.6794247;stroke-linecap:round;stroke-linejoin:round;stroke-miterlimit:4;stroke-dasharray:none;stroke-opacity:1;paint-order:normal"
       d="m 134.43347,173.31843 c 0.001,-0.86351 0.11469,-3.00891 0.25161,-4.76756 l 0.24894,-3.19754 4.36063,-0.16986 c 5.62686,-0.21919 8.21046,-1.15874 11.08165,-4.02993 5.10553,-5.10552 6.93915,-12.52204 6.98762,-28.26304 0.0317,-10.31005 -0.37804,-13.45605 -2.42248,-18.59789 -1.29603,-3.25958 -4.92373,-7.08732 -7.40666,-7.8151 -3.41327,-1.00048 -6.82901,-0.35035 -9.99183,1.90178 l -1.149,0.81816 v -6.84977 c 0,-6.767738 0.0106,-6.852766 0.88313,-7.099724 1.82165,-0.515579 11.49532,-0.718295 13.77055,-0.288569 7.61551,1.438349 12.13216,6.452323 14.19197,15.754623 1.37527,6.21085 1.16606,23.75489 -0.43529,36.50289 -1.80549,14.37305 -6.30941,23.4033 -12.90305,25.8703 -2.3789,0.89006 -7.48274,1.52418 -13.64322,1.69508 l -3.82722,0.10617 0.003,-1.57002 z m 14.38572,-5.68541 c 4.74799,-2.07873 8.17867,-8.90484 9.73158,-19.36316 0.79574,-5.35902 0.80496,-8.11803 0.0271,-8.11803 -0.67619,0 -0.76514,0.38503 -1.36015,5.88756 -0.79564,7.35792 -2.82283,13.835 -5.37895,17.18624 -1.51328,1.98402 -4.19052,3.52698 -6.65376,3.83475 -1.97923,0.24728 -2.58799,0.75146 -1.82664,1.51281 0.42704,0.42704 3.57644,-0.11518 5.46078,-0.94017 z"
       id="path3659"
       inkscape:connector-curvature="0" />
  </g>
</svg>
