<?xml version="1.0" encoding="UTF-8" standalone="no"?>
<!-- Created with Inkscape (http://www.inkscape.org/) -->

<svg
   xmlnsDc="http://purl.org/dc/elements/1.1/"
   xmlnsCc="http://creativecommons.org/ns#"
   xmlnsRdf="http://www.w3.org/1999/02/22-rdf-syntax-ns#"
   xmlnsSvg="http://www.w3.org/2000/svg"
   xmlns="http://www.w3.org/2000/svg"
   xmlnsXlink="http://www.w3.org/1999/xlink"
   xmlnsSodipodi="http://sodipodi.sourceforge.net/DTD/sodipodi-0.dtd"
   xmlnsInkscape="http://www.inkscape.org/namespaces/inkscape"
   width="200mm"
   height="200mm"
   viewBox="0 0 200 200"
   version="1.1"
   id="svg8"
   inkscapeVersion="0.92.4 5da689c313, 2019-01-14"
   sodipodiDocname="penne.svg">
  <defs
     id="defs2" />
  <sodipodi:namedview
     id="base"
     pagecolor="#ffffff"
     bordercolor="#666666"
     borderopacity="1.0"
     inkscape:pageopacity="0.0"
     inkscape:pageshadow="2"
     inkscape:zoom="1.4"
     inkscape:cx="332.72687"
     inkscape:cy="389.86077"
     inkscape:document-units="mm"
     inkscape:current-layer="g2343"
     showgrid="false"
     inkscape:window-width="1916"
     inkscape:window-height="1048"
     inkscape:window-x="0"
     inkscape:window-y="0"
     inkscape:window-maximized="0" />
  <metadata
     id="metadata5">
    <rdf:RDF>
      <cc:Work
         rdf:about="">
        <dc:format>image/svg+xml</dc:format>
        <dc:type
           rdf:resource="http://purl.org/dc/dcmitype/StillImage" />
        <dc:title></dc:title>
      </cc:Work>
    </rdf:RDF>
  </metadata>
  <g
     inkscape:label="Layer 1"
     inkscape:groupmode="layer"
     id="layer1"
     transform="translate(0,-97)">
    <g
       id="g2343"
       transform="matrix(0.26458333,0,0,0.26458333,-622.87038,-463.70361)">
      <path
         style="opacity:1;fill:#f2f2f2;fill-opacity:1;stroke:none;stroke-width:0;stroke-linecap:round;stroke-linejoin:round;stroke-miterlimit:4;stroke-dasharray:none;stroke-opacity:1;paint-order:normal"
         d="m 2799.8629,2564.6443 c -61.4979,-1.6293 -110.9541,-5.729 -152.2749,-12.6234 -87.2081,-14.5505 -136.2974,-40.8531 -149.3958,-80.0478 -1.034,-3.0947 -1.8802,-6.1547 -1.8802,-6.8002 0,-0.6455 2.6699,-5.7214 5.9332,-11.2797 5.2654,-8.9682 5.9459,-10.4647 6.0445,-13.2925 0.231,-6.611 7.9895,-15.9226 18.2877,-21.948 3.2828,-1.9208 15.8769,-10.6013 27.9869,-19.2898 60.4521,-43.3726 97.729,-65.2744 139.7485,-82.1083 15.7104,-6.2938 38.2779,-13.5441 39.2214,-12.6006 0.2154,0.2154 2.8159,27.8197 5.7787,61.3426 2.9629,33.523 5.498,61.062 5.6339,61.1977 0.1361,0.1361 32.8919,-22.0516 72.7911,-49.3052 39.8994,-27.2537 72.8993,-49.7006 73.3328,-49.8823 1.8121,-0.7588 19.4236,14.3221 30.3177,25.9616 32.9988,35.2561 60.1053,86.738 80.8821,153.6148 5.0897,16.3827 5.2502,18.1168 3.0343,32.7565 -1.1487,7.5901 -1.5905,12.5483 -1.4046,15.7671 l 0.271,4.6952 -5.8913,0.3862 c -8.1376,0.5334 -47.1869,2.0719 -72.0144,2.8371 -28.1731,0.8684 -103.1298,1.2354 -126.4026,0.619 z"
         id="path2813"
         inkscape:connector-curvature="0"
         sodipodi:nodetypes="cccscccccsccsccccccccc" />
      <path
         style="opacity:1;fill:#660080;fill-opacity:1;stroke:none;stroke-width:0;stroke-linecap:round;stroke-linejoin:round;stroke-miterlimit:4;stroke-dasharray:none;stroke-opacity:1;paint-order:normal"
         d="m 2718.5084,2611.0717 c -24.9046,-0.9388 -59.4386,-3.191 -81.4169,-6.9338 -79.8733,-13.6021 -127.8424,-44.4517 -143.5989,-92.8108 -3.8832,-11.9189 -3.1573,-19.2655 -2.0102,-26.8299 l 1.0151,-6.6931 4.0877,7.2479 c 2.2742,4.0324 7.2559,10.6968 11.23,15.0222 15.9323,17.3414 36.0878,29.3864 67.7078,40.4631 l 22.2112,7.097 c -0.2926,-4.663 -4.6129,-1.6568 0,0 1.4219,0.5106 8.3771,2.2613 15.4561,3.8901 l 12.871,2.9615 -4.4438,5.1369 -4.4436,5.1367 h -6.9391 c -9.2831,-0.1936 -7.3167,1.2805 -2.4051,5.6673 l 4.5339,4.0244 -3.2198,4.0483 c -1.7707,2.2266 -3.2196,4.3111 -3.2196,4.6323 0,0.3211 2.4641,0.5931 5.4759,0.604 l 5.4758,0.019 2.6284,4.0402 c 1.4457,2.2223 2.9045,4.0412 3.242,4.0423 0.3373,0 2.0965,-1.826 3.909,-4.0602 l 3.2957,-4.0619 h 6.8238 c 3.7528,0 6.8234,-0.2276 6.8234,-0.5055 0,-0.2782 -1.3747,-2.3606 -3.055,-4.628 l -3.0552,-4.1222 3.5725,-4.3963 c 1.9649,-2.418 3.9311,-4.6247 4.3694,-4.9036 0.4381,-0.2791 0.7967,-0.9328 0.7967,-1.4525 0,-0.6066 -2.5058,-0.8277 -6.9993,-0.6175 l -6.9994,0.3275 -1.3238,-4.0034 c -0.7283,-2.2019 -1.3241,-4.0715 -1.3241,-4.1548 0,-0.084 2.8584,0.4092 6.352,1.0943 50.5289,9.9091 128.57,15.6123 213.5594,15.6073 43.6052,0 128.7054,-2.3375 149.1327,-4.0916 l 5.8835,-0.5053 -4.068,7.1825 -12.2025,20.8329 c -1.1954,3.7313 -3.0238,3.0009 -35.799,5.9115 -87.8454,7.8013 -140.0029,10.5296 -195.3795,10.2206 -17.3476,-0.097 -34.6953,-0.295 -38.5502,-0.4403 z m 0.986,-12.4442 c 1.5038,-4.9152 1.5529,-4.9636 7.4921,-7.3642 3.2879,-1.3291 5.9782,-2.5207 5.9782,-2.6479 0,-0.1269 -2.0065,-1.5032 -4.459,-3.058 -2.4524,-1.5549 -4.2841,-3.3159 -4.0704,-3.9138 1.8209,-5.0908 3.3782,-10.7572 3.0498,-11.0956 -0.2207,-0.2274 -2.9959,0.786 -6.1671,2.2518 l -5.7661,2.6655 -3.639,-4.0675 c -2.0015,-2.2372 -3.7578,-3.9352 -3.9032,-3.7733 -0.1457,0.1628 -1.3638,3.5012 -2.7077,7.4208 l -2.4434,7.1266 -5.5724,2.6033 c -3.0649,1.4318 -5.3545,2.9668 -5.088,3.4108 0.2666,0.4444 2.5498,1.5031 5.0741,2.3526 2.5241,0.8497 4.7282,1.6668 4.8976,1.816 0.17,0.1483 -0.3635,2.3549 -1.1844,4.9016 -0.8211,2.5467 -1.3127,4.816 -1.0925,5.0425 0.2199,0.2268 2.5876,-0.4502 5.2613,-1.5042 l 4.8612,-1.9166 3.3547,2.3485 c 1.845,1.2917 3.6371,2.3485 3.9826,2.3485 0.3453,0 1.3091,-2.2264 2.1416,-4.9474 z m -54.8348,-0.06 c 0.6186,-0.7679 2.2592,-2.2285 3.646,-3.246 2.3239,-1.7047 2.9729,-1.7687 8.2847,-0.8156 3.1697,0.5686 5.9621,0.8291 6.2052,0.5787 0.2431,-0.2506 -0.5915,-2.2725 -1.8548,-4.4935 -1.2632,-2.2208 -2.2967,-4.2206 -2.2967,-4.4443 0,-0.2235 2.1683,-2.1301 4.8187,-4.2368 2.6502,-2.1065 4.8187,-4.1348 4.8187,-4.5067 0,-0.3718 -2.3921,-0.955 -5.3159,-1.2958 -7.3042,-0.8515 -7.6191,-1.0545 -8.263,-5.3262 -1.1213,-7.4418 -0.862,-7.3747 -7.4802,-1.9339 l -6.0518,4.9749 -6.3769,-0.8053 c -3.5072,-0.4429 -6.4885,-0.7079 -6.6253,-0.5893 -0.1372,0.118 1.4086,2.3762 3.4346,5.0167 l 3.6833,4.8009 -3.6537,3.2421 c -2.0095,1.783 -3.6535,3.4974 -3.6535,3.8096 0,0.3123 1.8916,0.8358 4.2036,1.1635 5.3051,0.7517 5.6726,1.0129 7.9624,5.6667 2.0513,4.1689 2.7975,4.5721 4.5146,2.4403 z"
         id="path2789"
         inkscape:connector-curvature="0"
         sodipodi:nodetypes="csccccccccccccccccsccccccsscccsscccsscscccscccccsccccccccccccccccccsccccccscscccccccccsccc" />
      <g
         class="st0"
         id="Layer_5"
         style="display:none">
        <image
           sodipodi:absref="/tmp/mozilla_tperale0/Downloads/45409148_350496415519204_7253999918115717120_n.jpg"
           xlink:href="file:///tmp/mozilla_tperale0/Downloads/45409148_350496415519204_7253999918115717120_n.jpg"
           id="image1719"
           transform="translate(110.554,189.8549)"
           height="3306"
           width="2176"
           style="display:inline;overflow:visible" />
      </g>
      <g
         id="Layer_2"
         transform="matrix(1.7222748,0,0,1.7222748,749.00291,1504.7555)">
        <path
           d="m 1009.3,573.4 2.7,-17.4 6.9,-11.80001"
           class="st5"
           sodipodi:nodetypes="ccc"
           inkscape:connector-curvature="0"
           id="path881"
           style="fill:none;stroke:#000000;stroke-width:5;stroke-linecap:round;stroke-linejoin:round" />
        <path
           d="m 1009.3,573.4 c -73.9,141.1 49.8,126.7 160.8,111 47.8,-6.8 151.2,-44.3 129.3,-47.6 -146.9,14 -279.1,17.8 -290.1,-63.4 z"
           class="st6"
           sodipodi:nodetypes="cscc"
           inkscape:connector-curvature="0"
           id="path883"
           style="fill:none;stroke:#000000;stroke-width:4;stroke-linecap:round;stroke-linejoin:round" />
        <path
           d="m 1012,556 c 9.1,57.1 131,67.8 299.9,59.3"
           class="st2"
           sodipodi:nodetypes="cc"
           inkscape:connector-curvature="0"
           id="path2085"
           style="fill:none;stroke:#000000;stroke-width:4" />
        <path
           d="M 1153.9214,461.86786 1160.2,532.9 l 86,-58.7"
           class="st3"
           inkscape:connector-curvature="0"
           id="path2089"
           style="fill:none;stroke:#000000;stroke-width:3"
           sodipodi:nodetypes="ccc" />
        <path
           d="m 1198.7,498.2 26.8,-19.3 -15.6,-2.3 -15.3,19.6"
           class="st3"
           inkscape:connector-curvature="0"
           id="path2091"
           style="fill:none;stroke:#000000;stroke-width:3" />
        <path
           d="m 1186.9,473.1 16.7,2.3 -24.5,32.6"
           class="st3"
           inkscape:connector-curvature="0"
           id="path2093"
           style="fill:none;stroke:#000000;stroke-width:3" />
        <path
           d="m 1180,473.1 -19.3,-0.6 3.2,34.4 7.2,-2.3 z"
           class="st3"
           inkscape:connector-curvature="0"
           id="path2095"
           style="fill:none;stroke:#000000;stroke-width:3" />
        <path
           d="m 1161.8,485.2 c 2,0.6 12.1,5.5 12.1,5.5"
           class="st13"
           inkscape:connector-curvature="0"
           id="path2097"
           style="fill:none;stroke:#000000;stroke-width:3;stroke-linecap:square;stroke-linejoin:round" />
        <path
           d="m 1063.1,610.7 6,-3.3 v 4.6 l 5.2,1.6 -4.6,2.6 1.3,3.9 -4.6,-1.6 -4,2.5 -1.2,-3.9 -3.5,-1.4 3.7,-2 -2.4,-4.3 z"
           class="st3"
           sodipodi:nodetypes="ccccccccccccc"
           inkscape:connector-curvature="0"
           id="path2099"
           style="fill:none;stroke:#000000;stroke-width:3" />
        <path
           d="m 1084.4609,616.67122 6.0263,-6.49894 1.8906,5.6718 6.9716,-0.11816 -4.6083,5.08099 3.1903,4.25385 -6.3808,-0.11816 -3.8993,4.72649 -3.0722,-4.25385 -4.8447,-0.23633 3.6631,-4.01751 -4.7266,-4.37202 z"
           class="st3"
           sodipodi:nodetypes="ccccccccccccc"
           inkscape:connector-curvature="0"
           id="path2099-0"
           style="fill:none;stroke:#000000;stroke-width:3.54487491" />
        <path
           d="m 1110.6386,622.45324 5.9387,-4.61899 0.7698,5.05889 5.9387,0.87981 -4.6189,3.6292 2.0895,4.0691 -5.2788,-0.98978 -3.9592,3.40925 -1.9795,-3.95913 -4.0691,-0.8798 3.6292,-2.85937 -3.2993,-4.28906 z"
           class="st3"
           sodipodi:nodetypes="ccccccccccccc"
           inkscape:connector-curvature="0"
           id="path2099-2"
           style="fill:none;stroke:#000000;stroke-width:3.29927468" />
        <path
           d="m 1135.4726,626.70739 2.5879,-7.201 3.488,3.93804 5.6257,-2.47534 -1.9128,5.62579 4.0506,2.36283 -5.1757,2.02528 -1.5752,5.0632 -3.8256,-2.36283 -4.0505,1.46272 1.5752,-4.50064 -5.1757,-1.91277 z"
           class="st3"
           sodipodi:nodetypes="ccccccccccccc"
           inkscape:connector-curvature="0"
           id="path2099-8"
           style="fill:none;stroke:#000000;stroke-width:3.37547135" />
        <path
           style="fill:none;stroke:#000000;stroke-width:3.77952766;stroke-linecap:butt;stroke-linejoin:miter;stroke-miterlimit:4;stroke-dasharray:none;stroke-opacity:1"
           d="m 1018.9,544.19999 c -0.6739,0.50996 1.7343,-9.74681 11.5644,-14.978 27.1153,-14.42959 209.7142,-185.81921 281.719,58.63421 2.8856,9.79635 -2.7756,16.34231 -0.2834,27.44379 l -12.5,21.5"
           id="path2777"
           inkscape:connector-curvature="0"
           sodipodi:nodetypes="csscc" />
        <path
           d="m 1103.5,549.1 c -8.4,29.5 -5.7,50.3 12.9,58.4 13.7,-0.9 26.5,3 49.3,-44.7 -16,-14.4 -51.8,-16.8 -62.2,-13.7 z"
           class="st3"
           sodipodi:nodetypes="cccc"
           inkscape:connector-curvature="0"
           id="path2087"
           style="fill:none;stroke:#000000;stroke-width:3" />
      </g>
      <path
         style="fill:none;stroke:#000000;stroke-width:1px;stroke-linecap:butt;stroke-linejoin:miter;stroke-opacity:1"
         d="m 2792.5628,2928.0959 644.3089,34.0651 929.9653,-7.8523 684.7319,-43.6496"
         id="path2345"
         inkscape:connector-curvature="0" />
      <path
         style="opacity:1;fill:#333333;fill-opacity:1;stroke:#010000;stroke-width:2.32478046;stroke-linecap:round;stroke-linejoin:round;stroke-miterlimit:4;stroke-dasharray:none;stroke-opacity:1;paint-order:normal"
         d="m 2566.6478,2695.7504 c -7.8052,-0.4025 -23.7429,-2.1846 -32.0457,-3.5834 -15.9279,-2.6835 -27.9793,-6.2603 -39.532,-11.7328 -49.7125,-23.5497 -55.7067,-74.1798 -18.6164,-157.2441 2.307,-5.1664 5.3023,-11.5848 6.6566,-14.263 l 2.4621,-4.8695 1.3866,5.177 c 3.1411,11.7273 9.3196,24.8274 16.5118,35.0093 5.3141,7.5231 17.7432,20.0451 25.8762,26.0692 17.9705,13.3112 39.7385,23.3663 67.1978,31.0406 74.744,20.8893 183.9129,22.7669 364.381,6.2672 14.2087,-1.2991 25.9285,-2.2717 26.0439,-2.1611 1.0704,1.0252 -18.8329,11.6562 -33.4251,17.8531 -44.4281,18.8675 -115.8509,41.4224 -163.3085,51.5721 -13.8598,2.964 -24.6812,4.7208 -51.3608,8.3372 -53.2409,7.217 -84.5425,10.4604 -119.0214,12.3325 -10.2336,0.5556 -43.8274,0.6791 -53.2061,0.1957 z"
         id="path2793"
         inkscape:connector-curvature="0" />
      <path
         style="opacity:1;fill:#ffff00;fill-opacity:1;stroke:none;stroke-width:0;stroke-linecap:round;stroke-linejoin:round;stroke-miterlimit:4;stroke-dasharray:none;stroke-opacity:1;paint-order:normal"
         d="m 2619.7298,2582.5408 c -1.1817,-1.7239 -2.7219,-2.9251 -3.7515,-2.9251 -1.728,0 -1.7268,-0.024 0.1101,-1.9767 2.3711,-2.5237 2.3371,-2.9798 -0.4379,-5.8764 -2.2747,-2.3741 -2.2779,-2.3955 -0.3722,-2.3955 1.2233,0 3.43,-1.6303 6.0684,-4.4835 3.0415,-3.2892 4.2716,-4.1425 4.6171,-3.2027 0.2592,0.7048 0.8575,2.3379 1.3293,3.6298 0.7664,2.0971 1.2789,2.3484 4.7849,2.3484 h 3.9264 l -2.5811,3.1314 -2.5812,3.1313 1.7232,2.4199 1.7232,2.4201 h -3.4078 c -2.9082,0 -3.8285,0.4913 -6.2773,3.3522 l -2.8694,3.3522 z"
         id="path2805"
         inkscape:connector-curvature="0" />
      <path
         style="opacity:1;fill:#ffff00;fill-opacity:1;stroke:none;stroke-width:0;stroke-linecap:round;stroke-linejoin:round;stroke-miterlimit:4;stroke-dasharray:none;stroke-opacity:1;paint-order:normal"
         d=""
         id="path2807"
         inkscape:connector-curvature="0"
         transform="translate(2354.1558,1128.9585)" />
      <path
         style="opacity:1;fill:#ffff00;fill-opacity:1;stroke:none;stroke-width:0;stroke-linecap:round;stroke-linejoin:round;stroke-miterlimit:4;stroke-dasharray:none;stroke-opacity:1;paint-order:normal"
         d="m 2662.4703,2590.9953 c -0.2836,-0.8933 -1.1148,-2.2234 -1.8469,-2.9557 -1.2322,-1.2323 -1.2056,-1.4334 0.3596,-2.7008 1.6852,-1.3646 1.6856,-1.3776 0.095,-3.5605 -1.0434,-1.4326 -1.2457,-2.1911 -0.5841,-2.1911 0.5566,0 2.9533,-1.4656 5.3259,-3.2567 l 4.3134,-3.257 0.5616,3.0532 c 0.6494,3.5317 1.4488,4.2452 4.7755,4.2623 h 2.4128 l -2.7321,2.2809 c -2.4184,2.019 -2.622,2.4871 -1.7734,4.0728 0.8923,1.6671 0.783,1.7919 -1.5677,1.7919 -1.4401,0 -3.6745,0.8754 -5.1962,2.0359 -3.2217,2.4577 -3.486,2.484 -4.1436,0.4123 z"
         id="path2809"
         inkscape:connector-curvature="0" />
      <path
         style="opacity:1;fill:#ffff00;fill-opacity:1;stroke:none;stroke-width:0;stroke-linecap:round;stroke-linejoin:round;stroke-miterlimit:4;stroke-dasharray:none;stroke-opacity:1;paint-order:normal"
         d="m 2712.5905,2595.2677 c -1.2679,-0.9333 -2.8591,-1.4845 -3.5359,-1.225 -1.4578,0.5595 -1.4765,0.4482 -0.402,-2.378 0.7536,-1.982 0.6007,-2.2579 -1.6907,-3.0567 -1.7621,-0.6143 -2.2798,-1.1665 -1.7226,-1.8376 0.4379,-0.5278 1.6123,-3.1403 2.6096,-5.8058 l 1.813,-4.8465 2.3118,2.7691 2.3118,2.7689 3.1119,-1.4838 c 2.7957,-1.3333 3.0591,-1.3458 2.5899,-0.1231 -1.6455,4.288 -1.5355,5.3158 0.6763,6.3237 l 2.1933,0.9993 -2.5307,1.0639 c -1.4737,0.6197 -2.8807,2.0352 -3.3695,3.3896 -1.9527,5.4136 -1.8246,5.3127 -4.3662,3.4421 z"
         id="path2811"
         inkscape:connector-curvature="0" />
      <path
         style="opacity:1;fill:#f2f2f2;fill-opacity:1;stroke:none;stroke-width:0;stroke-linecap:round;stroke-linejoin:round;stroke-miterlimit:4;stroke-dasharray:none;stroke-opacity:1;paint-order:normal"
         d="m 2749.6864,2416.9296 c -0.2062,-1.005 -10.1993,-114.0587 -10.0941,-114.1936 0.3398,-0.4347 14.9523,-3.2564 22.7695,-4.3971 32.9158,-4.8024 64.5128,-1.7021 91.9373,9.0209 8.0531,3.1489 21.657,9.9269 27.9005,13.9014 l 4.2192,2.6859 -5.7571,3.9917 c -7.5712,5.25 -127.0477,86.7222 -129.2377,88.1288 -0.9304,0.5976 -1.7123,0.9855 -1.7376,0.862 z m 10.3169,-38.1586 8.197,-2.5658 0.8832,-2.974 c 3.4809,-11.7215 15.786,-55.9931 15.6115,-56.1676 -0.2647,-0.2647 -39.3875,-1.628 -39.6343,-1.3812 -0.097,0.096 0.2294,4.3208 0.724,9.3874 0.4947,5.0666 1.0205,11.1495 1.1686,13.5176 0.1481,2.3682 1.1012,12.6097 2.1182,22.7587 1.017,10.1492 1.8587,18.799 1.8702,19.2218 0.029,1.0516 -0.1533,1.0876 9.0616,-1.7969 z m 44.1259,-26.6976 c 12.0723,-16.095 22.1009,-29.658 22.2857,-30.1399 0.1924,-0.5013 -0.033,-0.8762 -0.5253,-0.8762 -0.4738,0 -7.8885,-0.9733 -16.4772,-2.1629 -16.9978,-2.3542 -16.5958,-2.3876 -16.6137,1.3821 -0.017,2.3639 -0.8963,2.099 13.333,3.9892 l 10.5744,1.4047 -19.6431,26.1417 -19.6432,26.1417 1.9718,1.6915 c 1.0846,0.9303 2.1555,1.6916 2.3799,1.6916 0.2246,0 10.2854,-13.1687 22.3577,-29.2635 z m 52.1884,-16.5179 c 8.0049,-5.7543 10.0763,-7.5161 9.2265,-7.8482 -0.6028,-0.2354 -8.0158,-1.419 -16.4734,-2.6299 -8.4575,-1.2109 -15.8514,-2.3054 -16.4308,-2.4322 -0.7642,-0.1671 -4.7335,4.4836 -14.4549,16.9372 -7.3708,9.4422 -13.4795,17.5203 -13.5751,17.9513 -0.2082,0.9388 3.3472,3.707 4.1355,3.2199 0.3036,-0.1877 6.126,-7.4903 12.9384,-16.2279 l 12.3863,-15.8866 8.1155,1.173 c 4.4635,0.6452 8.4939,1.2958 8.9567,1.4458 0.4626,0.1499 -7.4259,6.2159 -17.5303,13.4796 -10.1045,7.2635 -19.1865,13.8511 -20.1824,14.6386 l -1.8106,1.4321 1.7032,2.2329 1.7031,2.233 15.485,-11.1493 c 8.5167,-6.1322 20.13,-14.4883 25.8073,-18.5693 z"
         id="path2817"
         inkscape:connector-curvature="0" />
      <path
         style="opacity:1;fill:#f2f2f2;fill-opacity:1;stroke:none;stroke-width:0;stroke-linecap:round;stroke-linejoin:round;stroke-miterlimit:4;stroke-dasharray:none;stroke-opacity:1;paint-order:normal"
         d="m 2761.6112,2342.3814 c -4.4615,-2.0867 -8.2755,-3.9634 -8.4755,-4.1706 -0.1999,-0.2072 -0.7225,-4.0544 -1.1611,-8.5494 l -0.7976,-8.1725 12.9398,0.4266 c 7.1168,0.2347 13.0214,0.5084 13.1211,0.6081 0.3872,0.3873 -6.401,23.3785 -6.9416,23.5111 -0.3153,0.077 -4.2235,-1.5666 -8.6851,-3.6533 z"
         id="path2819"
         inkscape:connector-curvature="0" />
      <path
         style="opacity:1;fill:#f2f2f2;fill-opacity:1;stroke:none;stroke-width:0;stroke-linecap:round;stroke-linejoin:round;stroke-miterlimit:4;stroke-dasharray:none;stroke-opacity:1;paint-order:normal"
         d="m 2755.8819,2372.6375 c -9e-4,-0.7974 -0.5632,-7.2306 -1.2497,-14.2961 -0.6867,-7.0655 -1.1455,-12.9491 -1.0199,-13.0746 0.208,-0.2081 14.5355,6.3388 15.14,6.9182 0.1429,0.136 -0.9412,4.5304 -2.4088,9.7639 l -2.6683,9.5154 -3.127,1.0277 c -1.72,0.5652 -3.4731,1.1554 -3.8959,1.3115 -0.4778,0.1763 -0.7695,-0.2653 -0.7704,-1.166 z"
         id="path2821"
         inkscape:connector-curvature="0" />
      <path
         style="opacity:1;fill:#668000;fill-opacity:1;stroke:none;stroke-width:0;stroke-linecap:round;stroke-linejoin:round;stroke-miterlimit:4;stroke-dasharray:none;stroke-opacity:1;paint-order:normal"
         d=""
         id="path2928"
         inkscape:connector-curvature="0"
         transform="translate(2354.1558,1128.9585)" />
      <flowRoot
         xml:space="preserve"
         id="flowRoot1076"
         style="font-style:normal;font-weight:normal;font-size:40px;line-height:1.25;font-family:sans-serif;letter-spacing:0px;word-spacing:0px;fill:#000000;fill-opacity:1;stroke:none"><flowRegion
           id="flowRegion1078"><rect
             id="rect1080"
             width="1341.4825"
             height="242.43661"
             x="840.4469"
             y="453.14645" /></flowRegion><flowPara
           id="flowPara1082" /></flowRoot>      <path
         style="opacity:1;fill:#ffff00;fill-opacity:1;stroke:none;stroke-width:0;stroke-linecap:round;stroke-linejoin:round;stroke-miterlimit:4;stroke-dasharray:none;stroke-opacity:1;paint-order:normal"
         d="m 2576.6809,2567.5713 c -0.2962,-1.0921 -0.9252,-2.2127 -1.3977,-2.4904 -0.5426,-0.3187 -0.5775,-0.6038 -0.094,-0.7736 2.6169,-0.9209 2.966,-1.3889 2.1302,-2.8557 -0.7905,-1.3874 -0.5891,-1.5745 3.4816,-3.2383 2.3763,-0.9711 4.5783,-1.8632 4.8934,-1.9824 0.3152,-0.1198 0.5731,0.8845 0.5731,2.2306 0,2.2714 0.1989,2.4998 2.77,3.1784 l 2.7704,0.731 -2.3846,1.2074 c -1.9592,0.9919 -2.2985,1.4812 -1.9023,2.7432 0.4559,1.453 0.3524,1.5133 -1.9157,1.1149 -1.7706,-0.3109 -3.0702,-0.089 -4.969,0.8496 -1.4143,0.699 -2.7613,1.2709 -2.9935,1.2709 -0.2322,0 -0.6646,-0.8935 -0.9609,-1.9856 z"
         id="path2803"
         inkscape:connector-curvature="0" />
      <path
         style="opacity:1;fill:#b3b3b3;fill-opacity:1;stroke:none;stroke-width:1.00611806;stroke-linecap:round;stroke-linejoin:round;stroke-miterlimit:4;stroke-dasharray:none;stroke-opacity:1;paint-order:normal"
         d="m 314.75694,427.24393 c -18.39384,-9.91525 -26.53558,-29.82346 -23.88828,-58.41165 0.74884,-8.08673 2.58061,-18.57811 4.8232,-27.62468 l 1.90193,-7.67234 3.56411,-0.6502 c 5.3533,-0.97659 24.59463,-0.82077 33.61616,0.27223 25.15445,3.04757 45.00197,9.3488 59.1831,18.78956 2.72887,1.81668 4.96158,3.40724 4.96158,3.53456 0,0.53856 -7.94381,16.03274 -11.2216,21.88743 -13.99406,24.99572 -27.04709,40.17257 -40.04187,46.55693 -5.33276,2.62 -10.58535,3.88897 -18.64119,4.50354 -10.04762,0.76651 -10.74352,0.70865 -14.25714,-1.18538 z"
         id="path1102"
         inkscape:connector-curvature="0"
         transform="translate(2354.1558,2119.1948)" />
    </g>
  </g>
  <style
     id="style1717"
     type="text/css">
	.st0{display:none;}
	.st1{fill:none;stroke:#000000;stroke-width:6;}
	.st2{fill:none;stroke:#000000;stroke-width:4;}
	.st3{fill:none;stroke:#000000;stroke-width:3;}
	.st4{stroke:#000000;stroke-miterlimit:10;}
	.st5{fill:none;stroke:#000000;stroke-width:5;stroke-linecap:round;stroke-linejoin:round;}
	.st6{fill:none;stroke:#000000;stroke-width:4;stroke-linecap:round;stroke-linejoin:round;}
	.st7{fill:none;stroke:#000000;stroke-width:5;}
	.st8{stroke:#000000;stroke-width:5;}
	.st9{fill:none;stroke:#000000;stroke-width:3;stroke-linecap:round;}
	.st10{fill:none;stroke:#000000;stroke-width:5;stroke-linecap:round;}
	.st11{fill:none;stroke:#000000;stroke-width:5;stroke-linejoin:round;}
	.st12{fill:none;stroke:#000000;stroke-width:3;stroke-linecap:round;stroke-linejoin:round;}
	.st13{fill:none;stroke:#000000;stroke-width:3;stroke-linecap:square;stroke-linejoin:round;}
</style>
</svg>
